<svg
  xmlns="http://www.w3.org/2000/svg"
  viewBox="0 0 150 100"
  fill="none"
  stroke="currentColor"
>
  <svg viewBox="0 0 100 100" x="-25" y="0" width="100" height="100">
    <path d="M30 17.5C30 30 40 40 45 45m10 10c5 5 15 15 15 27.5" />
    <path d="M70 17.5C70 30 60 40 55 45L45 55c-5 5-15 15-15 27.5" />
    <path d="M40 22.5h20m-15 10h10m-15 45h20m-15-10h10" />
  </svg>

  <path d="M 60 50 L 90 50" stroke-dasharray="0.1 9.867" />

  <svg viewBox="0 0 100 100" x="75" y="0" width="100" height="100">
    <circle cx="50" cy="42" r="18" />
    <path d="M32 42v41" />
    <path d="M32 21s7-7 18-7 18 7 18 7" />
    <path d="M55 43v-2h2v2h-2z" />
  </svg>
</svg>
