<svg xmlns="http://www.w3.org/2000/svg" viewBox="-10 -10 120 120">
  <circle fill="none" stroke="currentColor" cx="50" cy="50" r="55" />
  <circle cx="60" cy="44" r="12" />
  <path fill="none" stroke="currentColor" d="M48 44v28" />
  <path fill="none" stroke="currentColor" d="M48 29s4.667-5 12-5 12 5 12 5" />
  <path fill="none" stroke="currentColor" d="M64 45v-1h1v1h-1z" />
  <path
    fill="none"
    stroke="currentColor"
    d="M15 45s2-2 5-2 5 2 5 2 2 2 5 2 5-2 5-2"
  />
  <path
    fill="none"
    stroke="currentColor"
    d="M15 55s2-2 5-2 5 2 5 2 2 2 5 2 5-2 5-2"
  />
</svg>
