<svg id="Layer_1" data-name="Layer 1" xmlns="http://www.w3.org/2000/svg" viewBox="0 0 198.61 83.37"><defs><style>.cls-1{fill:#231f20;}.cls-2{fill:#e96b24;}.cls-3{fill:none;stroke:#231f20;stroke-miterlimit:10;}</style></defs><path class="cls-1" d="M9.05,49.48c-.06-1.89-.14-3.78-.21-5.66l3.49.15c1.16,0,2.33.07,3.5.07s2.33,0,3.47-.07l3.48-.15a7.38,7.38,0,0,0,0,2.65l-2.28-.18-2.19-.17c-.77-.06-1.61-.11-2.52-.16s-2-.06-3.28-.06c0,.94-.06,1.84-.1,2.7s-.06,1.83-.06,2.92,0,2.27,0,3.36,0,1.92,0,2.48c1.15,0,2.17,0,3.09,0s1.74-.07,2.5-.11l2.09-.14c.63,0,1.24-.09,1.81-.15a7.67,7.67,0,0,0-.12,1.37,7.48,7.48,0,0,0,.12,1.33c-.68-.09-1.46-.16-2.36-.22s-1.8-.1-2.7-.11l-2.53,0-1.9,0c0,.27,0,.55,0,.86s0,.7,0,1.18v4.38c0,1.68,0,3.07,0,4.16s0,1.92.06,2.48h2.73c1,0,2,0,2.91-.07s1.85-.1,2.7-.17A16.43,16.43,0,0,0,23,71.7a2.94,2.94,0,0,0-.1.69c0,.25,0,.48,0,.69A4.55,4.55,0,0,0,23,74.23c-1.18-.06-2.34-.09-3.5-.09H12.39c-1.17,0-2.36,0-3.55.09.07-1.89.15-3.77.21-5.65s.1-3.78.1-5.73V55.24C9.15,53.29,9.12,51.37,9.05,49.48Z"/><path class="cls-1" d="M40.65,50.08q1.55-2.85,3.18-6.26a6.39,6.39,0,0,0,1.45.22,6.31,6.31,0,0,0,1.44-.22l-4.37,6.86q-2.16,3.36-4.14,7,2.22,4.29,4.47,8.41t4.59,8.19a6.8,6.8,0,0,0-1.1-.09H44a6.8,6.8,0,0,0-1.1.09q-1.56-3.24-3.1-6.58A74.82,74.82,0,0,0,36.25,61c-1.32,2.24-2.56,4.48-3.71,6.7l-3.36,6.58a3.35,3.35,0,0,0-.76-.09H27.06a3.44,3.44,0,0,0-.77.09q2.36-3.67,4.57-7.44t4.46-7.66C34,56.54,32.6,54,31.24,51.47s-2.77-5.06-4.2-7.65l1.05.15a8,8,0,0,0,2.11,0l1.05-.15c.86,2,1.79,3.93,2.78,5.86s2.08,4,3.28,6.26C38.51,53.94,39.62,52,40.65,50.08Z"/><path class="cls-1" d="M51.43,52.38a14.11,14.11,0,0,1,3-5,12.8,12.8,0,0,1,4.63-3.1,17.06,17.06,0,0,1,11.84,0,12.76,12.76,0,0,1,4.62,3.1,14.28,14.28,0,0,1,3,5,19.4,19.4,0,0,1,1.08,6.71,19.44,19.44,0,0,1-1.08,6.71,14.14,14.14,0,0,1-3,5,12.14,12.14,0,0,1-4.62,3,18.2,18.2,0,0,1-11.84,0,12.17,12.17,0,0,1-4.63-3,14,14,0,0,1-3-5,19.44,19.44,0,0,1-1.08-6.71A19.4,19.4,0,0,1,51.43,52.38ZM75,52.74a12.44,12.44,0,0,0-2.29-4.43,9,9,0,0,0-3.43-2.59,11.22,11.22,0,0,0-8.52,0,9.14,9.14,0,0,0-3.44,2.59A12.59,12.59,0,0,0,55,52.74a21.66,21.66,0,0,0-.82,6.35A21.71,21.71,0,0,0,55,65.44a12.68,12.68,0,0,0,2.28,4.43,9.24,9.24,0,0,0,3.44,2.59,11.22,11.22,0,0,0,8.52,0,9.13,9.13,0,0,0,3.43-2.59A12.52,12.52,0,0,0,75,65.44a22.05,22.05,0,0,0,.82-6.35A22,22,0,0,0,75,52.74Z"/><path class="cls-1" d="M93,55.46q2.76,5.92,5.76,12.17l1.13-2.41,1.72-3.61c.65-1.36,1.35-2.82,2.09-4.4S105.22,54,106,52.4s1.53-3.21,2.28-4.78,1.46-3,2.11-4.38h.51q.42,4.24.8,8.21t.76,7.79q.39,3.84.78,7.57t.86,7.42a4.86,4.86,0,0,0-.92-.09h-1.83a4.86,4.86,0,0,0-.92.09q-.44-5.9-.86-11.42T108.5,51.52h-.07q-2.7,5.58-5.29,11.09T98.2,74.14h-.36Q95.5,68.56,92.94,63c-1.7-3.73-3.42-7.55-5.13-11.44h-.08c-.18,1.83-.39,3.81-.61,5.95s-.42,4.25-.6,6.33-.34,4-.47,5.89-.2,3.36-.2,4.54a9.5,9.5,0,0,0-1.36-.09,9.65,9.65,0,0,0-1.37.09c.34-2.39.69-4.92,1-7.57s.72-5.33,1.06-8,.65-5.33.94-7.94.53-5.1.74-7.46h.66Q90.27,49.53,93,55.46Z"/><path class="cls-2" d="M119.87,49.55q-.09-2.82-.21-5.73l1,.15a7.57,7.57,0,0,0,.94.07,7.43,7.43,0,0,0,.94-.07l1-.15c-.08,1.94-.15,3.85-.22,5.73s-.1,3.78-.1,5.73v7.61c0,2,0,3.87.1,5.76s.14,3.75.22,5.58q-.9-.09-1.92-.09c-.68,0-1.31,0-1.91.09q.12-2.74.21-5.58c.07-1.89.1-3.81.1-5.76V55.28C120,53.33,119.94,51.42,119.87,49.55Z"/><path class="cls-1" d="M130.63,70.09a6.7,6.7,0,0,0,1.29,1.48,6.49,6.49,0,0,0,1.78,1.09,5.83,5.83,0,0,0,2.26.42,5.21,5.21,0,0,0,2.33-.51A5.47,5.47,0,0,0,140,71.2a6.3,6.3,0,0,0,1.12-2,7.89,7.89,0,0,0,.39-2.5,5.17,5.17,0,0,0-.92-3.23,7.91,7.91,0,0,0-2.29-2,26.14,26.14,0,0,0-3-1.46,14.17,14.17,0,0,1-2.94-1.66,7.53,7.53,0,0,1-3.21-6.7,9.42,9.42,0,0,1,.59-3.39,7.33,7.33,0,0,1,1.7-2.63,7.75,7.75,0,0,1,2.67-1.73,9.56,9.56,0,0,1,3.52-.62,9.26,9.26,0,0,1,3.24.51,7.83,7.83,0,0,1,2.54,1.57,10,10,0,0,0-.59,1.59c-.15.57-.31,1.27-.47,2.13H142a12.83,12.83,0,0,0-.53-1.35,5,5,0,0,0-.9-1.35,5.17,5.17,0,0,0-1.35-1,3.88,3.88,0,0,0-1.87-.42,4.91,4.91,0,0,0-2,.4,4.63,4.63,0,0,0-1.6,1.12,5.16,5.16,0,0,0-1.06,1.75,6.39,6.39,0,0,0-.37,2.22,5.25,5.25,0,0,0,.92,3.27,8.08,8.08,0,0,0,2.28,2,22.5,22.5,0,0,0,2.95,1.46,15.67,15.67,0,0,1,2.95,1.57,8,8,0,0,1,2.28,2.39,7.17,7.17,0,0,1,.92,3.9,11.44,11.44,0,0,1-.64,3.85A9.22,9.22,0,0,1,142.07,72a8.17,8.17,0,0,1-3,2.08,10.56,10.56,0,0,1-4,.73,9,9,0,0,1-3.92-.73,10.39,10.39,0,0,1-2.52-1.66,12,12,0,0,0,.49-1.83c.09-.55.17-1.25.25-2.11h.47A9.66,9.66,0,0,0,130.63,70.09Z"/><path class="cls-1" d="M150.08,49.48c-.07-1.89-.14-3.78-.22-5.66l3.5.15c1.16,0,2.32.07,3.49.07s2.34,0,3.48-.07l3.48-.15a7.38,7.38,0,0,0,0,2.65l-2.29-.18-2.19-.17c-.76-.06-1.6-.11-2.51-.16s-2-.06-3.29-.06q0,1.41-.09,2.7c0,.85-.06,1.83-.06,2.92s0,2.27,0,3.36,0,1.92,0,2.48c1.14,0,2.17,0,3.08,0s1.75-.07,2.5-.11l2.09-.14c.64,0,1.25-.09,1.82-.15a7.67,7.67,0,0,0-.12,1.37,7.48,7.48,0,0,0,.12,1.33c-.68-.09-1.47-.16-2.36-.22s-1.8-.1-2.7-.11l-2.54,0-1.89,0c0,.27,0,.55,0,.86s0,.7,0,1.18v4.38c0,1.68,0,3.07,0,4.16s0,1.92.06,2.48h2.73c1,0,2,0,2.91-.07s1.85-.1,2.7-.17a16,16,0,0,0,2.2-.34,4.57,4.57,0,0,0-.1.69c0,.25,0,.48,0,.69a4.55,4.55,0,0,0,.12,1.15c-1.17-.06-2.33-.09-3.49-.09h-7.09c-1.17,0-2.36,0-3.56.09.08-1.89.15-3.77.22-5.65s.1-3.78.1-5.73V55.24C150.18,53.29,150.14,51.37,150.08,49.48Z"/><path class="cls-1" d="M169.61,49.55c-.07-1.88-.14-3.79-.22-5.73l2.23.15c.73,0,1.47.07,2.22.07s1.5,0,2.23-.11a20.43,20.43,0,0,1,2.23-.11,13.2,13.2,0,0,1,3.12.35,7.27,7.27,0,0,1,2.6,1.17,5.74,5.74,0,0,1,1.76,2.15,7.7,7.7,0,0,1,.64,3.32,7.46,7.46,0,0,1-.84,3.65A8.43,8.43,0,0,1,183.53,57a9.38,9.38,0,0,1-2.6,1.55,11.79,11.79,0,0,1-2.52.74c.32.44.75,1.06,1.29,1.85s1.16,1.68,1.84,2.64l2.11,3c.73,1,1.43,2,2.11,3s1.31,1.84,1.91,2.63,1.08,1.4,1.44,1.82a7.68,7.68,0,0,0-1.17-.09h-2.3a6.9,6.9,0,0,0-1.13.09l-1.78-2.79c-.8-1.24-1.67-2.57-2.64-4s-1.94-2.82-3-4.22-1.92-2.59-2.75-3.57h-1.48v3.23q0,2.92.09,5.76c.07,1.89.14,3.75.22,5.58-.6-.06-1.24-.09-1.91-.09s-1.32,0-1.92.09c.08-1.83.15-3.69.22-5.58s.09-3.81.09-5.76V55.28Q169.7,52.36,169.61,49.55ZM174.1,58c.43,0,.9.05,1.42.05a11.27,11.27,0,0,0,2.52-.31,6.87,6.87,0,0,0,2.4-1.09,6.16,6.16,0,0,0,1.82-2.08,6.77,6.77,0,0,0,.72-3.3,6.43,6.43,0,0,0-.56-2.85A5,5,0,0,0,181,46.6a5.25,5.25,0,0,0-1.95-.9,8.74,8.74,0,0,0-2.07-.25c-.91,0-1.67,0-2.27.07s-1.1.1-1.52.15c0,1.63-.1,3.24-.16,4.83s-.07,3.19-.07,4.78V57.8A6.92,6.92,0,0,0,174.1,58Z"/><rect class="cls-1" x="8.87" y="18.16" width="14.57" height="17.19"/><rect class="cls-1" x="26.86" y="18.16" width="4.12" height="17.19"/><rect class="cls-1" x="43.43" y="18.16" width="4.12" height="17.19"/><rect class="cls-1" x="61.35" y="18.16" width="7.9" height="17.19"/><rect class="cls-1" x="86.95" y="18.16" width="3.01" height="17.19"/><rect class="cls-1" x="107.89" y="18.16" width="3.42" height="17.19"/><rect class="cls-2" x="119.78" y="18.16" width="4.23" height="17.19"/><rect class="cls-1" x="132.6" y="18.16" width="7.9" height="17.19"/><rect class="cls-1" x="150.51" y="18.16" width="15.54" height="17.19"/><rect class="cls-1" x="169.63" y="18.16" width="11.52" height="17.19"/><rect class="cls-3" x="8.87" y="18.16" width="178.22" height="17.19"/></svg>