<svg id="Layer_1" data-name="Layer 1" xmlns="http://www.w3.org/2000/svg" viewBox="0 0 198.61 83.37"><defs><style>.cls-1{fill:#787878;}.cls-2{fill:#ec9735;}</style></defs><path class="cls-1" d="M9.37,43.69C9.3,41.8,9.23,39.91,9.15,38l3.5.16c1.16,0,2.32.06,3.5.06s2.33,0,3.47-.06L23.1,38A7.48,7.48,0,0,0,23,39.35a7.56,7.56,0,0,0,.12,1.33l-2.29-.18-2.18-.18q-1.15-.09-2.52-.15c-.92-.05-2-.07-3.28-.07,0,.95-.06,1.85-.1,2.7s-.06,1.83-.06,2.92,0,2.28,0,3.37,0,1.92,0,2.48c1.14,0,2.17,0,3.08,0s1.75-.06,2.5-.11l2.09-.13,1.82-.15a7.65,7.65,0,0,0,0,2.7c-.68-.09-1.47-.17-2.36-.23s-1.8-.09-2.7-.11l-2.54,0c-.79,0-1.42,0-1.89,0,0,.26,0,.55,0,.86s0,.7,0,1.17v4.39c0,1.68,0,3.07,0,4.16s0,1.92.06,2.48h2.73c1,0,2,0,2.91-.07s1.85-.1,2.7-.18a14.71,14.71,0,0,0,2.2-.33,3.6,3.6,0,0,0-.09.69c0,.25,0,.48,0,.68a4.51,4.51,0,0,0,.11,1.15c-1.17-.06-2.33-.09-3.49-.09H12.71c-1.17,0-2.36,0-3.56.09.08-1.88.15-3.77.22-5.64s.1-3.79.1-5.73V49.44C9.47,47.49,9.43,45.58,9.37,43.69Z"/><path class="cls-1" d="M41,44.29c1-1.91,2.09-4,3.18-6.27a5.8,5.8,0,0,0,1.44.22A5.87,5.87,0,0,0,47,38c-1.49,2.33-2.94,4.62-4.38,6.86s-2.81,4.56-4.14,6.95q2.23,4.31,4.48,8.41t4.59,8.19a6.8,6.8,0,0,0-1.1-.09H44.3a6.77,6.77,0,0,0-1.09.09c-1-2.15-2.08-4.34-3.1-6.57a75,75,0,0,0-3.54-6.71c-1.33,2.25-2.56,4.48-3.71,6.71L29.5,68.43a3.35,3.35,0,0,0-.76-.09H27.37a3.42,3.42,0,0,0-.76.09Q29,64.76,31.18,61t4.45-7.66q-2-3.9-4.08-7.66T27.35,38l1.06.16a9.31,9.31,0,0,0,2.11,0L31.57,38c.86,2,1.79,3.93,2.78,5.87s2.08,4,3.28,6.26C38.82,48.14,39.94,46.19,41,44.29Z"/><path class="cls-1" d="M51.74,46.59a14.1,14.1,0,0,1,3-5,12.72,12.72,0,0,1,4.63-3.1,17,17,0,0,1,11.83,0,12.72,12.72,0,0,1,4.63,3.1,14.1,14.1,0,0,1,3,5,19.62,19.62,0,0,1,1.07,6.7A19.64,19.64,0,0,1,78.85,60a14.28,14.28,0,0,1-3,5,12,12,0,0,1-4.63,3,18,18,0,0,1-11.83,0,12,12,0,0,1-4.63-3,14.28,14.28,0,0,1-3-5,19.64,19.64,0,0,1-1.07-6.71A19.62,19.62,0,0,1,51.74,46.59Zm23.54.35A12.61,12.61,0,0,0,73,42.51a9.27,9.27,0,0,0-3.44-2.59,11.2,11.2,0,0,0-8.51,0,9.27,9.27,0,0,0-3.44,2.59,12.6,12.6,0,0,0-2.28,4.43,21.71,21.71,0,0,0-.82,6.35,21.78,21.78,0,0,0,.82,6.36,12.46,12.46,0,0,0,2.28,4.42A9.06,9.06,0,0,0,61,66.66a11.2,11.2,0,0,0,8.51,0A9.06,9.06,0,0,0,73,64.07a12.47,12.47,0,0,0,2.29-4.42,22.12,22.12,0,0,0,.82-6.36A22.05,22.05,0,0,0,75.28,46.94Z"/><path class="cls-1" d="M93.34,49.66q2.75,5.94,5.76,12.18l1.13-2.42,1.72-3.6q1-2,2.09-4.41l2.26-4.8c.77-1.62,1.53-3.22,2.29-4.78s1.46-3,2.11-4.38h.51q.42,4.24.8,8.21c.24,2.64.5,5.24.76,7.79s.52,5.08.78,7.57.55,5,.86,7.41a4.86,4.86,0,0,0-.92-.09h-1.84a4.84,4.84,0,0,0-.91.09q-.43-5.88-.86-11.42t-1.06-11.29h-.07q-2.7,5.58-5.3,11.09T98.51,68.34h-.35q-2.34-5.57-4.9-11.17T88.12,45.72h-.07q-.28,2.74-.61,6T86.84,58c-.19,2.08-.34,4-.47,5.89s-.2,3.35-.2,4.53a9.65,9.65,0,0,0-1.37-.09,9.5,9.5,0,0,0-1.36.09q.51-3.59,1-7.57t1.06-8c.33-2.68.65-5.33.93-7.94s.54-5.1.75-7.46h.66Q90.59,43.74,93.34,49.66Z"/><path class="cls-2" d="M120.19,43.75c-.06-1.87-.14-3.78-.21-5.73l1,.16a7.42,7.42,0,0,0,.94.06,7.54,7.54,0,0,0,.94-.06l1-.16c-.07,1.95-.15,3.86-.21,5.73s-.1,3.79-.1,5.74V57.1c0,1.95,0,3.87.1,5.76s.14,3.74.21,5.57c-.6-.06-1.23-.09-1.91-.09a19,19,0,0,0-1.91.09c.07-1.83.15-3.68.21-5.57s.1-3.81.1-5.76V49.49C120.29,47.54,120.25,45.63,120.19,43.75Z"/><path class="cls-1" d="M131,64.29a7,7,0,0,0,1.29,1.49A6.4,6.4,0,0,0,134,66.86a5.92,5.92,0,0,0,2.27.42,5.17,5.17,0,0,0,2.32-.51,5.27,5.27,0,0,0,1.76-1.37,6.08,6.08,0,0,0,1.11-2,7.84,7.84,0,0,0,.39-2.5,5.2,5.2,0,0,0-.91-3.23,8,8,0,0,0-2.29-2,24.55,24.55,0,0,0-2.95-1.46,14.72,14.72,0,0,1-3-1.66A8.38,8.38,0,0,1,130.48,50a8.14,8.14,0,0,1-.92-4.16,9.33,9.33,0,0,1,.59-3.38,7.32,7.32,0,0,1,1.7-2.64,7.72,7.72,0,0,1,2.67-1.72,9.32,9.32,0,0,1,3.52-.62,9.51,9.51,0,0,1,3.24.5,7.86,7.86,0,0,1,2.54,1.58,10,10,0,0,0-.59,1.59c-.15.56-.31,1.27-.47,2.13h-.47a12,12,0,0,0-.52-1.36,5.89,5.89,0,0,0-.9-1.35,5.4,5.4,0,0,0-1.35-1,3.91,3.91,0,0,0-1.87-.42,5.16,5.16,0,0,0-2,.4,4.85,4.85,0,0,0-1.6,1.13A5.2,5.2,0,0,0,133,42.36a6.37,6.37,0,0,0-.37,2.21,5.22,5.22,0,0,0,.92,3.28,7.9,7.9,0,0,0,2.28,2,19.76,19.76,0,0,0,2.95,1.46,16.61,16.61,0,0,1,3,1.57,8.05,8.05,0,0,1,2.28,2.4,7.25,7.25,0,0,1,.92,3.89,11.4,11.4,0,0,1-.64,3.85,9.26,9.26,0,0,1-1.88,3.17,8.25,8.25,0,0,1-3,2.08,10.47,10.47,0,0,1-4,.73,9,9,0,0,1-3.92-.73,10.3,10.3,0,0,1-2.52-1.66,13.08,13.08,0,0,0,.49-1.84c.09-.54.17-1.24.25-2.1h.47A9.21,9.21,0,0,0,131,64.29Z"/><path class="cls-1" d="M150.4,43.69c-.07-1.89-.14-3.78-.22-5.67l3.5.16c1.16,0,2.32.06,3.49.06s2.33,0,3.48-.06l3.48-.16a7.48,7.48,0,0,0-.12,1.33,7.56,7.56,0,0,0,.12,1.33l-2.29-.18-2.19-.18q-1.14-.09-2.52-.15c-.91-.05-2-.07-3.28-.07q0,1.42-.09,2.7c0,.86-.06,1.83-.06,2.92s0,2.28,0,3.37,0,1.92,0,2.48c1.14,0,2.17,0,3.08,0s1.75-.06,2.5-.11l2.09-.13,1.82-.15a7.65,7.65,0,0,0,0,2.7c-.68-.09-1.47-.17-2.37-.23s-1.79-.09-2.69-.11l-2.54,0c-.79,0-1.42,0-1.89,0,0,.26,0,.55,0,.86s0,.7,0,1.17v4.39c0,1.68,0,3.07,0,4.16s0,1.92.06,2.48h2.73c1,0,2,0,2.91-.07s1.85-.1,2.69-.18a14.66,14.66,0,0,0,2.21-.33,4.57,4.57,0,0,0-.1.69c0,.25,0,.48,0,.68a4.45,4.45,0,0,0,.12,1.15c-1.17-.06-2.34-.09-3.49-.09h-7.09c-1.17,0-2.36,0-3.56.09.08-1.88.15-3.77.22-5.64s.09-3.79.09-5.73V49.44C150.49,47.49,150.46,45.58,150.4,43.69Z"/><path class="cls-1" d="M169.92,43.75q-.09-2.8-.21-5.73l2.23.16c.72,0,1.47.06,2.22.06a20.43,20.43,0,0,0,2.23-.11c.73-.07,1.47-.11,2.22-.11a13.22,13.22,0,0,1,3.13.36,7,7,0,0,1,2.6,1.17,5.64,5.64,0,0,1,1.75,2.15,8.56,8.56,0,0,1-.19,7,8.58,8.58,0,0,1-2.05,2.52,10.06,10.06,0,0,1-2.6,1.55,11.72,11.72,0,0,1-2.52.73L180,55.33c.55.8,1.16,1.68,1.84,2.63l2.1,3,2.11,3q1,1.44,1.92,2.64c.6.8,1.08,1.4,1.44,1.81a7.68,7.68,0,0,0-1.17-.09H186a7.11,7.11,0,0,0-1.14.09l-1.77-2.79q-1.2-1.85-2.64-4c-1-1.42-1.95-2.82-2.95-4.23s-1.92-2.59-2.75-3.56h-1.49V57.1c0,1.95,0,3.87.1,5.76s.14,3.74.22,5.57q-.9-.09-1.92-.09c-.67,0-1.31,0-1.91.09.08-1.83.15-3.68.21-5.57s.1-3.81.1-5.76V49.49C170,47.54,170,45.63,169.92,43.75Zm4.5,8.44c.43,0,.9,0,1.42,0a10.72,10.72,0,0,0,2.52-.31,6.85,6.85,0,0,0,2.4-1.08,6.16,6.16,0,0,0,1.82-2.08,6.77,6.77,0,0,0,.72-3.3,6.36,6.36,0,0,0-.57-2.86,4.82,4.82,0,0,0-1.46-1.79,5.27,5.27,0,0,0-2-.91,9.4,9.4,0,0,0-2.07-.24c-.91,0-1.67,0-2.27.07s-1.1.09-1.52.15c-.05,1.62-.11,3.23-.16,4.83s-.08,3.18-.08,4.78V52A7.2,7.2,0,0,0,174.42,52.19Z"/><rect class="cls-1" x="8.87" y="14.36" width="14.57" height="17.19"/><rect class="cls-1" x="26.86" y="14.36" width="4.12" height="17.19"/><rect class="cls-1" x="43.43" y="14.36" width="4.12" height="17.19"/><rect class="cls-1" x="61.35" y="14.36" width="7.9" height="17.19"/><rect class="cls-1" x="86.95" y="14.36" width="3.01" height="17.19"/><rect class="cls-1" x="107.89" y="14.36" width="3.42" height="17.19"/><rect class="cls-2" x="119.78" y="14.36" width="4.23" height="17.19"/><rect class="cls-1" x="132.6" y="14.36" width="7.9" height="17.19"/><rect class="cls-1" x="150.51" y="14.36" width="15.54" height="17.19"/><rect class="cls-1" x="169.63" y="14.36" width="11.52" height="17.19"/><path class="cls-1" d="M187.58,32H8.37V13.86H187.58ZM9.37,31H186.58V14.86H9.37Z"/></svg>