<?xml version="1.0" standalone="no"?>
<!DOCTYPE svg PUBLIC "-//W3C//DTD SVG 20010904//EN" "http://www.w3.org/TR/2001/REC-SVG-20010904/DTD/svg10.dtd">
<svg
  version="1.0"
  xmlns="http://www.w3.org/2000/svg"
  width="186.4"
  height="174.4"
  viewBox="0 0 232.000000 218.000000"
  preserveAspectRatio="xMidYMid meet"
>
  <g
    transform="translate(0.000000,218.000000) scale(0.090000,-0.090000)"
    fill="#000000"
    stroke="none"
  >
    <path
      d="M1025 2166 c-27 -7 -66 -20 -87 -28 -97 -42 -246 -162 -347 -279 l-61 -70 44 -42 c56 -54 66 -88 75 -266 6 -117 5 -150 -7 -174 -20 -41 -13 -161 14 -211 11 -22 34 -47 51 -55 24 -12 35 -28 48 -70 12 -38 33 -71 68 -108 l51 -54 -24 -45 c-31 -59 -100 -119 -158 -138 -26 -9 -99 -25 -164 -36 -185 -31 -313 -93 -411 -199 -72 -77 -107 -159 -114 -270 -4 -66 -2 -95 7 -106 11 -13 142 -15 1150 -15 1006 0 1139 2 1150 15 17 20 8 163 -14 225 -24 66 -108 172 -179 226 -99 74 -186 113 -330 145 -184 42 -273 85 -323 158 l-23 34 50 56 c32 36 55 74 66 109 12 36 24 57 38 62 30 11 42 28 71 106 39 103 25 175 -38 196 -8 3 -2 21 19 54 91 143 82 372 -21 507 -41 54 -117 105 -169 114 -31 5 -54 19 -96 60 -98 95 -218 130 -336 99z m427 -514 c64 -61 82 -118 83 -259 0 -68 1 -123 2 -123 1 0 14 5 29 10 20 8 32 7 50 -5 30 -19 30 -34 0 -121 -23 -68 -23 -69 -60 -69 -33 0 -36 -2 -36 -29 0 -69 -22 -109 -109 -197 -104 -103 -156 -131 -246 -131 -80 0 -145 29 -238 107 -81 68 -124 131 -133 196 -6 44 -9 48 -37 51 -46 5 -69 43 -75 126 -4 66 -3 71 20 86 19 12 31 14 58 6 19 -6 36 -10 37 -10 2 0 3 27 3 60 0 75 17 116 65 163 55 53 129 85 239 101 95 14 183 47 232 85 24 19 27 19 52 4 15 -9 44 -32 64 -51z m-484 -917 c43 -30 150 -65 196 -65 49 0 125 26 180 61 l50 31 20 -27 c11 -15 40 -40 64 -56 l44 -28 -54 -30 c-81 -47 -142 -63 -260 -68 -77 -4 -128 -1 -181 11 -67 15 -197 68 -197 81 0 3 18 21 40 41 21 19 42 44 45 55 8 24 9 24 53 -6z"
    />
  </g>
</svg>
