<svg version="1.1" xmlns="http://www.w3.org/2000/svg" width="292.6" height="66.4" viewBox="0 0 1463 332">
  <g transform="scale(1.2)">

<?xml version="1.0" encoding="UTF-8"?>
<svg version="1.1" xmlns="http://www.w3.org/2000/svg" width="1463" height="332">
<path d="M0 0 C0.73685028 0.00304138 1.47370056 0.00608276 2.23287964 0.00921631 C36.79138039 0.21911691 66.86100224 12.28269223 93.3125 34.4375 C94.02277344 35.02402344 94.73304688 35.61054687 95.46484375 36.21484375 C99.42959066 39.57080034 102.8436819 43.11366701 106.203125 47.06640625 C108.94793789 50.15177925 111.83363952 53.07737137 114.75 56 C115.27553467 56.52996582 115.80106934 57.05993164 116.3425293 57.60595703 C119.07198639 60.32578124 121.85592053 62.92345691 124.79296875 65.41796875 C130.44891723 70.35022295 135.70619449 75.68695392 141.00390625 80.99609375 C142.11899011 82.11050218 143.23422222 83.22476229 144.34959412 84.33888245 C146.67503762 86.66286021 148.99868511 88.98861464 151.32104492 91.31567383 C154.27837903 94.27870451 157.24018128 97.2372217 160.20335484 100.19441128 C162.50360598 102.49102632 164.80144231 104.79004566 167.09858513 107.08976936 C168.18895297 108.18079806 169.2800468 109.27110177 170.37191963 110.36062431 C175.71244437 115.6921704 180.99791598 121.0313292 185.88586426 126.7872467 C188.20620691 129.47129071 190.7199179 131.95291038 193.25 134.4375 C193.74306641 134.92605469 194.23613281 135.41460937 194.74414062 135.91796875 C195.93123229 137.09353525 197.12150498 138.26588826 198.3125 139.4375 C195.83313117 145.26594198 190.82936013 149.33042125 186.4375 153.75 C185.52613281 154.69423828 184.61476563 155.63847656 183.67578125 156.61132812 C182.79535156 157.49884766 181.91492188 158.38636719 181.0078125 159.30078125 C179.8014917 160.52728394 179.8014917 160.52728394 178.57080078 161.77856445 C176.3125 163.4375 176.3125 163.4375 174.39360046 163.2411499 C171.9141296 162.28366296 170.62834425 161.12132048 168.7565918 159.23803711 C167.73984627 158.22579323 167.73984627 158.22579323 166.70256042 157.19309998 C165.6180938 156.09011314 165.6180938 156.09011314 164.51171875 154.96484375 C163.75711868 154.20837051 163.00251862 153.45189728 162.22505188 152.67250061 C160.62706996 151.06779291 159.03269167 149.45948987 157.44165039 147.84790039 C155.02664533 145.40198635 152.60136924 142.96666928 150.17382812 140.53320312 C148.61917198 138.9693658 147.06511651 137.40493106 145.51171875 135.83984375 C144.79481369 135.11868881 144.07790863 134.39753387 143.33927917 133.65452576 C140.16072072 130.43153441 137.05988964 127.18747956 134.11865234 123.74584961 C128.78849352 117.5795081 122.95938431 111.87790259 117.21484375 106.1015625 C116.58781618 105.4704594 115.96078861 104.83935631 115.31476021 104.18912888 C111.99477536 100.84839529 108.67160073 97.51087139 105.34594727 94.17578125 C101.94774375 90.76654 98.56138736 87.34578078 95.17758846 83.92225075 C92.54088166 81.25915674 89.8950954 78.6052181 87.24695015 75.95350266 C85.99629496 74.69803809 84.74895994 73.43925539 83.50532341 72.17683792 C60.73256193 49.08169419 33.26058232 34.37344853 0.25 34.0625 C-25.67221087 34.33474496 -50.55090431 43.89320803 -69.6875 61.4375 C-71.07388672 62.70207031 -71.07388672 62.70207031 -72.48828125 63.9921875 C-87.86975114 78.6715986 -97.37279308 97.03935361 -102.6875 117.4375 C-102.93371094 118.37078125 -103.17992187 119.3040625 -103.43359375 120.265625 C-109.07960115 146.89920472 -102.67472117 174.51632519 -88.6875 197.4375 C-85.83569052 201.56341634 -82.81794755 205.52010075 -79.6875 209.4375 C-78.93533203 210.42169922 -78.93533203 210.42169922 -78.16796875 211.42578125 C-62.25289189 231.37695829 -35.17703285 243.10995423 -10.43798828 245.921875 C17.20579824 248.71241496 44.72677575 240.89552842 66.70507812 223.79443359 C70.3190152 220.74366472 73.60910622 217.32955768 76.82495117 213.86645508 C80.62624755 209.82991328 84.20315121 206.92096582 89.875 206.0390625 C95.08049886 206.08911537 98.89261041 206.38567147 103.3125 209.4375 C107.21655616 213.55844817 109.10164218 217.16023551 109.625 222.8125 C108.9126278 231.0760175 104.7870995 235.62024052 99.0625 241.1875 C98.35085693 241.88560791 97.63921387 242.58371582 96.90600586 243.30297852 C70.76753542 268.44668915 36.81167969 280.79587945 0.8125 281.6875 C-39.8964843 280.67922794 -74.72260997 264.72745907 -103.18359375 235.91015625 C-109.08322823 229.60153498 -114.03102555 222.6911777 -118.6875 215.4375 C-119.368125 214.38046875 -120.04875 213.3234375 -120.75 212.234375 C-130.03426657 196.92984182 -135.5608762 179.99605402 -138.6875 162.4375 C-138.87957031 161.38820312 -139.07164062 160.33890625 -139.26953125 159.2578125 C-141.10778788 142.45580328 -140.44710032 124.92424072 -136.6875 108.4375 C-136.53716309 107.75284668 -136.38682617 107.06819336 -136.23193359 106.36279297 C-128.32758463 71.83154056 -105.16217057 40.63428166 -75.453125 21.68359375 C-52.40959332 7.4885281 -27.06334664 -0.23903273 0 0 Z " fill="#888888" transform="translate(139.6875,26.5625)"/>
<path d="M0 0 C0.74944885 0.00087616 1.49889771 0.00175232 2.27105713 0.00265503 C14.40114078 0.0493328 25.81604674 0.8785427 37.5 4.375 C38.73097412 4.73706543 38.73097412 4.73706543 39.98681641 5.10644531 C75.46962786 15.8506217 105.88106122 39.60675321 123.6953125 72.328125 C141.15752254 105.58150064 146.35530923 144.61789012 135.125 180.875 C122.52154789 219.12774785 97.69416388 248.52627268 62.04418945 267.25073242 C44.77339314 275.9377346 24.79327972 280.77453257 5.5 281.375 C4.64019531 281.41496094 3.78039062 281.45492188 2.89453125 281.49609375 C-18.75170066 282.05280471 -40.18226229 276.9621017 -59.5 267.375 C-60.14308105 267.06159668 -60.78616211 266.74819336 -61.44873047 266.42529297 C-74.65265306 259.93388689 -85.80091873 251.48068685 -96.5 241.375 C-97.63501953 240.31925781 -97.63501953 240.31925781 -98.79296875 239.2421875 C-104.10551855 234.15220354 -107.53757371 230.08379114 -108 222.5 C-107.82820478 217.07617948 -106.02714669 213.43952361 -102.5 209.375 C-98.57069807 205.99143445 -93.61150551 205.01820295 -88.5 205.375 C-81.59364022 207.25409078 -78.11405287 210.2777899 -73.375 215.5 C-54.33255888 235.42014883 -28.18676791 244.61942427 -1.07421875 246.62890625 C24.15355638 247.14097205 49.27790336 238.70806128 68.5 222.375 C69.345625 221.69050781 70.19125 221.00601563 71.0625 220.30078125 C90.27317494 204.06175759 104.33363479 178.58554412 106.5 153.375 C108.40422177 122.08228894 101.16064205 96.12509904 81.5 71.375 C80.68789063 70.31152344 80.68789063 70.31152344 79.859375 69.2265625 C63.54720539 49.04231223 36.73425287 37.56416399 11.57348633 34.57348633 C-16.18138613 31.91662641 -44.10210566 40.20716444 -66.09765625 57.359375 C-74.38828431 64.4678644 -81.89536798 72.55035267 -89.5 80.375 C-93.26603869 78.81217018 -95.63639151 76.4686525 -98.484375 73.5859375 C-98.94483215 73.12265045 -99.40528931 72.6593634 -99.87969971 72.18203735 C-101.34125078 70.70934102 -102.79567168 69.22982597 -104.25 67.75 C-105.24302611 66.74693678 -106.23651089 65.74432743 -107.23046875 64.7421875 C-109.65897941 62.29169165 -112.08114675 59.8350333 -114.5 57.375 C-85.02441243 22.24341044 -46.60897576 -0.13340419 0 0 Z " fill="#888888" transform="translate(407.5,26.625)"/>
<path d="M0 0 C1.22521792 1.00050546 2.43298567 2.02265771 3.625 3.0625 C4.37523437 3.69414063 5.12546875 4.32578125 5.8984375 4.9765625 C10.48807579 8.95810991 14.68989997 13.16014119 18.75878906 17.6706543 C27.12115218 26.82625066 35.95509878 35.51695719 44.734375 44.26953125 C46.55590431 46.08919132 48.37720988 47.90907538 50.19830322 49.72917175 C54.46721473 53.99468274 58.73834052 58.25796426 63.01060128 62.52012032 C67.88342147 67.38167109 72.75332188 72.24614235 77.62300825 77.11083186 C87.62048156 87.09791885 97.62152178 97.08142795 107.625 107.0625 C106.66894929 108.18209316 105.712301 109.30117605 104.75540161 110.42004395 C104.22273241 111.04328804 103.69006321 111.66653214 103.14125252 112.30866241 C100.06823977 115.86319254 96.78756621 119.20784061 93.5 122.5625 C92.44619141 123.67238281 92.44619141 123.67238281 91.37109375 124.8046875 C90.68917969 125.49820313 90.00726563 126.19171875 89.3046875 126.90625 C88.69351074 127.53724609 88.08233398 128.16824219 87.45263672 128.81835938 C85.625 130.0625 85.625 130.0625 83.75022888 129.85743713 C81.11917217 128.87329622 79.77334617 127.5784795 77.79370117 125.58764648 C77.05580856 124.85275497 76.31791595 124.11786346 75.55766296 123.36070251 C74.76906387 122.55975662 73.98046478 121.75881073 73.16796875 120.93359375 C72.34678055 120.11053238 71.52559235 119.28747101 70.67951965 118.43946838 C68.940304 116.69352554 67.20469231 114.94398635 65.47241211 113.19116211 C62.84013338 110.52795803 60.1975543 107.87535331 57.55273438 105.22460938 C55.86135921 103.52405388 54.17058489 101.82290055 52.48046875 100.12109375 C51.69794235 99.33431747 50.91541595 98.5475412 50.10917664 97.73692322 C46.74904708 94.33359753 43.45523538 90.91736067 40.34423828 87.28393555 C35.27132778 81.40633307 29.73270349 75.9642204 24.26171875 70.4609375 C23.67382883 69.86897205 23.08593891 69.27700661 22.48023415 68.66710281 C19.37233208 65.53847581 16.26126007 62.41303992 13.14770508 59.29003906 C9.95539024 56.08664191 6.77493767 52.87172857 3.59695721 49.65411949 C1.12849098 47.15938034 -1.34894274 44.67369033 -3.82878685 42.19026566 C-5.00458696 41.00963334 -6.17704372 39.82566048 -7.34588051 38.638134 C-18.76093429 27.05185912 -29.48685756 18.87090114 -46.1875 18.625 C-59.58965589 18.72524153 -69.65833638 23.02104445 -79.5625 32.05859375 C-89.04802884 41.84952787 -92.67597072 53.41085063 -92.68969727 66.76220703 C-92.45972432 78.77795348 -87.62741728 88.26991708 -79.56640625 97.02734375 C-70.94628652 105.21735355 -59.93300906 109.89929601 -48.09765625 110.125 C-35.22927447 109.6699854 -24.95305155 105.59238742 -15.375 97.0625 C-14.62992187 96.4128125 -13.88484375 95.763125 -13.1171875 95.09375 C-11.7376094 93.88723725 -10.36548158 92.67210563 -9.00390625 91.4453125 C-5.21285989 88.22701415 -1.21672134 88.67283121 3.5703125 88.71875 C8.03954891 89.22168197 10.63281253 90.76409451 13.625 94.0625 C17.20174003 99.02378456 17.43710418 104.15113703 16.625 110.0625 C12.33593968 120.69191035 2.26789776 127.58950397 -7.375 133.0625 C-8.18839844 133.52527344 -9.00179687 133.98804688 -9.83984375 134.46484375 C-28.39660728 144.35977924 -51.4735057 146.40452119 -71.6328125 140.453125 C-82.73097886 136.32896297 -92.58970742 131.10112214 -101.375 123.0625 C-102.39787109 122.17691406 -102.39787109 122.17691406 -103.44140625 121.2734375 C-116.46636142 109.29353745 -125.21141459 90.84870658 -126.59448242 73.2734375 C-127.60533706 48.31783123 -122.02541532 28.14894894 -105.375 9.0625 C-78.06350803 -20.09375502 -31.93850201 -22.97780004 0 0 Z " fill="#888888" transform="translate(190.375,102.9375)"/>
<path d="M0 0 C1.51803756 1.31276036 3.01935951 2.64520056 4.5 4 C5.18191406 4.59039062 5.86382812 5.18078125 6.56640625 5.7890625 C21.21073831 19.25840902 28.61606035 38.93728616 29.62890625 58.48828125 C30.12132258 80.64701603 23.17076165 101.38718261 7.89746094 117.69873047 C-6.8524713 132.78275516 -26.17976904 141.83937711 -47.39770508 142.24145508 C-60.95455034 142.29655781 -73.21995779 140.0404532 -85.5 134 C-86.47453125 133.53078125 -87.4490625 133.0615625 -88.453125 132.578125 C-94.60131298 129.32698895 -99.60981109 125.38816129 -104.5625 120.5625 C-105.38512329 119.77456055 -105.38512329 119.77456055 -106.22436523 118.97070312 C-110.59888204 114.50928445 -113.18223961 109.75535011 -113.71484375 103.4609375 C-113.04224267 98.4022195 -112.03145777 94.89365857 -108.5 91 C-103.69823861 87.64920564 -99.4028882 86.24872332 -93.5 87 C-88.39708578 88.41747617 -85.84194454 90.49749111 -82.1875 94.3125 C-73.71641625 103.14252798 -63.86356503 107.93208437 -51.60302734 108.35180664 C-38.36234896 108.49783223 -27.34789901 104.74181928 -17.171875 96 C-7.05106269 85.49289715 -4.05513196 73.10843724 -4.2890625 59.01171875 C-4.64089939 49.70541587 -8.39969417 42.62994813 -13.5 35 C-14.0775 34.113125 -14.655 33.22625 -15.25 32.3125 C-24.35741478 22.95210148 -36.03758035 17.96993804 -49 17.6875 C-64.53792873 17.85003064 -74.77992528 24.11836776 -85.34423828 34.8972168 C-86.68593931 36.2865016 -88.01287398 37.69021769 -89.32373047 39.10864258 C-89.93619629 39.75341553 -90.54866211 40.39818848 -91.1796875 41.0625 C-91.72351074 41.65160156 -92.26733398 42.24070313 -92.82763672 42.84765625 C-94.5 44 -94.5 44 -96.4074707 43.9543457 C-101.35733831 41.69684571 -105.02273907 36.98782473 -108.8125 33.1875 C-109.75673828 32.27162109 -110.70097656 31.35574219 -111.67382812 30.41210938 C-112.56134766 29.52716797 -113.44886719 28.64222656 -114.36328125 27.73046875 C-115.58978394 26.51460083 -115.58978394 26.51460083 -116.84106445 25.27416992 C-118.5 23 -118.5 23 -118.47998047 20.95507812 C-116.35726906 16.72023185 -112.64085576 13.61422622 -109.3125 10.3125 C-108.49894043 9.50466064 -107.68538086 8.69682129 -106.84716797 7.86450195 C-77.83417019 -20.30420224 -32.61785422 -25.29751136 0 0 Z " fill="#888888" transform="translate(453.5,104)"/>
<path d="M0 0 C3.56471709 2.95297539 6.01316636 6.30182244 8.5 10.1875 C8.90089844 9.67960937 9.30179688 9.17171875 9.71484375 8.6484375 C16.72656747 0.15805096 24.43782466 -5.26353729 35.5 -6.8125 C48.34635554 -7.79149194 62.48742879 -8.15544332 72.82421875 0.59765625 C82.90459158 10.16108689 85.00823133 22.17979111 85.60706329 35.58399582 C85.7728508 41.9813172 85.73015038 48.37859311 85.6953125 54.77734375 C85.69157324 56.81856649 85.68873059 58.85979105 85.68673706 60.90101624 C85.67917243 66.2224541 85.65958722 71.54377936 85.6373291 76.86517334 C85.61671448 82.31569903 85.60770225 87.76624327 85.59765625 93.21679688 C85.57633318 103.87374686 85.542286 114.53061399 85.5 125.1875 C81.21 125.1875 76.92 125.1875 72.5 125.1875 C72.49413376 123.96942657 72.48826752 122.75135315 72.48222351 121.49636841 C72.42489613 109.99132964 72.35208217 98.48647807 72.26428509 86.98163033 C72.21964554 81.06752014 72.18037517 75.15347783 72.15356445 69.23925781 C72.12746765 63.52679395 72.08701991 57.81459216 72.03681374 52.10229111 C72.02018815 49.92795966 72.00864715 47.75358293 72.00238609 45.57919693 C71.99269816 42.52273634 71.9645826 39.46693978 71.93237305 36.41064453 C71.93380814 35.52087418 71.93524323 34.63110382 71.9367218 33.71437073 C71.81373563 25.40865552 70.22097046 16.51067787 64.5 10.1875 C54.87201181 4.37331684 43.71326975 4.07085626 32.95703125 6.43359375 C26.312787 8.47228873 21.37077743 12.43663068 17.5 18.1875 C14.71210528 24.49591871 14.05653847 30.37481646 14.06762695 37.20532227 C14.0574353 38.16248642 14.04724365 39.11965057 14.03674316 40.1058197 C14.00678636 43.2385761 13.99737373 46.37102587 13.98828125 49.50390625 C13.97142174 51.68823753 13.95326979 53.87255919 13.93388367 56.05686951 C13.88651591 61.7827351 13.856621 67.50856165 13.83044434 73.23455811 C13.80057202 79.08678902 13.75406464 84.93888559 13.70898438 90.79101562 C13.62310171 102.25643995 13.55568962 113.72189203 13.5 125.1875 C9.21 125.1875 4.92 125.1875 0.5 125.1875 C0.49413376 123.99670334 0.48826752 122.80590668 0.48222351 121.57902527 C0.42486373 110.32447013 0.35203317 99.07010576 0.26428509 87.81574535 C0.21967027 82.0305796 0.18039461 76.24548282 0.15356445 70.46020508 C0.12744278 64.87092728 0.08697789 59.28191622 0.03681374 53.69280434 C0.02020484 51.56674851 0.00865352 49.44064661 0.00238609 47.31453514 C0.61707238 27.97729236 0.61707238 27.97729236 -7.5 11.1875 C-17.92184137 4.50075912 -28.93420865 4.07693043 -40.81640625 6.43359375 C-46.35661761 7.99001412 -50.18353642 10.62852997 -53.875 15 C-57.39637407 21.90731067 -57.8005408 28.58215337 -57.81884766 36.18359375 C-57.82889328 37.15036545 -57.8389389 38.11713715 -57.84928894 39.11320496 C-57.87998646 42.28379769 -57.89711866 45.4543065 -57.9140625 48.625 C-57.93278495 50.83317785 -57.95235916 53.04134863 -57.9727478 55.24951172 C-58.02396113 61.04278382 -58.06364463 66.83607908 -58.10089111 72.62945557 C-58.14099854 78.54860108 -58.1920601 84.46765111 -58.2421875 90.38671875 C-58.33881891 101.98691199 -58.42326452 113.58715928 -58.5 125.1875 C-62.46 125.1875 -66.42 125.1875 -70.5 125.1875 C-70.5 82.2875 -70.5 39.3875 -70.5 -4.8125 C-66.54 -4.8125 -62.58 -4.8125 -58.5 -4.8125 C-58.5 -1.8425 -58.5 1.1275 -58.5 4.1875 C-57.84 4.1875 -57.18 4.1875 -56.5 4.1875 C-56.17 3.1975 -55.84 2.2075 -55.5 1.1875 C-41.55520647 -11.0421585 -14.65791018 -10.14360018 0 0 Z " fill="#888888" transform="translate(649.5,46.8125)"/>
<path d="M0 0 C5.61 0 11.22 0 17 0 C18.31904063 2.63808125 18.42907062 4.98110706 18.75610352 7.91845703 C18.89617325 9.15959259 19.03624298 10.40072815 19.18055725 11.67947388 C19.33008832 13.03891113 19.47953601 14.39835756 19.62890625 15.7578125 C19.78408568 17.14504666 19.93960252 18.53224311 20.09544373 19.91940308 C20.50487163 23.5719564 20.90970568 27.22500488 21.31359863 30.87817383 C21.72648509 34.60528918 22.14369552 38.33192014 22.56054688 42.05859375 C23.37794063 49.37192754 24.1904839 56.68578959 25 64 C26.53984319 56.77569595 27.6987193 49.54449248 28.69140625 42.2265625 C28.841577 41.14039642 28.99174774 40.05423035 29.14646912 38.93515015 C29.62133534 35.49881959 30.09228697 32.06197013 30.5625 28.625 C31.03658586 25.1666507 31.51157733 21.70843666 31.98924255 18.25057983 C32.2852379 16.10734296 32.57915269 13.96381746 32.8707428 11.81997681 C33.00435715 10.85151825 33.1379715 9.88305969 33.27563477 8.88525391 C33.44978661 7.6114537 33.44978661 7.6114537 33.62745667 6.31192017 C33.96999585 4.18619902 34.47778619 2.08885524 35 0 C40.28 0 45.56 0 51 0 C52.60711168 7.56758717 53.75664755 15.11569876 54.7265625 22.7890625 C54.86215576 23.84053467 54.99774902 24.89200684 55.13745117 25.9753418 C55.63711969 29.85807165 56.13071335 33.74158134 56.625 37.625 C57.73875 46.32875 58.8525 55.0325 60 64 C62.64 42.88 65.28 21.76 68 0 C73.61 0 79.22 0 85 0 C81.47508691 22.75431704 77.79713997 45.4825166 74.0276413 68.19749451 C73.68676561 70.25443153 73.34714669 72.3115725 73.00787354 74.36877441 C72.36728528 78.25172013 71.72110163 82.1337227 71.07421875 86.015625 C70.7823745 87.78812622 70.7823745 87.78812622 70.4846344 89.59643555 C70.30367722 90.67610596 70.12272003 91.75577637 69.9362793 92.86816406 C69.77894821 93.81500061 69.62161713 94.76183716 69.45951843 95.73736572 C69 98 69 98 68 100 C65.18743719 100.02684312 62.37512759 100.04676188 59.5625 100.0625 C58.35883789 100.07506836 58.35883789 100.07506836 57.13085938 100.08789062 C55.08704779 100.0965143 53.04316098 100.0522815 51 100 C49.36367224 98.36367224 49.55042022 96.35578844 49.25976562 94.10058594 C49.12292358 93.05570007 48.98608154 92.01081421 48.84509277 90.93426514 C48.70027466 89.79580139 48.55545654 88.65733765 48.40625 87.484375 C48.25466431 86.32125793 48.10307861 85.15814087 47.94689941 83.95977783 C47.46058813 80.22369295 46.97999968 76.48690059 46.5 72.75 C46.01913521 69.02750123 45.53705619 65.30516706 45.05310059 61.58306885 C44.7516999 59.26281219 44.4522366 56.94230288 44.15490723 54.621521 C44.01806519 53.56402649 43.88122314 52.50653198 43.74023438 51.41699219 C43.62111694 50.48957214 43.50199951 49.5621521 43.37927246 48.60662842 C43.00695784 46.0478192 42.53114019 43.53016781 42 41 C41.80422363 42.40185547 41.80422363 42.40185547 41.60449219 43.83203125 C38.97821929 62.59936556 36.24805965 81.32819343 33 100 C27.06 100 21.12 100 15 100 C14.59370031 97.4267686 14.18740258 94.8535369 13.78111267 92.28030396 C13.41587899 89.96720902 13.0506131 87.65411917 12.68531799 85.34103394 C11.66975868 78.91009011 10.65478009 72.4790555 9.64086914 66.04785156 C7.79450572 54.33988465 5.94519546 42.63249935 4.06640625 30.9296875 C3.65204984 28.33990127 3.2379819 25.75006911 2.82403564 23.16021729 C2.56774476 21.56213251 2.31006949 19.96426909 2.05096436 18.36663818 C1.69593286 16.17724828 1.34551541 13.98716606 0.99609375 11.796875 C0.80200928 10.59385742 0.6079248 9.39083984 0.40795898 8.15136719 C0 5 0 5 0 0 Z " fill="#888888" transform="translate(764,195)"/>
<path d="M0 0 C1.51968384 -0.01522705 1.51968384 -0.01522705 3.07006836 -0.03076172 C14.16649217 0.097458 22.85352857 2.54310138 30.875 10.4375 C37.90034495 18.72425352 39.34093961 29.44040293 39.21557617 39.95776367 C39.21623329 41.43783905 39.21623329 41.43783905 39.21690369 42.94781494 C39.21483528 46.1672434 39.19159704 49.38613273 39.16796875 52.60546875 C39.16236586 54.85418921 39.15809904 57.10291335 39.15510559 59.35163879 C39.14371143 65.23872178 39.11429136 71.12557884 39.08099365 77.01257324 C39.05017522 83.03243963 39.03657519 89.0523429 39.02148438 95.07226562 C38.98941615 106.86077574 38.93828607 118.649119 38.875 130.4375 C35.575 130.4375 32.275 130.4375 28.875 130.4375 C28.545 126.1475 28.215 121.8575 27.875 117.4375 C27.235625 118.13875 26.59625 118.84 25.9375 119.5625 C17.14868579 128.25256349 7.25903945 131.79388159 -4.99804688 131.89648438 C-6.51495117 131.88584961 -6.51495117 131.88584961 -8.0625 131.875 C-9.06990234 131.89498047 -10.07730469 131.91496094 -11.11523438 131.93554688 C-20.83466456 131.92929644 -29.78005263 129.41503904 -37.40625 123.1953125 C-44.34752749 116.0962787 -46.16834324 107.02880494 -46.375 97.4375 C-46.16064619 87.50157027 -44.18925623 79.96419388 -37.37109375 72.5234375 C-25.03593251 60.8112642 -6.13241006 60.13177519 10.03540039 60.34130859 C13.42911135 60.45627052 16.80497458 60.69593179 20.19140625 60.9453125 C21.4451001 61.03699707 22.69879395 61.12868164 23.99047852 61.22314453 C24.94237061 61.29388184 25.8942627 61.36461914 26.875 61.4375 C26.80532041 57.49001657 26.71698718 53.54340006 26.61254883 49.59667969 C26.56357841 47.60633087 26.52870054 45.61565119 26.49414062 43.625 C26.21544205 33.5918513 25.45678092 24.82624583 18.86328125 16.91015625 C12.879547 12.47819591 6.55011439 11.95884666 -0.625 12.0625 C-1.82962891 12.04509766 -1.82962891 12.04509766 -3.05859375 12.02734375 C-8.73739941 12.05495545 -12.90911024 13.20373852 -18.125 15.4375 C-19.115 15.7675 -20.105 16.0975 -21.125 16.4375 C-22.24435073 18.08380193 -22.24435073 18.08380193 -23.125 20.4375 C-23.62 21.571875 -24.115 22.70625 -24.625 23.875 C-26.73645954 29.52342222 -27.3539479 35.48679206 -28.125 41.4375 C-31.755 41.4375 -35.385 41.4375 -39.125 41.4375 C-39.61137871 29.11590614 -37.9228959 18.27421645 -29.66796875 8.7578125 C-21.33839095 0.61063421 -11.03040537 0.07908307 0 0 Z M-28.125 80.4375 C-33.42245134 86.5465386 -33.5516378 92.91816354 -33.40625 100.6875 C-32.94598776 106.82432981 -31.10393004 110.40359969 -26.875 114.75 C-17.20748699 120.68233753 -5.76521359 121.70806815 5.2421875 119.28515625 C13.48568243 116.63109334 19.59883681 111.97034376 23.875 104.4375 C27.5077963 96.82865106 28.02374502 89.3818275 27.9375 81.0625 C27.93298828 80.23105469 27.92847656 79.39960937 27.92382812 78.54296875 C27.91213164 76.50778103 27.89419935 74.47263077 27.875 72.4375 C10.20584462 69.76883341 -13.86156577 67.68358688 -28.125 80.4375 Z " fill="#888888" transform="translate(1024.125,41.5625)"/>
<path d="M0 0 C3.96 0 7.92 0 12 0 C12.33 16.83 12.66 33.66 13 51 C15.31 49.02 17.62 47.04 20 45 C25.33196031 42.10392037 30.94538484 40.43247251 37 40 C37.71285156 39.9484375 38.42570312 39.896875 39.16015625 39.84375 C50.91494577 39.38502651 62.02882738 41.81937273 70.89453125 49.6796875 C79.88064108 58.79822421 81.16260851 71.46132435 81.11352539 83.67724609 C81.11367142 84.63397217 81.11381744 85.59069824 81.1139679 86.57641602 C81.11327357 89.72544658 81.10550369 92.87441732 81.09765625 96.0234375 C81.09579036 98.21204598 81.09436727 100.40065487 81.09336853 102.58926392 C81.08955679 108.3398759 81.07973798 114.09046248 81.06866455 119.84106445 C81.05842154 125.71304989 81.05386472 131.58503945 81.04882812 137.45703125 C81.0381145 148.9713653 81.02105422 160.48568054 81 172 C77.04 172 73.08 172 69 172 C68.99413376 170.8364801 68.98826752 169.67296021 68.98222351 168.47418213 C68.92482982 157.47011053 68.85198199 146.46623339 68.76428509 135.46236038 C68.7196961 129.80613907 68.68041496 124.14998788 68.65356445 118.49365234 C68.62741674 113.02756053 68.58693405 107.56174026 68.53681374 102.09581757 C68.52022227 100.01803738 68.50866021 97.94021031 68.50238609 95.86237335 C69.05308275 76.21893698 69.05308275 76.21893698 61 59 C52.64701523 52.16573974 42.79665206 52.24114219 32.51171875 53.2421875 C26.65338561 54.23375339 22.07385566 56.64042144 18 61 C14.80981799 66.32004341 12.89754131 71.98825438 12.84178162 78.20147705 C12.82709839 79.44660568 12.82709839 79.44660568 12.81211853 80.71688843 C12.80636307 81.6188797 12.8006076 82.52087097 12.79467773 83.45019531 C12.77982834 84.88484634 12.77982834 84.88484634 12.76467896 86.34848022 C12.7331035 89.50833668 12.70832208 92.66820816 12.68359375 95.828125 C12.66302082 98.01959625 12.64202425 100.21106356 12.62062073 102.40252686 C12.56543515 108.1695639 12.51601033 113.93663655 12.46777344 119.70373535 C12.4175328 125.58898079 12.3618601 131.47417454 12.30664062 137.359375 C12.19910201 148.90620584 12.09764745 160.45308157 12 172 C8.04 172 4.08 172 0 172 C0 115.24 0 58.48 0 0 Z " fill="#888888" transform="translate(1255,0)"/>
<path d="M0 0 C5.94 0 11.88 0 18 0 C23.35612507 14.03953995 28.51081374 28.13910291 33.5 42.3125 C33.76679565 43.07036804 34.03359131 43.82823608 34.30847168 44.60906982 C38.65559162 56.96677487 38.65559162 56.96677487 40 61 C40 40.87 40 20.74 40 0 C44.95 0 49.9 0 55 0 C55 33 55 66 55 100 C49.39 100 43.78 100 38 100 C33.67045316 89.99263352 29.97121869 79.80672425 26.32397461 69.53491211 C25.30798384 66.67478651 24.28618305 63.81678454 23.26367188 60.95898438 C22.60903224 59.12251798 21.95472361 57.28593355 21.30078125 55.44921875 C20.9986824 54.60429367 20.69658356 53.75936859 20.3853302 52.88883972 C20.10130844 52.08722916 19.81728668 51.28561859 19.5246582 50.4597168 C19.15423149 49.41813667 19.15423149 49.41813667 18.77632141 48.35551453 C17.75810941 45.26605554 16.89364686 42.12776403 16 39 C15.67 59.13 15.34 79.26 15 100 C10.05 100 5.1 100 0 100 C0 67 0 34 0 0 Z M14 32 C15 34 15 34 15 34 Z " fill="#888888" transform="translate(635,195)"/>
<path d="M0 0 C9.18177737 8.57596938 11.95335559 21.21135042 12.41210938 33.38476562 C12.43809032 36.04669176 12.44379524 38.70196543 12.42578125 41.36328125 C12.42848867 42.80806741 12.43238133 44.25285178 12.43737793 45.69763184 C12.44321456 48.69947971 12.43490242 51.7008457 12.41601562 54.70263672 C12.39322879 58.50468078 12.40638387 62.3055945 12.43030548 66.10759735 C12.44492399 69.08323316 12.44008521 72.05861139 12.42979431 75.03425598 C12.42717101 76.4341496 12.43023708 77.83406849 12.43971252 79.2339325 C12.51285341 93.0670307 10.79042466 107.28556221 0.89453125 117.76953125 C-7.52954397 125.14059707 -18.91285673 126.27454604 -29.66796875 126.14453125 C-30.63154297 126.15613281 -31.59511719 126.16773438 -32.58789062 126.1796875 C-42.99293593 126.13759022 -52.14295723 123.67750669 -60.10546875 116.76953125 C-73.53487126 102.77184667 -70.69521574 79.67806021 -70.55499268 61.81896973 C-70.53896544 58.92056199 -70.54894665 56.02248307 -70.5591116 53.12406731 C-70.56614158 50.28745609 -70.55819814 47.451032 -70.54585457 44.61444473 C-70.53929483 42.64400544 -70.54343028 40.67353949 -70.54795837 38.70309448 C-70.41657944 25.97733127 -69.14235596 12.65461469 -60.35546875 2.80859375 C-46.12622818 -10.78951115 -15.67101309 -11.94951091 0 0 Z M-52.04296875 11.58203125 C-56.58647059 18.60380682 -58.2158477 24.87530516 -58.26660156 33.12939453 C-58.27620911 34.39486115 -58.28581665 35.66032776 -58.29571533 36.96414185 C-58.30056568 38.33937396 -58.30484392 39.71460819 -58.30859375 41.08984375 C-58.31142113 41.78864529 -58.3142485 42.48744682 -58.31716156 43.20742416 C-58.33212373 46.90944543 -58.34137048 50.61142807 -58.34570312 54.31347656 C-58.35116684 58.10924425 -58.37515849 61.90464944 -58.40367508 65.70030403 C-58.4224443 68.64312721 -58.4275147 71.5858658 -58.429039 74.52874374 C-58.43203669 75.92637985 -58.43996573 77.32401552 -58.45322418 78.72159195 C-58.54335375 88.95713642 -58.48208073 100.82548758 -51.10546875 108.76953125 C-40.99181554 115.15801787 -29.91323797 116.25329254 -18.23046875 114.01953125 C-11.99532496 112.40718846 -7.69305003 109.08904832 -4.10546875 103.76953125 C2.07604006 90.81854513 1.21765995 75.70353916 1.15527344 61.64257812 C1.14454505 58.77322265 1.1552379 55.90449299 1.16796875 53.03515625 C1.90024296 30.75929745 1.90024296 30.75929745 -6.10546875 10.76953125 C-17.11538485 1.35747573 -41.90642554 0.62281207 -52.04296875 11.58203125 Z " fill="#888888" transform="translate(831.10546875,48.23046875)"/>
<path d="M0 0 C9.71889369 6.65331543 14.42746258 15.88177559 16.625 27.2265625 C19.6562236 46.21381031 19.35976482 68.71399914 7.8125 85 C2.497808 91.21784227 -4.89510182 95.63409746 -13 97 C-17.27458855 97.25493335 -21.53181785 97.23410915 -25.8125 97.1875 C-26.95654297 97.18685547 -28.10058594 97.18621094 -29.27929688 97.18554688 C-37.71874066 97.14062967 -37.71874066 97.14062967 -40 96 C-40 63.66 -40 31.32 -40 -2 C-27.5652533 -5.10868667 -11.54370811 -6.87753436 0 0 Z M-24 14 C-24 35.45 -24 56.9 -24 79 C-14.51117879 79.51348939 -14.51117879 79.51348939 -8 75 C0.00966875 66.5326359 0.99284061 55.25245833 1.00390625 44.04296875 C0.52264017 34.34889494 -0.27554124 24.77577586 -7.17578125 17.40625 C-12.4960308 13.30498697 -17.67456035 12.73491207 -24 14 Z " fill="#888888" transform="translate(996,199)"/>
<path d="M0 0 C10.48078564 7.32759201 14.26355798 19.0241563 16.46264648 31.17724609 C19.52803006 50.87831085 17.76896879 72.24331765 6.98828125 89.3671875 C3.04149857 94.53602445 -2.2932259 98.33851549 -8.71484375 99.59765625 C-16.12643502 100.33881538 -22.44312929 99.85551744 -28.71484375 95.59765625 C-39.06109305 86.57976807 -43.43101121 73.99921139 -44.71484375 60.59765625 C-45.48772268 47.78802813 -45.63889497 34.92584957 -41.71484375 22.59765625 C-41.38613281 21.55609375 -41.05742188 20.51453125 -40.71875 19.44140625 C-37.44849637 10.47932711 -32.02340532 2.4233706 -23.33984375 -2.02734375 C-15.15121624 -5.00373184 -7.53555764 -4.28726655 0 0 Z M-22.4296875 20.46484375 C-30.05189914 33.11447158 -29.44104395 52.02760531 -26.46484375 66.03515625 C-25.21188152 70.60374023 -23.76423312 73.97650637 -20.71484375 77.59765625 C-20.09609375 78.52578125 -20.09609375 78.52578125 -19.46484375 79.47265625 C-16.98750399 81.06523181 -14.60797855 81.19116353 -11.7109375 81.07421875 C-8.85289115 80.39186717 -7.37387181 78.7187137 -5.73828125 76.34765625 C2.44128629 62.36122015 1.64229087 44.31220066 -1.7265625 28.96875 C-3.43193363 23.15161449 -5.64912646 18.97480111 -10.71484375 15.59765625 C-16.62520869 14.59400937 -18.98084263 15.92156544 -22.4296875 20.46484375 Z " fill="#888888" transform="translate(743.71484375,197.40234375)"/>
<path d="M0 0 C8.10840526 7.00747954 10.59866297 16.76321106 12 27 C12.23719269 30.42042311 12.25515896 33.81732833 12.22705078 37.24487305 C12.22734283 38.20232925 12.22763489 39.15978546 12.22793579 40.14625549 C12.22655759 43.26817322 12.21106841 46.38984343 12.1953125 49.51171875 C12.19157699 51.69318003 12.18873256 53.874643 12.18673706 56.05610657 C12.17914296 61.76558152 12.15953118 67.47495286 12.1373291 73.18438721 C12.11677922 79.02330118 12.10771588 84.86223208 12.09765625 90.70117188 C12.07628094 102.13415982 12.04219658 113.56707125 12 125 C8.04 125 4.08 125 0 125 C-0.00808685 123.84900818 -0.01617371 122.69801636 -0.02450562 121.512146 C-0.10223963 110.62584153 -0.1900461 99.73965787 -0.28752708 88.85351181 C-0.33731542 83.25783481 -0.38364609 77.66217511 -0.421875 72.06640625 C-0.4589495 66.65872214 -0.50536758 61.25118921 -0.55806351 55.84363556 C-0.57649035 53.7881767 -0.59164072 51.73268557 -0.60334396 49.67717743 C0.1270205 28.64250064 0.1270205 28.64250064 -8 10 C-16.15195464 4.05930431 -26.3385883 4.28902918 -36 5 C-43.25287351 6.68245744 -49.63437879 9.28932425 -53.765625 15.76953125 C-54.25546875 16.77371094 -54.7453125 17.77789062 -55.25 18.8125 C-55.75015625 19.80894531 -56.2503125 20.80539063 -56.765625 21.83203125 C-59.22083579 28.13322096 -59.15986297 34.66191813 -59.20532227 41.33178711 C-59.22017166 42.69394348 -59.22017166 42.69394348 -59.23532104 44.08361816 C-59.26673641 47.06483413 -59.291614 50.04606598 -59.31640625 53.02734375 C-59.33699304 55.10242613 -59.35798996 57.17750447 -59.37937927 59.25257874 C-59.43442179 64.69899214 -59.48390927 70.14544228 -59.53222656 75.59191895 C-59.58257213 81.15571336 -59.63818988 86.71945482 -59.69335938 92.28320312 C-59.80072282 103.18875678 -59.90221574 114.09435654 -60 125 C-63.96 125 -67.92 125 -72 125 C-72 82.43 -72 39.86 -72 -4 C-68.37 -4 -64.74 -4 -61 -4 C-60.34 -0.7 -59.68 2.6 -59 6 C-58.21689453 5.20335937 -58.21689453 5.20335937 -57.41796875 4.390625 C-42.70708308 -9.7277031 -17.05612526 -11.48242719 0 0 Z " fill="#888888" transform="translate(943,47)"/>
<path d="M0 0 C5.28 0 10.56 0 16 0 C16 12.87 16 25.74 16 39 C23.26 39 30.52 39 38 39 C38 26.13 38 13.26 38 0 C43.28 0 48.56 0 54 0 C54 33 54 66 54 100 C48.72 100 43.44 100 38 100 C38 86.47 38 72.94 38 59 C30.74 59 23.48 59 16 59 C16 72.53 16 86.06 16 100 C10.72 100 5.44 100 0 100 C0 67 0 34 0 0 Z " fill="#888888" transform="translate(1402,195)"/>
<path d="M0 0 C1.34771484 -0.02416992 1.34771484 -0.02416992 2.72265625 -0.04882812 C10.93624468 -0.05480599 17.84272774 1.70977473 23.95703125 7.48828125 C30.60662925 15.34995787 30.40664303 25.47527685 29.73193359 35.25537109 C28.89755997 42.65582596 25.84024311 47.41727715 20.5 52.3125 C20.5 55.68142141 20.92066118 56.13919732 22.83203125 58.734375 C26.23768574 63.99231178 27.12016 69.46655813 28.1875 75.5625 C28.38666016 76.61824219 28.58582031 77.67398438 28.79101562 78.76171875 C30.12865922 85.92797983 31.31733404 93.11929881 32.5 100.3125 C26.89 100.3125 21.28 100.3125 15.5 100.3125 C13.96354209 94.55078284 12.57156801 88.8471639 11.515625 82.98046875 C11.34708008 82.0474292 11.17853516 81.11438965 11.00488281 80.15307617 C10.67171731 78.27861743 10.34794185 76.40246227 10.03417969 74.5246582 C9.87852539 73.650271 9.72287109 72.77588379 9.5625 71.875 C9.42972656 71.09253906 9.29695313 70.31007813 9.16015625 69.50390625 C8.32225462 66.72246949 7.62425556 65.33376135 5.5 63.3125 C2.86 62.6525 0.22 61.9925 -2.5 61.3125 C-2.5 74.1825 -2.5 87.0525 -2.5 100.3125 C-7.78 100.3125 -13.06 100.3125 -18.5 100.3125 C-18.5 67.9725 -18.5 35.6325 -18.5 2.3125 C-11.72710167 0.61927542 -6.77336825 -0.02429472 0 0 Z M-2.5 18.3125 C-2.58758003 20.31214982 -2.60696576 22.3148611 -2.59765625 24.31640625 C-2.59443359 25.53134766 -2.59121094 26.74628906 -2.58789062 27.99804688 C-2.57951172 29.27744141 -2.57113281 30.55683594 -2.5625 31.875 C-2.55798828 33.15826172 -2.55347656 34.44152344 -2.54882812 35.76367188 C-2.53699545 38.94666022 -2.52051068 42.12955762 -2.5 45.3125 C-0.89614831 45.22175502 0.70658802 45.11115187 2.30859375 44.9921875 C3.20118896 44.93272949 4.09378418 44.87327148 5.01342773 44.81201172 C7.83269235 44.24566755 8.74376919 43.61569682 10.5625 41.4375 C13.83941143 36.15215899 14.20111192 31.40459408 13.5 25.3125 C11.50342873 21.45705202 10.10292362 19.71444908 6.5 17.3125 C1.63536122 16.61450503 1.63536122 16.61450503 -2.5 18.3125 Z " fill="#888888" transform="translate(1242.5,194.6875)"/>
<path d="M0 0 C0.76441406 -0.01611328 1.52882813 -0.03222656 2.31640625 -0.04882812 C7.88679105 -0.0535568 12.01209313 1.10544794 17.125 3.3125 C16.71455515 9.89041873 16.25891403 16.05301886 14.125 22.3125 C13.238125 21.9825 12.35125 21.6525 11.4375 21.3125 C4.65188474 19.40144917 -3.02647728 18.96319977 -9.4375 22 C-16.60254845 28.79761006 -19.7206996 36.50601479 -20.078125 46.3515625 C-20.22599005 55.05948672 -20.14680912 63.09756801 -16.875 71.3125 C-16.60816406 71.99828125 -16.34132813 72.6840625 -16.06640625 73.390625 C-14.04980462 77.65685777 -11.40552546 79.61486492 -7.36328125 81.68359375 C-3.84848585 82.68006245 -3.84848585 82.68006245 4.125 82.3125 C4.125 75.3825 4.125 68.4525 4.125 61.3125 C0.825 61.3125 -2.475 61.3125 -5.875 61.3125 C-5.875 55.3725 -5.875 49.4325 -5.875 43.3125 C2.375 43.3125 10.625 43.3125 19.125 43.3125 C19.125 61.1325 19.125 78.9525 19.125 97.3125 C4.93096559 102.0438448 4.93096559 102.0438448 -2.375 101.9375 C-3.18743164 101.928396 -3.99986328 101.91929199 -4.83691406 101.90991211 C-13.24582045 101.5902802 -19.78544487 99.1592615 -25.98046875 93.33203125 C-38.57936403 78.58407068 -39.13733649 58.69508225 -37.875 40.3125 C-36.32892038 28.25449092 -32.01823968 15.7062938 -22.875 7.3125 C-15.65975789 1.87576446 -8.94784417 -0.03734493 0 0 Z " fill="#888888" transform="translate(1193.875,194.6875)"/>
<path d="M0 0 C0.76441406 -0.01611328 1.52882813 -0.03222656 2.31640625 -0.04882812 C7.88679105 -0.0535568 12.01209313 1.10544794 17.125 3.3125 C16.71455515 9.89041873 16.25891403 16.05301886 14.125 22.3125 C13.238125 21.9825 12.35125 21.6525 11.4375 21.3125 C4.65188474 19.40144917 -3.02647728 18.96319977 -9.4375 22 C-16.60254845 28.79761006 -19.7206996 36.50601479 -20.078125 46.3515625 C-20.22599005 55.05948672 -20.14680912 63.09756801 -16.875 71.3125 C-16.60816406 71.99828125 -16.34132813 72.6840625 -16.06640625 73.390625 C-14.04980462 77.65685777 -11.40552546 79.61486492 -7.36328125 81.68359375 C-3.84848585 82.68006245 -3.84848585 82.68006245 4.125 82.3125 C4.125 75.3825 4.125 68.4525 4.125 61.3125 C0.825 61.3125 -2.475 61.3125 -5.875 61.3125 C-5.875 55.3725 -5.875 49.4325 -5.875 43.3125 C2.375 43.3125 10.625 43.3125 19.125 43.3125 C19.125 61.1325 19.125 78.9525 19.125 97.3125 C4.93096559 102.0438448 4.93096559 102.0438448 -2.375 101.9375 C-3.18743164 101.928396 -3.99986328 101.91929199 -4.83691406 101.90991211 C-13.24582045 101.5902802 -19.78544487 99.1592615 -25.98046875 93.33203125 C-38.57936403 78.58407068 -39.13733649 58.69508225 -37.875 40.3125 C-36.32892038 28.25449092 -32.01823968 15.7062938 -22.875 7.3125 C-15.65975789 1.87576446 -8.94784417 -0.03734493 0 0 Z " fill="#888888" transform="translate(1057.875,194.6875)"/>
<path d="M0 0 C5.28 0 10.56 0 16 0 C16.495 19.8 16.495 19.8 17 40 C18.134375 37.1125 19.26875 34.225 20.4375 31.25 C24.62885461 20.68103497 29.25301383 10.32909027 34 0 C40.27 0 46.54 0 53 0 C51.87881247 5.60593766 51.87881247 5.60593766 49.96777344 8.59570312 C49.3449221 9.5975766 49.3449221 9.5975766 48.70948792 10.61968994 C48.26395065 11.33300476 47.81841339 12.04631958 47.359375 12.78125 C35.77335537 30.72770134 35.77335537 30.72770134 33.83984375 51.046875 C35.95043431 57.22023953 38.92371771 62.88035982 42.140625 68.54345703 C45.27071272 74.36223091 47.41336761 80.49116415 49.6875 86.6875 C50.52296478 88.83792996 51.36003858 90.98773596 52.19921875 93.13671875 C54 97.75155853 54 97.75155853 54 100 C47.73 100 41.46 100 35 100 C30.38 87.13 25.76 74.26 21 61 C17.33757644 67.40924123 16.49927948 68.91985245 16.390625 75.68359375 C16.37408875 76.38396255 16.35755249 77.08433136 16.34051514 77.80592346 C16.29239612 80.01654132 16.27074722 82.22647338 16.25 84.4375 C16.22180973 85.94729947 16.19187806 87.45706748 16.16015625 88.96679688 C16.08340421 92.6448356 16.04255898 96.32077585 16 100 C10.72 100 5.44 100 0 100 C0 67 0 34 0 0 Z " fill="#888888" transform="translate(575,195)"/>
<path d="M0 0 C6.63509184 6.70582842 9.16753177 15.88168389 9.20703125 25.1640625 C9.12453125 26.5459375 9.04203125 27.9278125 8.95703125 29.3515625 C5.32703125 29.3515625 1.69703125 29.3515625 -2.04296875 29.3515625 C-2.22472656 28.47113281 -2.40648437 27.59070313 -2.59375 26.68359375 C-2.84511719 25.52214844 -3.09648438 24.36070313 -3.35546875 23.1640625 C-3.59910156 22.01550781 -3.84273437 20.86695312 -4.09375 19.68359375 C-5.0139604 16.45339018 -6.25801544 14.16648887 -8.04296875 11.3515625 C-8.04296875 10.6915625 -8.04296875 10.0315625 -8.04296875 9.3515625 C-15.41993864 5.35570381 -21.67714821 3.84449927 -29.98046875 3.9140625 C-30.82287109 3.89408203 -31.66527344 3.87410156 -32.53320312 3.85351562 C-40.08663688 3.85933043 -46.07411366 5.89903003 -51.91796875 10.7265625 C-59.31974821 19.86993713 -59.3522715 30.43469129 -59.34375 41.71484375 C-59.34803513 42.98321579 -59.35232025 44.25158783 -59.35673523 45.55839539 C-59.36245775 48.23202528 -59.36393925 50.90526652 -59.35864258 53.57885742 C-59.35286172 56.97090499 -59.36976645 60.36240405 -59.39298725 63.75436115 C-59.41144058 67.03284997 -59.40753564 70.31131249 -59.40625 73.58984375 C-59.41545975 74.79022781 -59.42466949 75.99061188 -59.43415833 77.22737122 C-59.38300172 86.68265791 -58.75103088 97.28757316 -52.5625 104.953125 C-45.36670415 111.57547696 -36.12159151 111.71929138 -26.84765625 111.5703125 C-19.56446221 111.15156623 -12.54903079 109.33323768 -7.04296875 104.3515625 C-2.70843509 97.73493993 -1.94697058 90.04747282 -1.04296875 82.3515625 C2.58703125 82.3515625 6.21703125 82.3515625 9.95703125 82.3515625 C10.38008681 94.47915509 8.90423784 104.84857938 0.39453125 114.0390625 C-8.65319484 122.41658666 -18.83486065 123.55543544 -30.66796875 123.6640625 C-31.69792969 123.69306641 -32.72789063 123.72207031 -33.7890625 123.75195312 C-43.46914002 123.83109841 -52.39619011 121.54181187 -60.04296875 115.3515625 C-74.00685781 100.72272634 -72.50311513 80.41329489 -72.37915039 61.52612305 C-72.35545847 57.66238648 -72.35861955 53.79933827 -72.36523438 49.93554688 C-72.35965894 47.44530844 -72.35254991 44.95507287 -72.34375 42.46484375 C-72.34466141 41.32702957 -72.34557281 40.18921539 -72.34651184 39.016922 C-72.21468953 23.91710453 -70.21497899 10.69121533 -59.46484375 -0.515625 C-55.92272717 -3.63497283 -52.54744928 -5.32630328 -48.04296875 -6.6484375 C-47.30820313 -6.87015625 -46.5734375 -7.091875 -45.81640625 -7.3203125 C-30.84806883 -11.02485086 -12.33192284 -9.9504234 0 0 Z " fill="#888888" transform="translate(1224.04296875,49.6484375)"/>
<path d="M0 0 C0.83265381 0.00523682 1.66530762 0.01047363 2.52319336 0.01586914 C3.42231445 0.0190918 4.32143555 0.02231445 5.24780273 0.02563477 C6.66609375 0.03820312 6.66609375 0.03820312 8.11303711 0.05102539 C9.06243164 0.05553711 10.01182617 0.06004883 10.98999023 0.06469727 C13.3435708 0.0765243 15.69701292 0.09384445 18.05053711 0.11352539 C20.87233492 10.65609294 22.95895053 21.32393675 25.06225586 32.02758789 C25.43890294 33.93382841 25.81576308 35.84002685 26.19282532 37.7461853 C26.97712715 41.71445189 27.759377 45.68311542 28.54003906 49.65209961 C29.54207526 54.74607385 30.54853268 59.83916238 31.55639935 64.93198586 C32.33249983 68.85549248 33.10669346 72.77937336 33.88025856 76.70338058 C34.25096583 78.58302019 34.6221787 80.46256016 34.99390221 82.34199905 C35.51035295 84.95509006 36.02433205 87.56865482 36.53759766 90.18237305 C36.69184708 90.96049347 36.8460965 91.73861389 37.00502014 92.54031372 C38.05053711 97.884725 38.05053711 97.884725 38.05053711 100.11352539 C32.44053711 100.11352539 26.83053711 100.11352539 21.05053711 100.11352539 C19.52101403 95.52495614 18.34019906 91.14400106 17.42553711 86.42602539 C17.22444336 85.43119141 17.22444336 85.43119141 17.01928711 84.41625977 C16.46199883 81.59285535 16.05053711 78.99932374 16.05053711 76.11352539 C10.44053711 76.11352539 4.83053711 76.11352539 -0.94946289 76.11352539 C-1.23821289 78.21727539 -1.52696289 80.32102539 -1.82446289 82.48852539 C-2.66814971 88.4184385 -3.70682206 94.25536147 -4.94946289 100.11352539 C-10.55946289 100.11352539 -16.16946289 100.11352539 -21.94946289 100.11352539 C-20.3477457 89.01971106 -18.24717863 78.0594332 -16.07055664 67.06665039 C-15.69453991 65.15950983 -15.31865205 63.25234385 -14.94288635 61.34515381 C-14.16054412 57.37792935 -13.37613943 53.41111957 -12.59033203 49.44458008 C-11.58149882 44.35098755 -10.57872873 39.25622207 -9.57754421 34.16112137 C-8.80560139 30.23682652 -8.03010939 26.31323952 -7.25355721 22.38985443 C-6.88195406 20.50972818 -6.51156327 18.6293619 -6.14239311 16.74875641 C-5.62920066 14.13685544 -5.11115623 11.52596385 -4.59179688 8.9152832 C-4.43957169 8.13513855 -4.2873465 7.3549939 -4.13050842 6.5512085 C-2.85090296 0.16602002 -2.85090296 0.16602002 0 0 Z M7.05053711 22.11352539 C5.07053711 34.32352539 3.09053711 46.53352539 1.05053711 59.11352539 C5.34053711 59.11352539 9.63053711 59.11352539 14.05053711 59.11352539 C12.07053711 46.90352539 10.09053711 34.69352539 8.05053711 22.11352539 C7.72053711 22.11352539 7.39053711 22.11352539 7.05053711 22.11352539 Z " fill="#888888" transform="translate(1299.949462890625,194.886474609375)"/>
<path d="M0 0 C0.89460938 -0.01611328 1.78921875 -0.03222656 2.7109375 -0.04882812 C9.6915061 -0.05390121 15.91946585 0.96544911 21.89453125 4.75 C29.64348216 12.5970389 31.01172455 21.12903315 31.125 31.8125 C31.02479315 42.11484704 29.66689163 51.12000302 22.3359375 58.87890625 C15.08687401 64.95289324 8.02873303 65.3125 -1.375 65.3125 C-1.375 76.8625 -1.375 88.4125 -1.375 100.3125 C-6.655 100.3125 -11.935 100.3125 -17.375 100.3125 C-17.375 67.9725 -17.375 35.6325 -17.375 2.3125 C-10.98934883 0.48802824 -6.4571881 -0.02306139 0 0 Z M-1.375 18.3125 C-1.375 27.8825 -1.375 37.4525 -1.375 47.3125 C6.17509569 47.7437403 6.17509569 47.7437403 11.625 44.3125 C15.63137273 38.92461943 15.25938913 32.73568997 14.625 26.3125 C13.28984385 22.08450552 12.41318236 20.81559512 8.6875 18.4375 C4.87536294 17.03712312 2.47519936 17.02910021 -1.375 18.3125 Z " fill="#888888" transform="translate(1362.375,194.6875)"/>
<path d="M0 0 C13.53 0 27.06 0 41 0 C41 6.27 41 12.54 41 19 C32.75 19 24.5 19 16 19 C16 25.93 16 32.86 16 40 C23.59 40 31.18 40 39 40 C39 45.94 39 51.88 39 58 C31.41 58 23.82 58 16 58 C16 65.92 16 73.84 16 82 C24.58 82 33.16 82 42 82 C42 87.94 42 93.88 42 100 C28.14 100 14.28 100 0 100 C0 67 0 34 0 0 Z " fill="#888888" transform="translate(1087,195)"/>
<path d="M0 0 C13.53 0 27.06 0 41 0 C41 6.27 41 12.54 41 19 C32.75 19 24.5 19 16 19 C16 25.93 16 32.86 16 40 C23.59 40 31.18 40 39 40 C39 45.94 39 51.88 39 58 C31.41 58 23.82 58 16 58 C16 65.92 16 73.84 16 82 C24.58 82 33.16 82 42 82 C42 87.94 42 93.88 42 100 C28.14 100 14.28 100 0 100 C0 67 0 34 0 0 Z " fill="#888888" transform="translate(905,195)"/>
<path d="M0 0 C5.28 0 10.56 0 16 0 C16 26.73 16 53.46 16 81 C24.58 81 33.16 81 42 81 C42 87.27 42 93.54 42 100 C28.14 100 14.28 100 0 100 C0 67 0 34 0 0 Z " fill="#888888" transform="translate(855,195)"/>
<path d="M0 0 C1.42892578 -0.00386719 1.42892578 -0.00386719 2.88671875 -0.0078125 C5.3125 0.125 5.3125 0.125 7.3125 1.125 C7.3125 4.755 7.3125 8.385 7.3125 12.125 C6.06146484 12.16367187 6.06146484 12.16367187 4.78515625 12.203125 C-4.44759358 12.66846405 -13.06810422 14.13786001 -19.6875 21.125 C-23.12456727 26.9641086 -25.78363705 32.44182925 -25.84571838 39.28851318 C-25.86040161 40.52102058 -25.86040161 40.52102058 -25.87538147 41.77842712 C-25.88113693 42.67106766 -25.8868924 43.56370819 -25.89282227 44.48339844 C-25.90767166 45.90341911 -25.90767166 45.90341911 -25.92282104 47.35212708 C-25.95439454 50.47951766 -25.97917714 53.60692343 -26.00390625 56.734375 C-26.02447935 58.90342604 -26.04547592 61.07247311 -26.06687927 63.24151611 C-26.1220631 68.94936908 -26.17148869 74.65725801 -26.21972656 80.36517334 C-26.26996848 86.19009602 -26.32564051 92.0149665 -26.38085938 97.83984375 C-26.48839585 109.26818457 -26.58985088 120.69657072 -26.6875 132.125 C-30.6475 132.125 -34.6075 132.125 -38.6875 132.125 C-38.6875 88.895 -38.6875 45.665 -38.6875 1.125 C-35.0575 1.125 -31.4275 1.125 -27.6875 1.125 C-27.3575 5.085 -27.0275 9.045 -26.6875 13.125 C-25.90375 12.073125 -25.12 11.02125 -24.3125 9.9375 C-18.06078562 2.61660882 -9.36749228 -0.02555932 0 0 Z " fill="#888888" transform="translate(1128.6875,39.875)"/>
</svg>
  </g>
</svg>