<svg xmlns="http://www.w3.org/2000/svg" viewBox="-50 -50 100 100">
  <g transform="rotate(15)">
    <line
      x1="0"
      y1="-30"
      x2="0"
      y2="0"
      stroke="currentColor"
      stroke-width="3"
      stroke-linecap="round"
    />
    <line
      x1="-26"
      y1="-15"
      x2="0"
      y2="0"
      stroke="currentColor"
      stroke-width="3"
      stroke-linecap="round"
    />
    <line
      x1="-26"
      y1="15"
      x2="0"
      y2="0"
      stroke="currentColor"
      stroke-width="3"
      stroke-linecap="round"
    />
    <line
      x1="0"
      y1="30"
      x2="0"
      y2="0"
      stroke="currentColor"
      stroke-width="3"
      stroke-linecap="round"
    />
    <line
      x1="26"
      y1="15"
      x2="0"
      y2="0"
      stroke="currentColor"
      stroke-width="3"
      stroke-linecap="round"
    />
    <line
      x1="26"
      y1="-15"
      x2="0"
      y2="0"
      stroke="currentColor"
      stroke-width="3"
      stroke-linecap="round"
    />

    <circle cx="0" cy="0" r="10" fill="currentColor" />

    <circle cx="0" cy="-40" r="0" fill="currentColor" />
    <circle cx="-35" cy="-20" r="5" fill="currentColor" />
    <circle cx="-35" cy="20" r="0" fill="currentColor" />
    <circle cx="0" cy="40" r="5" fill="currentColor" />
    <circle cx="35" cy="20" r="0" fill="currentColor" />
    <circle cx="35" cy="-20" r="5" fill="currentColor" />
  </g>

  <svg x="-2" y="-54" width="24" height="24" viewBox="0 0 576 512">
    <path
      fill="currentColor"
      d="M180.5 141.5C219.7 108.5 272.6 80 336 80C399.4 80 452.3 108.5 491.5 141.5C530.5 174.5 558.3 213.1 572.4 241.3C577.2 250.5 577.2 261.5 572.4 270.7C558.3 298 530.5 337.5 491.5 370.5C452.3 403.5 399.4 432 336 432C272.6 432 219.7 403.5 180.5 370.5C164.3 356.7 150 341.9 137.8 327.3L48.12 379.6C35.61 386.9 19.76 384.9 9.474 374.7C-.8133 364.5-2.97 348.7 4.216 336.1L50 256L4.216 175.9C-2.97 163.3-.8133 147.5 9.474 137.3C19.76 127.1 35.61 125.1 48.12 132.4L137.8 184.7C150 170.1 164.3 155.3 180.5 141.5L180.5 141.5zM416 224C398.3 224 384 238.3 384 256C384 273.7 398.3 288 416 288C433.7 288 448 273.7 448 256C448 238.3 433.7 224 416 224z"
    />
  </svg>

  <svg x="-49" y="2" width="24" height="24" viewBox="0 0 640 512">
    <path
      transform="scale(-1,1) translate(-640,0)"
      fill="currentColor"
      d="M523.9 31.1H574C603.4 31.1 628.1 51.99 636.1 80.48L640 95.1L544 119.1V191.1C544 279.1 484.9 354.1 404.2 376.8L446.2 478.9C451.2 491.1 445.4 505.1 433.1 510.2C420.9 515.2 406.9 509.4 401.8 497.1L355.2 383.1C354.1 383.1 353.1 384 352 384H311.1L350.2 478.9C355.2 491.1 349.4 505.1 337.1 510.2C324.9 515.2 310.9 509.4 305.8 497.1L259.2 384H126.1L51.51 441.4C37.5 452.1 17.41 449.5 6.638 435.5C-4.138 421.5-1.517 401.4 12.49 390.6L368 117.2V88C368 39.4 407.4 0 456 0C483.3 0 507.7 12.46 523.9 32V31.1zM456 111.1C469.3 111.1 480 101.3 480 87.1C480 74.74 469.3 63.1 456 63.1C442.7 63.1 432 74.74 432 87.1C432 101.3 442.7 111.1 456 111.1z"
    />
  </svg>

  <svg x="19" y="19" width="24" height="24" viewBox="0 0 640 512">
    <path
      fill="currentColor"
      d="M528 416h-32.07l-90.32-96.34l140.6-79.03c18.38-10.25 29.75-29.62 29.75-50.62c0-21.5-11.75-41-30.5-51.25c-40.5-22.25-99.07-41.43-99.07-41.43C439.6 60.19 407.3 32 368 32s-71.77 28.25-78.52 65.5C126.7 113-.4999 250.1 .0001 417C.1251 451.9 29.13 480 64 480h304c8.875 0 16-7.125 16-16c0-26.51-21.49-48-47.1-48H284.3l23.93-32.38c24.25-36.13 10.38-88.25-33.63-106.5C250.8 267.1 223 272.4 202.4 288L169.6 312.5c-7.125 5.375-17.12 4-22.38-3.125c-5.375-7.125-4-17.12 3.125-22.38l34.75-26.12c36.87-27.62 88.37-27.62 125.1 0c10.88 8.125 45.88 39 40.88 93.13L469.6 480h90.38c8.875 0 16-7.125 16-16C576 437.5 554.5 416 528 416zM344 112c0-13.25 10.75-24 24-24s24 10.75 24 24s-10.75 24-24 24S344 125.3 344 112z"
    />
  </svg>
</svg>
