<svg
  version="1.1"
  id="Layer_1"
  xmlns="http://www.w3.org/2000/svg"
  xmlns:xlink="http://www.w3.org/1999/xlink"
  x="0px"
  y="0px"
  width="100%"
  viewBox="0 0 2560 1984"
  enable-background="new 0 0 2560 1984"
  xml:space="preserve"
>
  <path
    fill="currentColor"
    opacity="1.000000"
    stroke="none"
    d="
M1492.584229,1709.779541 
	C1492.493042,1714.105347 1492.323242,1718.431274 1492.322021,1722.757080 
	C1492.300049,1804.019653 1492.297852,1885.282227 1492.291626,1966.544800 
	C1492.291382,1970.466553 1492.291748,1974.388306 1492.291748,1978.987915 
	C1346.863892,1978.987915 1202.475098,1978.987915 1058.083984,1978.990967 
	C1057.847046,1978.757690 1057.595337,1978.535522 1057.382812,1978.280762 
	C1057.176758,1978.034302 1056.931519,1977.778198 1056.843628,1977.484375 
	C1056.653931,1976.850708 1056.462036,1976.194214 1056.434692,1975.540039 
	C1056.351196,1973.544556 1056.314209,1971.545898 1056.313721,1969.548462 
	C1056.290161,1882.957275 1056.272583,1796.365967 1056.571777,1708.121582 
	C1057.135254,1702.856201 1057.560181,1699.245850 1057.596558,1695.631470 
	C1057.769653,1678.424194 1057.837280,1661.215942 1058.631592,1643.880249 
	C1063.888672,1640.493164 1068.971313,1637.755371 1072.914062,1633.862915 
	C1080.471558,1626.401978 1087.182495,1618.091431 1094.595215,1610.474487 
	C1124.778320,1579.459839 1155.090332,1548.570557 1185.362183,1517.642212 
	C1216.566162,1485.761475 1247.783447,1453.893555 1278.986328,1422.011719 
	C1309.024048,1391.320435 1339.020020,1360.588257 1369.089844,1329.928467 
	C1406.391479,1291.894897 1443.723022,1253.890503 1481.099731,1215.930786 
	C1493.488892,1203.348267 1506.174194,1191.056641 1518.518066,1178.430542 
	C1539.688843,1156.775635 1560.843262,1135.099731 1581.638550,1113.087036 
	C1585.330933,1109.178711 1587.248169,1103.593384 1590.908447,1098.606079 
	C1645.411133,1098.391235 1698.990479,1098.327271 1752.569946,1098.327271 
	C1773.133301,1098.327271 1792.873535,1094.241211 1811.697998,1086.124634 
	C1843.026855,1072.616333 1864.598022,1050.038574 1874.703979,1017.079041 
	C1881.158325,996.028687 1881.734009,974.469788 1879.205078,952.883545 
	C1877.016602,934.203918 1870.939087,916.742981 1860.209717,900.957214 
	C1850.763306,887.058838 1837.513672,877.824585 1823.785522,868.420532 
	C1825.771729,864.963684 1827.256470,861.910339 1829.506714,859.603760 
	C1862.255493,826.032959 1895.026855,792.483093 1927.951294,759.084595 
	C1983.309326,702.929443 2038.806641,646.911499 2094.123779,590.716003 
	C2096.785889,588.011597 2098.279297,584.157043 2101.062500,581.019409 
	C2144.449463,598.453552 2183.260010,621.803101 2217.537109,652.700623 
	C2252.234863,683.977417 2278.582031,721.211792 2297.382324,763.730774 
	C2315.173340,803.968018 2324.653320,846.521057 2327.397461,890.242676 
	C2330.786865,944.241028 2328.003662,997.910767 2313.815430,1050.590820 
	C2294.748291,1121.385986 2258.495361,1181.607422 2202.777832,1229.296997 
	C2133.281982,1288.779541 2051.507080,1320.931641 1961.737793,1334.346802 
	C1959.796997,1334.636841 1957.954712,1335.587646 1955.063599,1336.571533 
	C1968.954102,1341.499390 1981.466919,1345.938354 1993.973755,1351.111938 
	C1992.496826,1355.042114 1991.722046,1358.888184 1989.442261,1361.328613 
	C1974.018799,1377.838989 1958.457520,1394.229736 1942.605591,1410.329224 
	C1888.930298,1464.842773 1835.113281,1519.216675 1781.365601,1573.658936 
	C1779.734375,1575.311157 1778.424316,1577.304199 1776.690796,1578.826782 
	C1773.032959,1582.039551 1769.193604,1585.045776 1764.974854,1587.665039 
	C1762.700073,1584.051270 1760.878296,1580.909424 1759.058105,1577.766724 
	C1746.156372,1555.489502 1733.333740,1533.165527 1720.274292,1510.981079 
	C1718.149170,1507.371216 1714.977661,1504.377197 1712.003662,1500.520996 
	C1695.080200,1473.704590 1676.637573,1449.116943 1650.579956,1431.204468 
	C1637.925049,1422.505249 1624.592285,1417.285156 1608.811035,1417.519287 
	C1573.895996,1418.036987 1538.968018,1417.682007 1504.045288,1417.682861 
	C1500.504883,1417.682983 1496.964355,1417.682739 1492.590332,1417.682739 
	C1492.590332,1450.505615 1492.590332,1482.011841 1492.407471,1514.469971 
	C1492.149658,1517.081299 1492.008667,1518.740356 1492.008789,1520.399536 
	C1492.012085,1580.878296 1492.021606,1641.356934 1492.065674,1701.835693 
	C1492.067627,1704.483765 1492.403809,1707.131592 1492.584229,1709.779541 
z"
  />
  <path
    fill="currentColor"
    opacity="1.000000"
    stroke="none"
    d="
M1243.967041,13.900861 
	C1246.812866,13.378402 1249.655884,12.422527 1252.505127,12.403331 
	C1272.053101,12.271625 1291.606689,12.075235 1311.149780,12.409092 
	C1331.630249,12.758958 1352.102783,13.626194 1372.574097,14.394429 
	C1376.502808,14.541862 1380.409180,15.278645 1385.029541,16.601156 
	C1383.377563,20.167770 1381.407471,23.394920 1378.593872,25.488152 
	C1370.322632,31.641878 1361.741699,37.381798 1353.236938,43.218300 
	C1329.638794,59.412865 1306.025024,75.584892 1282.404297,91.746452 
	C1242.850708,118.809227 1203.283569,145.852127 1163.728394,172.912369 
	C1127.196289,197.904404 1090.682251,222.922791 1054.142456,247.903503 
	C1000.291382,284.719177 946.413696,321.495911 892.569519,358.321747 
	C870.594604,373.351166 848.701477,388.500122 826.729309,403.533569 
	C786.626099,430.972321 746.482788,458.352478 706.373779,485.782745 
	C683.024353,501.751282 659.721130,517.787476 636.375488,533.761719 
	C597.097656,560.637634 557.796875,587.480042 518.516357,614.352173 
	C481.709351,639.532166 444.927368,664.748779 408.114044,689.919556 
	C366.902649,718.097412 325.655396,746.222778 284.449493,774.408569 
	C262.475433,789.439270 240.579224,804.583740 218.606201,819.615967 
	C178.501556,847.052490 138.356598,874.430054 98.246819,901.859070 
	C74.896790,917.826965 51.665508,933.970703 28.176224,949.730408 
	C23.907835,952.594238 18.650221,953.983643 13.849302,956.053711 
	C12.685612,949.989380 11.098928,943.971069 10.432130,937.852600 
	C7.679761,912.597290 5.598687,887.291077 7.302891,860.908203 
	C11.527040,858.618774 15.155475,857.740173 18.101831,855.816711 
	C27.574492,849.632568 36.780685,843.041321 46.115768,836.645203 
	C83.462227,811.056335 120.810699,785.470337 158.173218,759.904907 
	C196.910126,733.399109 235.671173,706.928589 274.407959,680.422607 
	C298.858246,663.692322 323.272736,646.909668 347.722443,630.178467 
	C387.007935,603.294861 426.313324,576.440308 465.602875,549.562622 
	C502.418243,524.377380 539.219971,499.172272 576.034973,473.986450 
	C615.049255,447.296082 654.077576,420.626404 693.088806,393.931732 
	C717.263977,377.389130 741.408447,360.801758 765.585022,344.261261 
	C804.873413,317.382019 844.182739,290.533417 883.472229,263.655823 
	C920.287781,238.470703 957.077820,213.248306 993.899292,188.071854 
	C1047.760132,151.244766 1101.638306,114.443222 1155.510376,77.632408 
	C1182.996216,58.851192 1210.524658,40.131573 1237.904419,21.196796 
	C1240.409180,19.464556 1241.968628,16.365301 1243.967041,13.900861 
z"
  />
  <path
    fill="currentColor"
    opacity="1.000000"
    stroke="none"
    d="
M1765.428711,1588.136719 
	C1769.193604,1585.045776 1773.032959,1582.039551 1776.690796,1578.826782 
	C1778.424316,1577.304199 1779.734375,1575.311157 1781.365601,1573.658936 
	C1835.113281,1519.216675 1888.930298,1464.842773 1942.605591,1410.329224 
	C1958.457520,1394.229736 1974.018799,1377.838989 1989.442261,1361.328613 
	C1991.722046,1358.888184 1992.496826,1355.042114 1994.707520,1351.120239 
	C2011.943604,1356.926880 2028.650757,1362.982422 2044.871704,1370.139526 
	C2058.517090,1376.160400 2071.581543,1383.493530 2084.935303,1390.181519 
	C2089.252441,1392.343750 2093.671631,1394.302490 2098.354004,1396.930542 
	C2101.536865,1399.729492 2104.352539,1402.031006 2107.291992,1404.161987 
	C2121.053223,1414.137573 2133.883057,1425.221680 2143.415527,1439.355469 
	C2152.285645,1452.506958 2160.081787,1466.382690 2168.350586,1479.939575 
	C2175.872314,1493.059692 2183.305420,1506.231689 2190.939209,1519.286255 
	C2199.401611,1533.758057 2208.045898,1548.123657 2216.614258,1562.533569 
	C2217.946045,1564.773193 2219.294678,1567.002808 2220.479248,1570.810669 
	C2220.340576,1577.911865 2218.670410,1582.447510 2214.562744,1586.613525 
	C2198.475098,1602.927979 2182.857666,1619.704834 2166.849854,1636.099243 
	C2132.720215,1671.053467 2098.468262,1705.888184 2064.237305,1740.743530 
	C2057.013428,1748.098999 2049.614502,1755.282593 2042.385132,1762.632812 
	C2004.630127,1801.018799 1966.888184,1839.417969 1929.202271,1877.871948 
	C1926.905762,1880.215454 1925.130249,1883.069458 1923.112305,1885.685913 
	C1912.944580,1867.011230 1902.664673,1848.396484 1892.631348,1829.649780 
	C1868.791992,1785.106934 1845.076416,1740.497925 1821.295532,1695.923828 
	C1813.161987,1680.678589 1804.982910,1665.457764 1796.193848,1649.023193 
	C1793.102905,1642.825317 1790.691040,1637.805298 1788.173462,1632.838989 
	C1780.614014,1617.927002 1773.013306,1603.036011 1765.428711,1588.136719 
z"
  />
  <path
    fill="currentColor"
    opacity="1.000000"
    stroke="none"
    d="
M13.775591,956.912659 
	C18.650221,953.983643 23.907835,952.594238 28.176224,949.730408 
	C51.665508,933.970703 74.896790,917.826965 98.246819,901.859070 
	C138.356598,874.430054 178.501556,847.052490 218.606201,819.615967 
	C240.579224,804.583740 262.475433,789.439270 284.449493,774.408569 
	C325.655396,746.222778 366.902649,718.097412 408.114044,689.919556 
	C444.927368,664.748779 481.709351,639.532166 518.516357,614.352173 
	C557.796875,587.480042 597.097656,560.637634 636.375488,533.761719 
	C659.721130,517.787476 683.024353,501.751282 706.373779,485.782745 
	C746.482788,458.352478 786.626099,430.972321 826.729309,403.533569 
	C848.701477,388.500122 870.594604,373.351166 892.569519,358.321747 
	C946.413696,321.495911 1000.291382,284.719177 1054.142456,247.903503 
	C1090.682251,222.922791 1127.196289,197.904404 1163.728394,172.912369 
	C1203.283569,145.852127 1242.850708,118.809227 1282.404297,91.746452 
	C1306.025024,75.584892 1329.638794,59.412865 1353.236938,43.218300 
	C1361.741699,37.381798 1370.322632,31.641878 1378.593872,25.488152 
	C1381.407471,23.394920 1383.377563,20.167770 1385.865723,16.787712 
	C1397.226074,16.634501 1408.480103,16.830021 1419.676147,17.738842 
	C1441.445679,19.505939 1463.188599,21.611370 1484.928101,23.725584 
	C1489.412720,24.161720 1493.834106,25.248363 1499.003296,26.798389 
	C1496.343140,31.123280 1493.447998,35.376892 1489.505981,38.133213 
	C1465.774780,54.726082 1441.804199,70.976784 1417.912476,87.340027 
	C1380.563721,112.919838 1343.220215,138.507416 1305.862671,164.074371 
	C1266.856079,190.770050 1227.830688,217.438263 1188.822632,244.131805 
	C1164.649536,260.673645 1140.509521,277.263977 1116.325806,293.790192 
	C1075.926147,321.397797 1035.515625,348.989624 995.085083,376.552185 
	C973.903625,390.992279 952.648071,405.323792 931.465332,419.762115 
	C903.146484,439.064453 874.832397,458.374146 846.586853,477.783295 
	C836.483704,484.725677 826.517212,491.874390 816.676758,499.182556 
	C815.366760,500.155457 815.171509,502.629425 814.446899,504.353241 
	C814.433716,504.298248 814.473267,504.393158 813.673340,504.308563 
	C806.523621,504.345459 800.622192,505.102844 799.453125,513.731079 
	C796.172791,515.513000 793.419128,516.880981 789.875122,518.202881 
	C784.891174,517.787537 782.016541,519.067017 781.621338,524.390381 
	C779.080872,526.029175 776.872681,527.139038 773.872803,528.200256 
	C767.827454,527.756470 764.055054,529.229370 763.491333,535.855469 
	C758.741455,539.075867 754.482117,541.807983 749.821533,544.100098 
	C745.171509,541.957947 744.728577,545.115173 743.371094,548.202148 
	C735.492188,553.895203 728.281250,559.347473 720.976685,564.671204 
	C715.574219,568.608643 710.049866,572.378662 703.806763,576.203003 
	C697.624023,576.389648 694.642151,579.143494 693.952637,585.179626 
	C689.312805,589.259094 684.941589,592.742737 679.789917,596.205078 
	C674.463074,598.066467 669.427063,599.230164 665.445923,601.942383 
	C623.652039,630.415100 582.033997,659.145813 540.352356,687.783325 
	C517.042725,703.798462 493.715881,719.788757 470.377197,735.761597 
	C430.835999,762.823120 391.276031,789.857178 351.730042,816.911682 
	C315.206573,841.898560 278.701630,866.912415 242.169601,891.886719 
	C200.965469,920.055054 159.726791,948.172791 118.529694,976.351440 
	C96.560387,991.378296 74.788597,1006.699890 52.626328,1021.435242 
	C45.555908,1026.136353 39.402164,1032.776367 30.311123,1033.994263 
	C25.192480,1012.204773 20.019299,990.427734 15.010287,968.613098 
	C14.200196,965.085144 14.119646,961.389648 13.775591,956.912659 
z"
  />
  <path
    fill="currentColor"
    opacity="1.000000"
    stroke="none"
    d="
M427.635620,1501.161987 
	C401.005707,1483.763794 374.009857,1466.895874 347.838379,1448.833496 
	C315.067963,1426.216675 284.512024,1400.688965 254.798386,1374.210205 
	C244.158707,1364.728760 234.276505,1354.397461 224.094666,1343.208008 
	C225.546158,1340.576538 226.787140,1338.955688 228.382233,1337.841919 
	C245.568756,1325.840942 262.783386,1313.879883 280.044830,1301.986938 
	C303.063629,1286.127197 326.106842,1270.302612 349.182343,1254.525513 
	C389.567474,1226.913940 429.969238,1199.326660 470.396088,1171.776367 
	C491.025665,1157.717407 511.706543,1143.733643 532.401733,1129.771362 
	C540.385620,1124.385010 548.473083,1119.152222 557.038147,1114.260742 
	C572.097900,1142.064941 590.992004,1166.566040 609.323364,1191.364990 
	C618.706604,1204.058594 629.823303,1215.551514 640.815613,1226.951416 
	C650.708679,1237.211182 661.275757,1246.859253 671.968933,1256.297363 
	C680.554077,1263.874634 689.890991,1270.593384 698.672852,1277.957153 
	C705.368408,1283.571411 711.716919,1289.599609 718.033630,1296.130249 
	C713.917297,1300.290039 710.286560,1304.194458 706.007507,1307.165283 
	C681.450928,1324.214478 656.750732,1341.057129 632.080078,1357.941772 
	C592.880005,1384.770386 553.665955,1411.578491 514.455566,1438.391968 
	C488.406860,1456.205200 462.295746,1473.928589 436.374847,1491.925903 
	C432.967041,1494.291992 430.524933,1498.049072 427.635620,1501.161987 
z"
  />
  <path
    fill="currentColor"
    opacity="1.000000"
    stroke="none"
    d="
M1033.815308,29.504402 
	C1040.127075,28.347301 1046.397705,26.829662 1052.758789,26.105659 
	C1067.525391,24.424938 1082.330444,23.070789 1097.129639,21.688652 
	C1116.175171,19.909927 1135.227295,18.196054 1154.284546,16.548151 
	C1157.587158,16.262569 1160.930054,16.442265 1165.071533,17.272223 
	C1163.585938,20.762938 1161.692383,23.972136 1158.914307,25.920643 
	C1138.757812,40.058994 1118.458740,53.995564 1098.137451,67.897446 
	C1044.305176,104.724411 990.428040,141.485672 936.591431,178.306305 
	C914.619568,193.333603 892.730103,208.481171 870.761292,223.512924 
	C830.664185,250.948624 790.527100,278.325897 750.424011,305.752960 
	C727.078125,321.719604 703.777100,337.751862 680.436096,353.725739 
	C640.891052,380.789093 601.326843,407.824463 561.777283,434.881287 
	C525.250488,459.870178 488.736206,484.877350 452.209290,509.866058 
	C412.934448,536.734741 373.647705,563.586121 334.372986,590.454895 
	C297.571411,615.631775 260.787872,640.834961 223.979721,666.002136 
	C182.774063,694.176208 141.537567,722.305054 100.338219,750.488281 
	C78.367798,765.517700 56.564137,780.794556 34.442242,795.596619 
	C26.516045,800.900208 17.876347,805.137451 9.562298,809.861450 
	C9.774181,788.443787 14.490834,767.639587 18.393768,746.747253 
	C20.123013,737.490662 22.871721,728.424377 26.393457,718.634460 
	C31.931656,716.557190 36.744427,715.911072 40.443546,713.532776 
	C53.037842,705.435486 65.228928,696.711975 77.592941,688.255371 
	C116.882996,661.382141 156.187439,634.529968 195.475281,607.653442 
	C232.289185,582.469299 269.083008,557.255737 305.896576,532.071045 
	C344.909149,505.381958 383.939941,478.719513 422.952820,452.030914 
	C460.041534,426.658630 497.111084,401.258392 534.200623,375.887329 
	C572.664612,349.576019 611.149231,323.294891 649.612305,296.982330 
	C687.250671,271.233826 724.868958,245.455963 762.503967,219.702576 
	C800.688782,193.573044 838.862915,167.427856 877.079712,141.345139 
	C911.452148,117.886124 945.905151,94.545258 980.264038,71.066536 
	C996.199524,60.177246 1012.094910,49.221958 1027.759521,37.950581 
	C1030.424316,36.033165 1031.828613,32.364201 1033.815308,29.504402 
z"
  />
  <path
    fill="currentColor"
    opacity="1.000000"
    stroke="none"
    d="
M428.124939,1501.579590 
	C430.524933,1498.049072 432.967041,1494.291992 436.374847,1491.925903 
	C462.295746,1473.928589 488.406860,1456.205200 514.455566,1438.391968 
	C553.665955,1411.578491 592.880005,1384.770386 632.080078,1357.941772 
	C656.750732,1341.057129 681.450928,1324.214478 706.007507,1307.165283 
	C710.286560,1304.194458 713.917297,1300.290039 718.766357,1296.160645 
	C728.463440,1301.391846 737.282715,1307.219116 746.013123,1313.176514 
	C789.451660,1342.817749 834.905151,1368.996094 882.346313,1391.635254 
	C899.208984,1399.682251 916.756653,1406.284424 933.894470,1413.768677 
	C940.872864,1416.816162 947.592773,1420.455688 953.760010,1424.133789 
	C947.973083,1426.811035 942.451416,1428.572388 937.814941,1431.662109 
	C923.157166,1441.429932 908.899475,1451.795166 894.362915,1461.748291 
	C854.030701,1489.363159 813.648193,1516.904785 773.260193,1544.438110 
	C752.925110,1558.301147 732.413025,1571.908081 712.209839,1585.959961 
	C697.208191,1596.394043 682.777039,1607.690674 665.455566,1614.260620 
	C648.706360,1608.039185 631.590576,1602.645996 615.282654,1595.427490 
	C578.894714,1579.320801 542.521362,1563.085938 506.888794,1545.399048 
	C480.193359,1532.148560 454.663269,1516.550293 428.124939,1501.579590 
z"
  />
  <path
    fill="currentColor"
    opacity="1.000000"
    stroke="none"
    d="
M814.460083,504.408234 
	C815.171509,502.629425 815.366760,500.155457 816.676758,499.182556 
	C826.517212,491.874390 836.483704,484.725677 846.586853,477.783295 
	C874.832397,458.374146 903.146484,439.064453 931.465332,419.762115 
	C952.648071,405.323792 973.903625,390.992279 995.085083,376.552185 
	C1035.515625,348.989624 1075.926147,321.397797 1116.325806,293.790192 
	C1140.509521,277.263977 1164.649536,260.673645 1188.822632,244.131805 
	C1227.830688,217.438263 1266.856079,190.770050 1305.862671,164.074371 
	C1343.220215,138.507416 1380.563721,112.919838 1417.912476,87.340027 
	C1441.804199,70.976784 1465.774780,54.726082 1489.505981,38.133213 
	C1493.447998,35.376892 1496.343140,31.123280 1499.859131,26.900658 
	C1507.607178,27.223381 1515.216064,28.225779 1522.830811,29.180302 
	C1525.421875,29.505106 1528.039673,29.626562 1530.625366,29.984381 
	C1537.907104,30.992048 1545.185303,32.029861 1552.451782,33.141247 
	C1558.170898,34.015938 1563.855347,35.122570 1569.581665,35.941959 
	C1583.270020,37.900688 1597.057739,39.289772 1610.649414,41.765537 
	C1626.323730,44.620682 1641.815796,48.466331 1657.423218,51.708195 
	C1660.293457,52.304394 1663.335693,52.072735 1667.087158,53.182163 
	C1665.709351,56.884880 1664.042847,60.345242 1661.298096,62.260109 
	C1637.308960,78.996399 1613.133667,95.466423 1589.000488,111.996033 
	C1551.977783,137.354050 1514.949707,162.704224 1477.914429,188.043808 
	C1438.957520,214.697998 1400.012207,241.368835 1361.019653,267.970764 
	C1326.965698,291.203552 1292.819946,314.301849 1258.785156,337.562683 
	C1247.266113,345.435333 1235.895752,353.531921 1224.623657,361.753906 
	C1222.656372,363.188812 1221.516602,365.758331 1219.202515,368.031982 
	C1212.824585,368.879852 1207.139038,369.032776 1201.670166,370.200653 
	C1178.938477,375.055023 1156.263306,380.175323 1133.583984,385.272400 
	C1092.424805,394.522736 1051.769409,405.664612 1011.752502,418.984863 
	C956.820007,437.270020 903.182190,458.761902 851.698608,485.406982 
	C839.322693,491.812042 826.874817,498.078217 814.460083,504.408234 
z"
  />
  <path
    fill="currentColor"
    opacity="1.000000"
    stroke="none"
    d="
M1219.994507,367.803772 
	C1221.516602,365.758331 1222.656372,363.188812 1224.623657,361.753906 
	C1235.895752,353.531921 1247.266113,345.435333 1258.785156,337.562683 
	C1292.819946,314.301849 1326.965698,291.203552 1361.019653,267.970764 
	C1400.012207,241.368835 1438.957520,214.697998 1477.914429,188.043808 
	C1514.949707,162.704224 1551.977783,137.354050 1589.000488,111.996033 
	C1613.133667,95.466423 1637.308960,78.996399 1661.298096,62.260109 
	C1664.042847,60.345242 1665.709351,56.884880 1667.923584,53.461914 
	C1689.532227,57.802242 1711.200684,62.406643 1732.623047,67.960159 
	C1753.310791,73.323265 1773.837280,79.364700 1794.267212,85.652237 
	C1820.174194,93.625473 1845.912231,102.147774 1871.402710,111.431808 
	C1866.482666,115.102371 1861.694702,117.499161 1857.316895,120.495407 
	C1840.574219,131.954346 1824.004150,143.664993 1807.293701,155.171539 
	C1783.730347,171.396805 1760.112305,187.542465 1736.495483,203.689621 
	C1696.399170,231.104050 1656.286499,258.494354 1616.178955,285.892334 
	C1590.082031,303.719513 1563.979248,321.538208 1537.887207,339.372467 
	C1534.850586,341.447998 1531.636597,343.440735 1531.060791,347.950256 
	C1498.874023,347.905762 1467.623169,347.734802 1436.372437,347.723114 
	C1426.744507,347.719513 1417.095215,347.823242 1407.492554,348.447327 
	C1383.389893,350.013794 1359.290283,351.693451 1335.224243,353.738037 
	C1317.757202,355.221954 1300.315796,357.117767 1282.917603,359.271545 
	C1261.912964,361.871857 1240.966309,364.938782 1219.994507,367.803772 
z"
  />
  <path
    fill="currentColor"
    opacity="1.000000"
    stroke="none"
    d="
M556.513306,1113.849365 
	C548.473083,1119.152222 540.385620,1124.385010 532.401733,1129.771362 
	C511.706543,1143.733643 491.025665,1157.717407 470.396088,1171.776367 
	C429.969238,1199.326660 389.567474,1226.913940 349.182343,1254.525513 
	C326.106842,1270.302612 303.063629,1286.127197 280.044830,1301.986938 
	C262.783386,1313.879883 245.568756,1325.840942 228.382233,1337.841919 
	C226.787140,1338.955688 225.546158,1340.576538 223.806030,1342.648193 
	C202.811798,1324.670044 184.170273,1304.064087 166.998428,1282.249512 
	C149.424591,1259.924194 132.932419,1236.747437 116.313309,1212.742432 
	C120.905273,1208.932251 125.268059,1206.494751 129.377731,1203.686768 
	C165.379425,1179.088623 201.340256,1154.430420 237.304123,1129.776855 
	C259.540314,1114.533691 281.746704,1099.246948 303.991547,1084.016479 
	C343.266907,1057.125610 382.564972,1030.267944 421.846619,1003.386169 
	C445.744171,987.032288 469.550110,970.542358 493.592529,954.404663 
	C497.865387,951.536682 503.097076,950.097107 508.078186,948.818726 
	C508.757629,954.576416 508.995972,959.553162 509.777222,964.443054 
	C512.534180,981.699341 515.134460,998.992493 518.472595,1016.139587 
	C520.619385,1027.167114 523.474792,1038.116943 526.901489,1048.816895 
	C529.928162,1058.267822 533.809204,1067.499146 537.990662,1076.513062 
	C543.834900,1089.111572 550.308777,1101.417969 556.513306,1113.849365 
z"
  />
  <path
    fill="currentColor"
    opacity="1.000000"
    stroke="none"
    d="
M1923.284424,1886.310547 
	C1925.130249,1883.069458 1926.905762,1880.215454 1929.202271,1877.871948 
	C1966.888184,1839.417969 2004.630127,1801.018799 2042.385132,1762.632812 
	C2049.614502,1755.282593 2057.013428,1748.098999 2064.237305,1740.743530 
	C2098.468262,1705.888184 2132.720215,1671.053467 2166.849854,1636.099243 
	C2182.857666,1619.704834 2198.475098,1602.927979 2214.562744,1586.613525 
	C2218.670410,1582.447510 2220.340576,1577.911865 2220.503418,1571.492920 
	C2227.522949,1580.722656 2234.841797,1590.556030 2241.114746,1601.016724 
	C2264.329102,1639.728394 2287.202881,1678.644409 2310.185791,1717.494629 
	C2311.534424,1719.774536 2312.720215,1722.150879 2313.555176,1725.501953 
	C2310.437500,1728.996216 2307.613037,1731.341797 2305.076660,1733.966064 
	C2288.204102,1751.423096 2271.569824,1769.113770 2254.530029,1786.404907 
	C2197.749756,1844.021851 2140.771484,1901.443970 2084.053711,1959.122192 
	C2078.072754,1965.204590 2073.311279,1972.486572 2067.983887,1979.212036 
	C2036.395386,1979.212036 2004.806885,1979.212036 1972.159546,1979.212036 
	C1956.020508,1948.633667 1939.738525,1917.784424 1923.284424,1886.310547 
z"
  />
  <path
    fill="currentColor"
    opacity="1.000000"
    stroke="none"
    d="
M80.308990,580.004578 
	C88.445786,565.353394 95.623955,550.059204 104.926865,536.190247 
	C122.173767,510.478180 139.870651,484.982117 158.890182,460.572693 
	C173.487991,441.838074 190.015625,424.542206 206.368668,407.253143 
	C245.069077,366.337677 287.248993,329.234955 332.674927,295.983154 
	C356.455353,278.575867 380.910065,262.015747 405.743774,246.142426 
	C429.550476,230.925598 453.408234,215.709641 479.000244,203.416687 
	C492.317688,197.019730 504.679138,188.654343 517.887817,182.003082 
	C531.600403,175.098068 545.886902,169.343277 559.794556,162.813065 
	C590.810608,148.249756 622.551575,135.551025 654.547058,123.256653 
	C685.040283,111.539558 716.060547,101.571442 746.991455,91.279770 
	C767.934204,84.311478 789.290466,78.579170 810.497620,72.417252 
	C816.413208,70.698410 822.456177,69.417664 829.083496,68.716049 
	C826.958069,72.228851 824.522278,75.443008 821.370361,77.620422 
	C786.339355,101.820541 751.218323,125.890640 716.080078,149.935272 
	C674.899170,178.114807 633.664124,206.215332 592.478455,234.387939 
	C570.515198,249.411621 548.629883,264.549164 526.668213,279.575134 
	C486.584229,307.000244 446.460510,334.367340 406.371155,361.784668 
	C383.033173,377.745728 359.750885,393.788269 336.406219,409.739471 
	C295.755951,437.515320 255.068848,465.237274 214.412048,493.003510 
	C174.579544,520.206787 134.749695,547.414001 94.965584,574.687866 
	C90.482819,577.761047 86.029472,580.526184 80.308990,580.004578 
z"
  />
  <path
    fill="currentColor"
    opacity="1.000000"
    stroke="none"
    d="
M1531.996826,347.885101 
	C1531.636597,343.440735 1534.850586,341.447998 1537.887207,339.372467 
	C1563.979248,321.538208 1590.082031,303.719513 1616.178955,285.892334 
	C1656.286499,258.494354 1696.399170,231.104050 1736.495483,203.689621 
	C1760.112305,187.542465 1783.730347,171.396805 1807.293701,155.171539 
	C1824.004150,143.664993 1840.574219,131.954346 1857.316895,120.495407 
	C1861.694702,117.499161 1866.482666,115.102371 1871.732178,112.124802 
	C1876.111084,112.649559 1879.990845,113.070335 1883.543701,114.378670 
	C1902.191895,121.246056 1920.849487,128.105988 1939.321411,135.428741 
	C1952.998413,140.850693 1966.438721,146.880569 1979.908813,152.811203 
	C1998.880249,161.163925 2017.790649,169.655762 2036.704346,178.138901 
	C2039.737915,179.499466 2042.652954,181.124527 2045.521362,183.610107 
	C2043.250366,186.623444 2041.282837,188.939911 2038.878418,190.637894 
	C2023.941162,201.186981 2008.974731,211.697586 1993.890015,222.034195 
	C1952.734131,250.235825 1911.514648,278.344360 1870.320923,306.490570 
	C1844.232300,324.315979 1818.074585,342.041992 1792.143188,360.093384 
	C1788.821777,362.405548 1786.681030,366.413910 1783.289062,369.688660 
	C1780.377686,369.195190 1778.170532,368.649506 1775.822998,367.510498 
	C1773.396240,363.074982 1771.562622,363.926239 1769.166870,367.544128 
	C1746.679443,364.955414 1725.027222,362.174866 1703.343506,359.664185 
	C1689.220825,358.028931 1675.068726,356.594910 1660.901245,355.411804 
	C1638.812988,353.567230 1616.717896,351.714539 1594.593262,350.420837 
	C1573.749512,349.202057 1552.864014,348.701569 1531.996826,347.885101 
z"
  />
  <path
    fill="currentColor"
    opacity="1.000000"
    stroke="none"
    d="
M9.038287,810.513428 
	C17.876347,805.137451 26.516045,800.900208 34.442242,795.596619 
	C56.564137,780.794556 78.367798,765.517700 100.338219,750.488281 
	C141.537567,722.305054 182.774063,694.176208 223.979721,666.002136 
	C260.787872,640.834961 297.571411,615.631775 334.372986,590.454895 
	C373.647705,563.586121 412.934448,536.734741 452.209290,509.866058 
	C488.736206,484.877350 525.250488,459.870178 561.777283,434.881287 
	C601.326843,407.824463 640.891052,380.789093 680.436096,353.725739 
	C703.777100,337.751862 727.078125,321.719604 750.424011,305.752960 
	C790.527100,278.325897 830.664185,250.948624 870.761292,223.512924 
	C892.730103,208.481171 914.619568,193.333603 936.591431,178.306305 
	C990.428040,141.485672 1044.305176,104.724411 1098.137451,67.897446 
	C1118.458740,53.995564 1138.757812,40.058994 1158.914307,25.920643 
	C1161.692383,23.972136 1163.585938,20.762938 1165.937256,17.459623 
	C1174.823608,15.967409 1183.647827,14.719583 1192.503052,14.432107 
	C1209.027466,13.895653 1225.570190,13.917289 1243.036133,13.803776 
	C1241.968628,16.365301 1240.409180,19.464556 1237.904419,21.196796 
	C1210.524658,40.131573 1182.996216,58.851192 1155.510376,77.632408 
	C1101.638306,114.443222 1047.760132,151.244766 993.899292,188.071854 
	C957.077820,213.248306 920.287781,238.470703 883.472229,263.655823 
	C844.182739,290.533417 804.873413,317.382019 765.585022,344.261261 
	C741.408447,360.801758 717.263977,377.389130 693.088806,393.931732 
	C654.077576,420.626404 615.049255,447.296082 576.034973,473.986450 
	C539.219971,499.172272 502.418243,524.377380 465.602875,549.562622 
	C426.313324,576.440308 387.007935,603.294861 347.722443,630.178467 
	C323.272736,646.909668 298.858246,663.692322 274.407959,680.422607 
	C235.671173,706.928589 196.910126,733.399109 158.173218,759.904907 
	C120.810699,785.470337 83.462227,811.056335 46.115768,836.645203 
	C36.780685,843.041321 27.574492,849.632568 18.101831,855.816711 
	C15.155475,857.740173 11.527040,858.618774 7.493544,859.989441 
	C7.355572,843.723938 7.934928,827.444641 9.038287,810.513428 
z"
  />
  <path
    fill="currentColor"
    opacity="1.000000"
    stroke="none"
    d="
M2169.010986,1479.823242 
	C2160.081787,1466.382690 2152.285645,1452.506958 2143.415527,1439.355469 
	C2133.883057,1425.221680 2121.053223,1414.137573 2107.291992,1404.161987 
	C2104.352539,1402.031006 2101.536865,1399.729492 2099.068604,1396.766357 
	C2119.286133,1385.257324 2139.485840,1375.135986 2158.831055,1363.583862 
	C2197.456055,1340.518555 2232.892334,1313.121460 2264.932373,1281.500610 
	C2284.062256,1262.621094 2301.282715,1242.083252 2317.142578,1220.327881 
	C2340.970947,1187.641968 2360.183350,1152.540649 2374.087646,1114.591431 
	C2379.763916,1099.098877 2384.614258,1083.303589 2390.329834,1068.117432 
	C2397.509277,1071.175049 2401.332520,1065.706787 2405.653076,1062.764648 
	C2448.682617,1033.462036 2491.486084,1003.827148 2534.526123,974.539978 
	C2538.146240,972.076538 2543.018799,971.453735 2547.309570,969.975769 
	C2541.871826,993.195618 2537.229004,1016.637817 2530.810059,1039.583252 
	C2521.209961,1073.899170 2507.494873,1106.826050 2491.512939,1138.575928 
	C2473.275391,1174.806641 2451.910156,1209.276855 2427.931641,1242.117920 
	C2396.044434,1285.791260 2359.756348,1325.525513 2320.619141,1362.647583 
	C2276.406250,1404.584351 2228.077393,1441.421265 2177.421875,1475.229126 
	C2174.945312,1476.881958 2172.259521,1478.221313 2169.010986,1479.823242 
z"
  />
  <path
    fill="currentColor"
    opacity="1.000000"
    stroke="none"
    d="
M665.932007,1614.820679 
	C682.777039,1607.690674 697.208191,1596.394043 712.209839,1585.959961 
	C732.413025,1571.908081 752.925110,1558.301147 773.260193,1544.438110 
	C813.648193,1516.904785 854.030701,1489.363159 894.362915,1461.748291 
	C908.899475,1451.795166 923.157166,1441.429932 937.814941,1431.662109 
	C942.451416,1428.572388 947.973083,1426.811035 954.544067,1424.156616 
	C967.272217,1426.115601 977.566711,1430.791870 988.021057,1435.488892 
	C999.324341,1440.567627 1011.442810,1443.945923 1023.385620,1447.453125 
	C1034.109985,1450.602295 1045.078491,1452.920166 1056.347046,1456.347412 
	C1057.028320,1460.693604 1057.526367,1464.296387 1057.538086,1467.900757 
	C1057.607666,1489.381348 1057.627197,1510.862549 1057.536255,1532.343018 
	C1057.483154,1544.890259 1057.193237,1557.436523 1056.377563,1570.158447 
	C1052.494751,1572.002686 1049.019165,1573.342896 1046.028320,1575.390747 
	C1015.584961,1596.236938 985.242676,1617.230713 954.825195,1638.114868 
	C938.105347,1649.594482 921.314636,1660.971313 904.511108,1672.328491 
	C901.147217,1674.602051 897.621643,1676.605347 897.971069,1681.466797 
	C872.426270,1675.623291 846.754883,1670.278198 821.363098,1663.831909 
	C768.846863,1650.499512 717.153687,1634.429443 665.932007,1614.820679 
z"
  />
  <path
    fill="currentColor"
    opacity="1.000000"
    stroke="none"
    d="
M1032.940674,29.577892 
	C1031.828613,32.364201 1030.424316,36.033165 1027.759521,37.950581 
	C1012.094910,49.221958 996.199524,60.177246 980.264038,71.066536 
	C945.905151,94.545258 911.452148,117.886124 877.079712,141.345139 
	C838.862915,167.427856 800.688782,193.573044 762.503967,219.702576 
	C724.868958,245.455963 687.250671,271.233826 649.612305,296.982330 
	C611.149231,323.294891 572.664612,349.576019 534.200623,375.887329 
	C497.111084,401.258392 460.041534,426.658630 422.952820,452.030914 
	C383.939941,478.719513 344.909149,505.381958 305.896576,532.071045 
	C269.083008,557.255737 232.289185,582.469299 195.475281,607.653442 
	C156.187439,634.529968 116.882996,661.382141 77.592941,688.255371 
	C65.228928,696.711975 53.037842,705.435486 40.443546,713.532776 
	C36.744427,715.911072 31.931656,716.557190 26.834270,717.998413 
	C27.177464,712.953674 27.894905,707.767029 29.528368,702.886902 
	C35.809185,684.122437 42.383392,665.456238 49.549141,646.860107 
	C54.009060,651.551697 56.805595,647.358521 59.380108,645.610779 
	C79.469841,631.972290 99.388924,618.082947 119.426537,604.367249 
	C159.507812,576.931702 199.640213,549.570801 239.733246,522.152405 
	C263.073456,506.190765 286.367249,490.161224 309.701447,474.190796 
	C349.234924,447.133240 388.786865,420.102631 428.325470,393.052490 
	C464.842102,368.069824 501.339447,343.058929 537.866943,318.092255 
	C578.791199,290.120392 619.755920,262.207672 660.671509,234.223236 
	C682.912048,219.011703 705.061096,203.666306 727.297668,188.449020 
	C767.382080,161.017838 807.507751,133.647064 847.603516,106.232544 
	C872.319031,89.333916 896.988220,72.367363 921.740112,55.522278 
	C925.172119,53.186646 928.405823,50.998798 927.998840,46.212208 
	C953.035828,42.005219 978.059509,37.716888 1003.116455,33.632504 
	C1012.727295,32.065899 1022.413940,30.964659 1032.940674,29.577892 
z"
  />
  <path
    fill="currentColor"
    opacity="1.000000"
    stroke="none"
    d="
M2068.908203,1979.383301 
	C2073.311279,1972.486572 2078.072754,1965.204590 2084.053711,1959.122192 
	C2140.771484,1901.443970 2197.749756,1844.021851 2254.530029,1786.404907 
	C2271.569824,1769.113770 2288.204102,1751.423096 2305.076660,1733.966064 
	C2307.613037,1731.341797 2310.437500,1728.996216 2313.733398,1726.189819 
	C2324.212402,1742.026978 2334.244141,1758.102295 2343.930420,1774.383301 
	C2371.335205,1820.446167 2398.598145,1866.593506 2425.918213,1912.706665 
	C2437.458252,1932.184814 2449.020996,1951.649536 2460.516113,1971.153931 
	C2461.801270,1973.334106 2462.712158,1975.734619 2464.250732,1978.995361 
	C2461.420166,1979.284912 2459.565674,1979.641235 2457.711182,1979.640991 
	C2328.418213,1979.630493 2199.125244,1979.591187 2068.908203,1979.383301 
z"
  />
  <path
    fill="currentColor"
    opacity="1.000000"
    stroke="none"
    d="
M2547.593750,969.182983 
	C2543.018799,971.453735 2538.146240,972.076538 2534.526123,974.539978 
	C2491.486084,1003.827148 2448.682617,1033.462036 2405.653076,1062.764648 
	C2401.332520,1065.706787 2397.509277,1071.175049 2390.396240,1067.334839 
	C2398.354492,1032.892822 2403.858643,999.152649 2405.346924,965.034119 
	C2406.472412,939.236084 2405.650635,913.264160 2404.093018,887.466309 
	C2402.859619,867.036804 2400.479004,846.484375 2396.280518,826.474854 
	C2391.050293,801.547119 2383.429199,777.121033 2377.606934,752.298950 
	C2381.317383,750.638611 2384.472412,749.466553 2387.168701,747.623535 
	C2399.506836,739.190369 2411.665283,730.495056 2423.982178,722.030884 
	C2452.458496,702.462036 2480.958740,682.927734 2509.549561,663.526550 
	C2512.161865,661.753723 2515.494141,661.041565 2518.492188,659.836914 
	C2524.241455,676.770386 2530.765625,693.486938 2535.575928,710.683044 
	C2545.162109,744.954346 2551.483887,779.846008 2554.537842,815.406677 
	C2557.253418,847.026917 2556.943848,878.626526 2555.325439,910.171509 
	C2554.325684,929.653809 2550.458252,948.988953 2547.593750,969.182983 
z"
  />
  <path
    fill="currentColor"
    opacity="1.000000"
    stroke="none"
    d="
M1764.974854,1587.665161 
	C1773.013306,1603.036011 1780.614014,1617.927002 1788.173462,1632.838989 
	C1790.691040,1637.805298 1793.102905,1642.825317 1795.710327,1648.467285 
	C1766.057983,1656.954224 1736.364258,1665.227783 1706.435425,1672.538940 
	C1654.250488,1685.287109 1601.495239,1695.171387 1548.240967,1702.329590 
	C1530.200562,1704.754395 1512.169922,1707.250366 1493.359497,1709.746704 
	C1492.403809,1707.131592 1492.067627,1704.483765 1492.065674,1701.835693 
	C1492.021606,1641.356934 1492.012085,1580.878296 1492.008789,1520.399536 
	C1492.008667,1518.740356 1492.149658,1517.081299 1493.294434,1514.500488 
	C1511.245728,1513.156982 1528.136475,1512.953369 1545.007324,1512.264771 
	C1573.108765,1511.117554 1601.226318,1510.089355 1629.283447,1508.211182 
	C1656.986816,1506.356445 1684.623779,1503.509888 1712.289795,1501.098389 
	C1714.977661,1504.377197 1718.149170,1507.371216 1720.274292,1510.981079 
	C1733.333740,1533.165527 1746.156372,1555.489502 1759.058105,1577.766724 
	C1760.878296,1580.909424 1762.700073,1584.051270 1764.974854,1587.665161 
z"
  />
  <path
    fill="currentColor"
    opacity="1.000000"
    stroke="none"
    d="
M30.345089,1034.733154 
	C39.402164,1032.776367 45.555908,1026.136353 52.626328,1021.435242 
	C74.788597,1006.699890 96.560387,991.378296 118.529694,976.351440 
	C159.726791,948.172791 200.965469,920.055054 242.169601,891.886719 
	C278.701630,866.912415 315.206573,841.898560 351.730042,816.911682 
	C391.276031,789.857178 430.835999,762.823120 470.377197,735.761597 
	C493.715881,719.788757 517.042725,703.798462 540.352356,687.783325 
	C582.033997,659.145813 623.652039,630.415100 665.445923,601.942383 
	C669.427063,599.230164 674.463074,598.066467 679.507568,596.835510 
	C668.328735,608.363647 656.328796,618.918091 645.066284,630.208069 
	C634.013489,641.287842 623.308655,652.775024 613.193176,664.712219 
	C603.464294,676.193176 593.825317,687.924561 585.689209,700.540527 
	C573.177307,719.941711 561.984070,740.193298 549.569458,760.179443 
	C545.521240,761.481995 543.196777,763.010803 546.825134,767.081848 
	C545.511536,769.830139 544.421509,771.907532 542.576538,773.988892 
	C537.835449,775.357300 533.309998,775.927734 529.947693,778.210938 
	C501.869659,797.278320 474.058136,816.737488 446.064545,835.930237 
	C404.888885,864.160645 363.616577,892.250122 322.410675,920.436523 
	C300.436737,935.467590 278.539093,950.610229 256.565735,965.642151 
	C216.460480,993.078125 176.313431,1020.453125 136.205826,1047.885620 
	C113.131821,1063.667603 90.099983,1079.511230 67.051155,1095.330078 
	C63.186947,1097.982056 59.354088,1100.706543 54.265205,1099.997681 
	C44.849403,1080.059448 38.110470,1059.142456 31.618952,1038.133423 
	C31.332724,1037.207031 30.798029,1036.357422 30.345089,1034.733154 
z"
  />
  <path
    fill="currentColor"
    opacity="1.000000"
    stroke="none"
    d="
M507.886047,947.997986 
	C503.097076,950.097107 497.865387,951.536682 493.592529,954.404663 
	C469.550110,970.542358 445.744171,987.032288 421.846619,1003.386169 
	C382.564972,1030.267944 343.266907,1057.125610 303.991547,1084.016479 
	C281.746704,1099.246948 259.540314,1114.533691 237.304123,1129.776855 
	C201.340256,1154.430420 165.379425,1179.088623 129.377731,1203.686768 
	C125.268059,1206.494751 120.905273,1208.932251 116.186424,1212.078125 
	C105.835304,1196.913818 95.754707,1181.335327 86.167595,1165.458618 
	C81.541611,1157.797729 77.844292,1149.576172 74.332092,1140.745972 
	C88.509552,1130.908936 102.175591,1122.072998 115.632843,1112.929810 
	C140.391052,1096.108276 165.005005,1079.074707 189.717758,1062.186035 
	C230.357925,1034.412598 271.014923,1006.663879 311.692719,978.945679 
	C332.310211,964.896851 353.043152,951.017151 373.628448,936.921509 
	C418.629791,906.107300 463.540680,875.160767 508.598541,844.429626 
	C511.759399,842.273743 515.822327,841.440613 519.498657,840.755493 
	C518.554077,844.815613 517.321167,848.061707 516.649658,851.419983 
	C514.963806,859.851929 513.365173,868.308594 512.043030,876.803894 
	C510.616150,885.972473 508.905487,895.165588 508.462372,904.402832 
	C507.766510,918.910400 508.029297,933.463928 507.886047,947.997986 
z"
  />
  <path
    fill="currentColor"
    opacity="1.000000"
    stroke="none"
    d="
M2518.416016,659.072388 
	C2515.494141,661.041565 2512.161865,661.753723 2509.549561,663.526550 
	C2480.958740,682.927734 2452.458496,702.462036 2423.982178,722.030884 
	C2411.665283,730.495056 2399.506836,739.190369 2387.168701,747.623535 
	C2384.472412,749.466553 2381.317383,750.638611 2377.184570,751.757080 
	C2365.204834,722.010742 2351.784912,693.909058 2335.156738,667.357544 
	C2313.535645,632.832581 2288.161377,601.415466 2258.155518,573.784607 
	C2255.002930,570.881531 2252.384277,567.398499 2250.274414,564.114563 
	C2253.150146,563.192078 2255.505371,562.687073 2257.350830,561.432190 
	C2272.200684,551.335327 2286.939209,541.074158 2301.741455,530.906860 
	C2335.736328,507.556976 2369.747803,484.231506 2403.752686,460.896210 
	C2419.537598,480.099213 2434.811523,499.637695 2447.333008,521.235596 
	C2454.992676,534.447449 2463.835938,546.972351 2471.514893,560.174011 
	C2477.913330,571.173340 2483.702393,582.559204 2489.204346,594.040710 
	C2498.659668,613.771545 2507.694092,633.704285 2516.857910,653.574158 
	C2517.544678,655.063171 2517.854736,656.725952 2518.416016,659.072388 
z"
  />
  <path
    fill="currentColor"
    opacity="1.000000"
    stroke="none"
    d="
M927.199829,46.114861 
	C928.405823,50.998798 925.172119,53.186646 921.740112,55.522278 
	C896.988220,72.367363 872.319031,89.333916 847.603516,106.232544 
	C807.507751,133.647064 767.382080,161.017838 727.297668,188.449020 
	C705.061096,203.666306 682.912048,219.011703 660.671509,234.223236 
	C619.755920,262.207672 578.791199,290.120392 537.866943,318.092255 
	C501.339447,343.058929 464.842102,368.069824 428.325470,393.052490 
	C388.786865,420.102631 349.234924,447.133240 309.701447,474.190796 
	C286.367249,490.161224 263.073456,506.190765 239.733246,522.152405 
	C199.640213,549.570801 159.507812,576.931702 119.426537,604.367249 
	C99.388924,618.082947 79.469841,631.972290 59.380108,645.610779 
	C56.805595,647.358521 54.009060,651.551697 50.077705,646.361694 
	C54.389580,634.813354 58.546894,623.720947 63.449852,612.968567 
	C68.375862,602.165649 74.044456,591.701294 79.848312,580.546570 
	C86.029472,580.526184 90.482819,577.761047 94.965584,574.687866 
	C134.749695,547.414001 174.579544,520.206787 214.412048,493.003510 
	C255.068848,465.237274 295.755951,437.515320 336.406219,409.739471 
	C359.750885,393.788269 383.033173,377.745728 406.371155,361.784668 
	C446.460510,334.367340 486.584229,307.000244 526.668213,279.575134 
	C548.629883,264.549164 570.515198,249.411621 592.478455,234.387939 
	C633.664124,206.215332 674.899170,178.114807 716.080078,149.935272 
	C751.218323,125.890640 786.339355,101.820541 821.370361,77.620422 
	C824.522278,75.443008 826.958069,72.228851 829.862671,68.826706 
	C846.389282,64.072983 862.592407,58.714249 879.223755,56.269436 
	C895.268555,53.910843 910.409119,48.128105 927.199829,46.114861 
z"
  />
  <path
    fill="currentColor"
    opacity="1.000000"
    stroke="none"
    d="
M1783.993286,369.636475 
	C1786.681030,366.413910 1788.821777,362.405548 1792.143188,360.093384 
	C1818.074585,342.041992 1844.232300,324.315979 1870.320923,306.490570 
	C1911.514648,278.344360 1952.734131,250.235825 1993.890015,222.034195 
	C2008.974731,211.697586 2023.941162,201.186981 2038.878418,190.637894 
	C2041.282837,188.939911 2043.250366,186.623444 2045.972900,184.159729 
	C2060.696533,190.902802 2075.050293,197.743271 2088.988770,205.345261 
	C2104.422119,213.762619 2119.634277,222.616119 2134.644531,231.769333 
	C2146.727783,239.137817 2158.360352,247.245392 2170.216797,254.987915 
	C2171.018555,255.511444 2172.024170,255.722290 2172.721924,256.929413 
	C2168.799316,259.982605 2164.949463,261.980988 2161.402100,264.419312 
	C2132.395264,284.358887 2103.510010,304.475708 2074.459961,324.352417 
	C2040.467896,347.610809 2006.275269,370.576996 1972.350586,393.932678 
	C1966.427612,398.010254 1961.397339,403.384644 1955.161621,408.181335 
	C1920.644165,399.766418 1887.027466,390.864166 1853.158447,383.056793 
	C1830.287598,377.784637 1807.060791,374.055695 1783.993286,369.636475 
z"
  />
  <path
    fill="currentColor"
    opacity="1.000000"
    stroke="none"
    d="
M2403.390137,460.309814 
	C2369.747803,484.231506 2335.736328,507.556976 2301.741455,530.906860 
	C2286.939209,541.074158 2272.200684,551.335327 2257.350830,561.432190 
	C2255.505371,562.687073 2253.150146,563.192078 2249.656982,563.883057 
	C2247.176270,562.993713 2245.933105,562.410706 2244.982422,561.516785 
	C2217.596924,535.764771 2186.796143,514.582275 2154.777344,495.211487 
	C2135.568359,483.590454 2115.510742,473.372070 2096.191406,461.894592 
	C2101.716553,458.381622 2107.142090,455.874298 2112.012207,452.552063 
	C2144.697510,430.255219 2177.278076,407.804352 2209.865723,385.364624 
	C2231.223389,370.657867 2252.516113,355.856659 2273.897217,341.183990 
	C2276.324463,339.518158 2279.135010,338.410431 2281.767822,337.043945 
	C2295.908203,349.605011 2310.278320,361.919342 2324.115723,374.805573 
	C2335.027100,384.966766 2345.415527,395.704285 2355.776123,406.436554 
	C2361.274414,412.131836 2366.164795,418.409607 2371.427246,424.337982 
	C2381.925293,436.164703 2392.490234,447.931763 2403.390137,460.309814 
z"
  />
  <path
    fill="currentColor"
    opacity="1.000000"
    stroke="none"
    d="
M2281.308350,336.494629 
	C2279.135010,338.410431 2276.324463,339.518158 2273.897217,341.183990 
	C2252.516113,355.856659 2231.223389,370.657867 2209.865723,385.364624 
	C2177.278076,407.804352 2144.697510,430.255219 2112.012207,452.552063 
	C2107.142090,455.874298 2101.716553,458.381622 2095.469238,461.760864 
	C2088.035400,459.488708 2081.617676,456.855255 2075.335449,453.931519 
	C2047.436035,440.947418 2018.917847,429.535522 1989.723755,419.797913 
	C1978.430054,416.030884 1967.208984,412.045807 1955.954834,408.160065 
	C1961.397339,403.384644 1966.427612,398.010254 1972.350586,393.932678 
	C2006.275269,370.576996 2040.467896,347.610809 2074.459961,324.352417 
	C2103.510010,304.475708 2132.395264,284.358887 2161.402100,264.419312 
	C2164.949463,261.980988 2168.799316,259.982605 2173.279785,257.462463 
	C2198.668701,272.629761 2222.698975,288.896393 2244.799561,307.930145 
	C2253.819336,315.698059 2263.670898,322.498077 2273.123291,329.765717 
	C2275.737061,331.775452 2278.275879,333.882782 2281.308350,336.494629 
z"
  />
  <path
    fill="currentColor"
    opacity="1.000000"
    stroke="none"
    d="
M519.465820,839.992432 
	C515.822327,841.440613 511.759399,842.273743 508.598541,844.429626 
	C463.540680,875.160767 418.629791,906.107300 373.628448,936.921509 
	C353.043152,951.017151 332.310211,964.896851 311.692719,978.945679 
	C271.014923,1006.663879 230.357925,1034.412598 189.717758,1062.186035 
	C165.005005,1079.074707 140.391052,1096.108276 115.632843,1112.929810 
	C102.175591,1122.072998 88.509552,1130.908936 74.218246,1140.026855 
	C67.088936,1127.257690 60.679089,1114.344971 54.267223,1100.715088 
	C59.354088,1100.706543 63.186947,1097.982056 67.051155,1095.330078 
	C90.099983,1079.511230 113.131821,1063.667603 136.205826,1047.885620 
	C176.313431,1020.453125 216.460480,993.078125 256.565735,965.642151 
	C278.539093,950.610229 300.436737,935.467590 322.410675,920.436523 
	C363.616577,892.250122 404.888885,864.160645 446.064545,835.930237 
	C474.058136,816.737488 501.869659,797.278320 529.947693,778.210938 
	C533.309998,775.927734 537.835449,775.357300 542.441528,774.668091 
	C540.719604,780.760742 538.061646,786.066162 536.095764,791.616760 
	C530.403442,807.689148 524.989197,823.860107 519.465820,839.992432 
z"
  />
  <path
    fill="currentColor"
    opacity="1.000000"
    stroke="none"
    d="
M898.722046,1681.792236 
	C897.621643,1676.605347 901.147217,1674.602051 904.511108,1672.328491 
	C921.314636,1660.971313 938.105347,1649.594482 954.825195,1638.114868 
	C985.242676,1617.230713 1015.584961,1596.236938 1046.028320,1575.390747 
	C1049.019165,1573.342896 1052.494751,1572.002686 1056.561890,1571.081055 
	C1057.566528,1595.888184 1057.754517,1619.947998 1057.942383,1644.007935 
	C1057.837280,1661.215942 1057.769653,1678.424194 1057.596558,1695.631470 
	C1057.560181,1699.245850 1057.135254,1702.856201 1056.498047,1707.179688 
	C1032.530396,1704.586182 1008.875061,1701.757690 985.398376,1697.854614 
	C956.678406,1693.079468 928.108032,1687.403809 898.722046,1681.792236 
z"
  />

  <path
    fill="currentColor"
    opacity="1.000000"
    stroke="none"
    d="
M1056.346924,1456.347412 
	C1056.066406,1450.946777 1056.302246,1446.288940 1056.304932,1441.630737 
	C1056.361694,1343.699951 1056.391846,1245.769043 1057.286377,1146.867554 
	C1062.090332,1143.603516 1066.608398,1141.920776 1069.850220,1138.878296 
	C1075.154541,1133.900269 1079.398926,1127.813965 1084.490479,1122.584595 
	C1114.688110,1091.570068 1144.997070,1060.663940 1175.276001,1029.728516 
	C1206.487183,997.840576 1237.711548,965.965332 1268.921631,934.076172 
	C1298.966187,903.377869 1328.981079,872.650330 1359.043335,841.969299 
	C1393.536987,806.765808 1428.001343,771.533264 1462.598755,736.431763 
	C1516.378784,681.868591 1570.292358,627.437012 1624.056152,572.857788 
	C1630.345337,566.473267 1636.308960,559.718201 1641.886597,552.707886 
	C1644.028564,550.015686 1644.669678,546.129272 1645.994507,542.786987 
	C1649.978516,542.629517 1653.962524,542.335632 1657.946533,542.334717 
	C1746.522217,542.315063 1835.099121,542.080688 1923.672119,542.568787 
	C1939.074097,542.653564 1954.617432,543.282654 1969.903198,547.491516 
	C1982.361084,550.921692 1995.555054,551.583130 2008.316040,554.028748 
	C2032.248779,558.615479 2055.737061,564.920410 2078.652832,573.299255 
	C2085.403320,575.767395 2092.302734,577.828491 2099.725586,580.457153 
	C2098.279297,584.157043 2096.785889,588.011597 2094.123779,590.716003 
	C2038.806641,646.911499 1983.309326,702.929443 1927.951294,759.084595 
	C1895.026855,792.483093 1862.255493,826.032959 1829.506714,859.603760 
	C1827.256470,861.910339 1825.771729,864.963684 1823.065063,868.172119 
	C1805.614868,861.418091 1788.484009,855.800964 1770.252930,855.760315 
	C1681.958496,855.563477 1593.663330,855.679504 1505.368408,855.732300 
	C1502.540283,855.734009 1499.712280,856.252441 1496.862061,856.532166 
	C1496.862061,937.367737 1496.862061,1017.201233 1496.862061,1098.339233 
	C1500.953003,1098.339233 1504.502319,1098.323364 1508.051270,1098.341919 
	C1535.362549,1098.484985 1562.673828,1098.634766 1589.985107,1098.782471 
	C1587.248169,1103.593384 1585.330933,1109.178711 1581.638550,1113.087036 
	C1560.843262,1135.099731 1539.688843,1156.775635 1518.518066,1178.430542 
	C1506.174194,1191.056641 1493.488892,1203.348267 1481.099731,1215.930786 
	C1443.723022,1253.890503 1406.391479,1291.894897 1369.089844,1329.928467 
	C1339.020020,1360.588257 1309.024048,1391.320435 1278.986328,1422.011719 
	C1247.783447,1453.893555 1216.566162,1485.761475 1185.362183,1517.642212 
	C1155.090332,1548.570557 1124.778320,1579.459839 1094.595215,1610.474487 
	C1087.182495,1618.091431 1080.471558,1626.401978 1072.914062,1633.862915 
	C1068.971313,1637.755371 1063.888672,1640.493164 1058.631592,1643.880249 
	C1057.754517,1619.947998 1057.566528,1595.888184 1057.194214,1570.905762 
	C1057.193237,1557.436523 1057.483154,1544.890259 1057.536255,1532.343018 
	C1057.627197,1510.862549 1057.607666,1489.381348 1057.538086,1467.900757 
	C1057.526367,1464.296387 1057.028320,1460.693604 1056.346924,1456.347412 
z"
  />

  <path
    fill="currentColor"
    opacity="1.000000"
    stroke="none"
    d="
M813.673340,504.308563 
	C810.064087,507.263702 805.654968,510.134216 800.612793,513.161011 
	C800.622192,505.102844 806.523621,504.345459 813.673340,504.308563 
z"
  />
  <path
    fill="currentColor"
    opacity="1.000000"
    stroke="none"
    d="
M703.806763,576.203003 
	C704.117004,581.664612 698.434082,581.470886 694.957825,584.519043 
	C694.642151,579.143494 697.624023,576.389648 703.806763,576.203003 
z"
  />
  <path
    fill="currentColor"
    opacity="1.000000"
    stroke="none"
    d="
M773.872803,528.200256 
	C771.528015,530.549194 768.391418,532.849426 764.618286,535.258423 
	C764.055054,529.229370 767.827454,527.756470 773.872803,528.200256 
z"
  />
  <path
    fill="currentColor"
    opacity="1.000000"
    stroke="none"
    d="
M789.875122,518.203003 
	C788.195740,520.041748 785.725952,521.834473 782.604980,523.744385 
	C782.016541,519.067017 784.891174,517.787537 789.875122,518.203003 
z"
  />
  <path
    fill="currentColor"
    opacity="1.000000"
    stroke="none"
    d="
M749.821533,544.100159 
	C748.562378,545.773010 746.901917,547.005920 744.620117,548.072510 
	C744.728577,545.115173 745.171509,541.957947 749.821533,544.100159 
z"
  />
  <path
    fill="currentColor"
    opacity="1.000000"
    stroke="none"
    d="
M1775.822998,367.510498 
	C1774.438110,368.100555 1772.912964,368.097260 1770.688232,367.780396 
	C1771.562622,363.926239 1773.396240,363.074982 1775.822998,367.510498 
z"
  />
  <path
    fill="currentColor"
    opacity="1.000000"
    stroke="none"
    d="
M549.569458,760.179443 
	C549.471558,761.923096 548.711914,763.762207 547.500488,766.006104 
	C543.196777,763.010803 545.521240,761.481995 549.569458,760.179443 
z"
  />
  <path
    fill="currentColor"
    opacity="1.000000"
    stroke="none"
    d="
M1645.070801,542.621826 
	C1644.669678,546.129272 1644.028564,550.015686 1641.886597,552.707886 
	C1636.308960,559.718201 1630.345337,566.473267 1624.056152,572.857788 
	C1570.292358,627.437012 1516.378784,681.868591 1462.598755,736.431763 
	C1428.001343,771.533264 1393.536987,806.765808 1359.043335,841.969299 
	C1328.981079,872.650330 1298.966187,903.377869 1268.921631,934.076172 
	C1237.711548,965.965332 1206.487183,997.840576 1175.276001,1029.728516 
	C1144.997070,1060.663940 1114.688110,1091.570068 1084.490479,1122.584595 
	C1079.398926,1127.813965 1075.154541,1133.900269 1069.850220,1138.878296 
	C1066.608398,1141.920776 1062.090332,1143.603516 1057.461060,1145.945312 
	C1056.627930,1142.338013 1056.349609,1138.682495 1056.349121,1135.026855 
	C1056.319580,941.730103 1056.313354,748.433411 1056.304810,555.136658 
	C1056.304688,551.488892 1056.304932,547.841125 1056.304932,542.808533 
	C1060.618530,542.626038 1064.438354,542.323975 1068.258057,542.323303 
	C1162.573608,542.307373 1256.889038,542.311584 1351.204590,542.337036 
	C1448.852051,542.363403 1546.499512,542.415833 1645.070801,542.621826 
z"
  />
</svg>
