<?xml version="1.0" encoding="UTF-8"?>
<svg id="Layer_1" data-name="Layer 1" xmlns="http://www.w3.org/2000/svg"  viewBox="50 30 200 120"
 fill ="currentColor">
  <path d="m96.31,77.8c4.75,0,9.34,1.7,12.73,4.92l40.75,41.09,9.17-9-40.92-41.26-.34-.34c-5.77-5.26-13.41-8.15-21.39-8.32h-.17c-17.66,0-32.09,14.43-32.09,32.09v3.4h.17c1.7,16.13,15.28,28.69,31.92,28.69,7.47,0,14.77-2.72,20.71-7.47l3.4-3.4h0c1.19-1.19,1.87-2.89,1.87-4.58,0-3.57-2.89-6.45-6.45-6.45-1.53,0-2.89.51-4.08,1.36l-3.23,3.23c-3.4,2.89-7.81,4.41-12.23,4.41-9.85,0-18.17-7.64-19.02-17.32v-1.87c.17-10.53,8.66-19.02,19.19-19.19Z"/>
  <path d="m202.77,64.9c-7.98,0-15.62,2.89-21.56,8.32l-6.79,6.79,9.17,9.17,6.28-6.28c3.57-3.23,7.98-4.92,12.73-4.92,10.53,0,19.02,8.49,19.02,19.02s-8.49,19.02-19.02,19.02c-4.41,0-8.66-1.53-12.06-4.41l-2.38-2.38-.85-.85c-1.19-.85-2.55-1.36-4.08-1.36-3.57,0-6.45,2.89-6.45,6.45,0,1.7.68,3.4,1.87,4.58h0l2.89,3.06.34.34c5.77,4.92,13.07,7.47,20.54,7.47,17.66,0,31.92-14.43,31.92-31.92.51-17.66-13.92-32.09-31.58-32.09Z"/>
  <path d="m132.48,123.98c-1.7,0-3.23.51-4.41,1.7l-4.58,4.58c-7.98,6.79-18,10.36-28.36,10.36-3.06,0-5.94-.34-8.83-.85-19.36-4.08-33.62-20.71-34.81-40.24v-2.55c0-20.71,14.77-38.71,34.98-42.96l1.02-.17c2.55-.51,5.09-.68,7.64-.68,11.21,0,21.9,4.24,30.05,11.89.85.68,25.98,26.15,39.05,39.39l1.53,1.53h0l.34.17,9.34-9.34-18.85-19.02-20.04-19.87c-.68-.85-1.53-1.53-2.38-2.38-10.53-10.02-24.45-15.62-39.05-15.62-3.91,0-7.81.34-11.55,1.19-26.32,5.43-45.5,28.86-45.5,55.86v2.55h0c1.19,25.81,20.04,48.05,45.5,53.31,3.74.85,7.64,1.19,11.55,1.19,13.75,0,26.83-4.92,37.18-13.92l5.09-5.09c1.19-1.19,1.7-2.89,1.7-4.41,0-3.57-2.89-6.62-6.62-6.62Z"/>
  <g>
    <path d="m172.21,67.1l.17-.17c.51-.68,1.19-1.19,1.87-1.87,8.15-7.64,18.85-11.89,30.05-11.89,2.84,0,5.52.3,8.2.75,2.89-1.09,5.79-2.18,8.7-3.24,3.07-1.12,5.64-2.78,7.61-5.06-4.16-2.01-8.62-3.54-13.3-4.51-3.74-.85-7.47-1.19-11.38-1.19-14.6,0-28.53,5.6-39.05,15.62-.85.68-1.53,1.53-2.21,2.21l-5.26,5.26,9.34,9.34,5.26-5.26Z"/>
    <path d="m237.26,132.36c-1.61-.6-3.23-1.2-4.84-1.8-5.38,4.51-11.89,7.76-19.12,9.22-2.89.68-5.94.85-8.83.85-10.36,0-20.38-3.74-28.36-10.36l-4.75-4.75c-1.19-1.02-2.72-1.7-4.41-1.7-3.74,0-6.62,3.06-6.62,6.62,0,1.7.68,3.23,1.87,4.58l4.75,4.75c10.36,9,23.43,14.26,37.01,14.26,3.91,0,7.81-.34,11.55-1.19,11.13-2.3,20.98-7.83,28.65-15.47-1.68-2.29-3.99-3.94-6.9-5.02Z"/>
  </g>
  <path d="m246.07,34.47c.53.88.92,1.37,1.13,1.92,1.13,2.98,2.32,5.94,3.29,8.96,1.56,4.81,4.71,7.84,9.53,9.35,3.03.95,5.98,2.17,8.94,3.34.44.17.73.71,1.09,1.08-.37.35-.69.86-1.13,1.03-3.49,1.36-6.99,2.69-10.51,3.97-3.69,1.35-6.1,3.92-7.46,7.54-1.25,3.34-2.45,6.71-3.75,10.03-.22.57-.83.99-1.25,1.48-.4-.49-.96-.93-1.18-1.49-1.2-3.04-2.46-6.07-3.44-9.18-1.58-5.03-5.15-7.71-9.97-9.22-2.83-.88-5.58-2.02-8.34-3.11-.44-.17-1-.71-1.02-1.09-.01-.35.57-.9,1.01-1.07,3.45-1.35,6.91-2.64,10.39-3.91,3.42-1.25,5.94-3.46,7.28-6.86,1.43-3.64,2.74-7.33,4.14-10.99.2-.53.66-.96,1.25-1.79Z"/>
  <path d="m254.2,142.12c-.42-.71-.73-1.11-.91-1.57-.79-2.07-1.58-4.13-2.29-6.23-.88-2.58-2.63-4.23-5.13-5.16-2.11-.78-4.23-1.56-6.32-2.38-.42-.17-.76-.54-1.13-.82.39-.32.73-.77,1.18-.94,1.88-.74,3.77-1.47,5.69-2.09,3.18-1.02,5.11-3.14,6.1-6.29.6-1.93,1.37-3.8,2.11-5.69.13-.32.45-.57.68-.85.28.28.68.5.81.83.79,2.02,1.56,4.06,2.27,6.12.95,2.77,2.69,4.74,5.5,5.72,1.91.67,3.81,1.37,5.68,2.13.59.24,1.08.71,1.62,1.07-.56.35-1.07.79-1.67,1.03-2.06.82-4.14,1.55-6.21,2.34-2.2.84-3.68,2.42-4.53,4.57-.91,2.31-1.73,4.65-2.62,6.96-.13.34-.41.63-.81,1.24Z"/>
  <path d="m300.73,92.57c-.7.56-1.07,1.03-1.56,1.22-2.92,1.14-5.88,2.18-8.8,3.31-2.5.97-5.11,1.68-7.27,3.42-2.22,1.8-3.6,4.13-4.57,6.77-1.4,3.82-2.81,7.64-4.27,11.43-.17.44-.73,1.07-1.05,1.03-.45-.05-1.03-.56-1.21-1.01-.95-2.33-1.76-4.72-2.67-7.06-.93-2.41-1.78-4.87-2.91-7.18-1.51-3.09-4.13-5.02-7.32-6.21-3.97-1.48-7.94-2.97-11.92-4.43-.62-.23-1.18-.47-1.16-1.24.02-.83.67-1.03,1.3-1.27,3.91-1.45,7.81-2.92,11.73-4.34,4.31-1.57,7.11-4.57,8.62-8.88,1.34-3.81,2.78-7.58,4.21-11.35.17-.45.49-1,.88-1.18.8-.35,1.26.2,1.53.94,1.21,3.3,2.4,6.62,3.68,9.9.69,1.76,1.38,3.55,2.34,5.16,1.65,2.78,4.23,4.47,7.24,5.56,3.82,1.39,7.64,2.81,11.44,4.26.53.2.97.63,1.73,1.15Z"/>
</svg>