<svg id="Layer_1" data-name="Layer 1" xmlns="http://www.w3.org/2000/svg" viewBox="0 0 373.6667 155"><defs><style>.cls-1,.cls-3{fill:#828385;}.cls-2{fill:#9d9ea1;}.cls-3{font-size:12.5787px;font-family:AppleSDGothicNeo-UltraLight-KSCpc-EUC-H, Apple SD Gothic Neo;letter-spacing:-0.021em;}.cls-4{letter-spacing:-0.0261em;}</style></defs><title>mondo_logo</title><path class="cls-1" d="M62.0782,138.819a15.8911,15.8911,0,0,1,3.1551-9.5058,52.7427,52.7427,0,0,1-.1251-102.2984,15.8441,15.8441,0,0,1-2.2369-14.9037,67.7586,67.7586,0,0,0,.1626,132.109A15.92,15.92,0,0,1,62.0782,138.819Z"/><path class="cls-1" d="M92.9314,12.0423A15.8427,15.8427,0,0,1,90.7684,26.95a52.7442,52.7442,0,0,1,.125,102.3634A15.8426,15.8426,0,0,1,93.0928,144.22a67.7556,67.7556,0,0,0-.1614-132.1778Z"/><rect class="cls-2" x="75.0943" y="110.3999" width="5.6393" height="25.9634"/><rect class="cls-2" x="75.0943" y="14.7564" width="5.6393" height="25.9634"/><path class="cls-1" d="M166.7948,82.9419h3.6909V52.584c0-5.9977,2.3068-9.7809,10.2423-9.7809,8.0278,0,9.8733,4.2446,9.8733,12.2723V82.85h3.6909V54.06c0-6.1823,2.3068-11.1651,10.3346-11.1651S214.5,46.0326,214.5,55.1677V82.9419h3.6909V55.1677c0-10.15-2.6759-15.6865-13.1028-15.6865-4.7059,0-8.7659.9227-12.3646,6.2746-1.5686-3.6909-5.1673-6.2746-11.5341-6.2746-4.7059,0-8.3046,1.2-10.5191,4.2446l-.3691-3.4141h-3.5064Z"/><path class="cls-1" d="M240.7979,39.5735c-9.2274,0-13.5642,3.8755-13.5642,15.9632V67.2554c-.0923,12.5492,4.2446,16.1478,13.5642,16.1478,9.2273,0,13.5641-4.1522,13.5641-16.0555V55.8136C254.362,43.1722,250.0252,39.5735,240.7979,39.5735Zm9.8732,27.59c0,9.0428-2.03,12.9183-9.8732,12.9183-8.3969,0-9.8733-3.7832-9.8733-13.0105v-11.35c0-9.0427,1.9378-12.6414,9.8733-12.6414,8.3968,0,9.8732,3.5063,9.8732,12.7337Z"/><path class="cls-1" d="M313.4637,39.5735c-9.2274,0-13.5642,3.8755-13.5642,15.9632V67.2554c-.0923,12.5492,4.2446,16.1478,13.5642,16.1478,9.2273,0,13.5641-4.1522,13.5641-16.0555V55.8136C327.0278,43.1722,322.691,39.5735,313.4637,39.5735Zm9.8732,27.59c0,9.0428-2.03,12.9183-9.8732,12.9183-8.3969,0-9.8733-3.7832-9.8733-13.0105v-11.35c0-9.0427,1.9378-12.6414,9.8733-12.6414,8.3968,0,9.8732,3.5063,9.8732,12.7337Z"/><path class="cls-1" d="M351.25,39.5735c-9.2273,0-13.5641,3.8755-13.5641,15.9632V67.2554c-.0923,12.5492,4.2446,16.1478,13.5641,16.1478,9.2273,0,13.5642-4.1522,13.5642-16.0555V55.8136C364.8137,43.1722,360.4768,39.5735,351.25,39.5735Zm9.8733,27.59c0,9.0428-2.03,12.9183-9.8733,12.9183-8.3968,0-9.8732-3.7832-9.8732-13.0105v-11.35c0-9.0427,1.9377-12.6414,9.8732-12.6414,8.3969,0,9.8733,3.5063,9.8733,12.7337Z"/><path class="cls-1" d="M263.7739,40.3117v42.63h3.6909V52.9531c0-4.89,2.5836-10.2423,10.2423-10.2423s9.8732,2.8605,9.8732,12.3646V82.85h3.691V55.0754c0-11.0728-3.045-15.5942-13.1028-15.5942-5.26,0-8.766,2.2146-10.796,5.3519l-.2768-4.5214Z"/><path class="cls-2" d="M74.215,40.903a37.4279,37.4279,0,1,0,40.9436,33.5457A37.428,37.428,0,0,0,74.215,40.903Zm26.46,48.9336c-.14,1.3516-.3057,2.704-.55,4.04a8.1244,8.1244,0,0,1-.6762,1.8512c-.8179,1.7947-1.6672,3.5751-2.5016,5.3622-.0383.0822-.0264.1977-.0806.2612-1.231,1.4436-2.1652,3.131-3.788,4.2582a8.0176,8.0176,0,0,0-1.4746,1.8914,5.9512,5.9512,0,0,1-.4243.5631c-.4635.4831-.4564.5557.166.9638a2.0955,2.0955,0,0,1-2.4942-.2432c-.116-.1132-.2536-.3462-.21-.4582.4211-1.0938.8784-2.1737,1.3255-3.2574a2.9137,2.9137,0,0,0,.2316-.575c.184-1.0654.3245-2.1385.5224-3.201.3692-1.9819.0747-2.5978-1.7978-3.1876a4.6319,4.6319,0,0,1-2.2868-1.7644,3.4088,3.4088,0,0,1-.8137-3.5513A8.7244,8.7244,0,0,1,87.03,89.95a3.3659,3.3659,0,0,0,.3922-2.0268c-.0239-.6019-.7724-.6208-1.38-.6419-.9072-.0315-2.1351-.1285-2.6425-.7086-1.89-2.1609-4.4385-2.3268-6.9422-2.8066a17.429,17.429,0,0,1-3.79-1.1367,3.624,3.624,0,0,1-1.3328-1.5848,25.428,25.428,0,0,0-3.7275-5.2583l-.2748.1439,1.8486,3.782-.2123.1871c-.2-.0825-.4567-.1122-.5908-.2561a9.367,9.367,0,0,1-1.72-2.8771c-.6257-1.49-.53-3.4815-2.4552-4.2514a.8072.8072,0,0,1-.38-.4731,10.47,10.47,0,0,1-.0778-7.3067c.3242-.7991.4252-1.6859.7-2.5086.27-.8089-.076-1.2407-.7583-1.5521a3.2779,3.2779,0,0,1-.4395-.314,1.7989,1.7989,0,0,0,.1757-2.6147c-.1209-.1377-.4637-.0806-.7659-.1221l.6465-.5392a10.01,10.01,0,0,0-.651-3.1167c-.4581-.78-1.4978-1.2185-2.32-1.8368a7.3735,7.3735,0,0,1-1.6417,1.2c-1.7809.6407-2.5772,2.3282-3.8916,3.4547a3.0913,3.0913,0,0,1-.9343.6922l1.6685-2.1513-.1776-.1854-.6164.1633c-.5453-.5716-.3506-2.04.5012-2.92.6882-.7114,1.5442-1.2607,2.277-2.07l-.7929.0793a1.8243,1.8243,0,0,1,1.8284-1.6921c.2316.0335.7234-.2235.7272-.3579.0356-1.2316,1.0264-1.4531,1.8515-1.8529a12.8778,12.8778,0,0,1,8.3277-.8468,3.733,3.733,0,0,0,1.8607-.2717,6.6936,6.6936,0,0,1,4.6529.2755,3.8918,3.8918,0,0,0,1.7693.1628l-.5335-.4577.6222-.5594-2.3745-.4414c.6083-.2108,1.0112-.3917,1.4335-.4887a3.6739,3.6739,0,0,1,3.0357.2232c.4221.2659,1.1585.0527,1.75.0231.3941-.02.7852-.1005,1.1476-.15-.0419.7475-.0754,1.3445-.12,2.1417l-1.8487.1626c1.21,1.1778,3.3178.85,3.8388-.5255.071-.1875-.0836-.4565-.1207-.69-.1074-.6772.2415-1.0816.9076-.9779.6994.1089,1.3871.2924,2.0814.4437-.3784.3053-.86.51-.9912.8495a2.74,2.74,0,0,0,.0663,1.189L88.06,47.7184l.8738-.8244c-.14-.1247-.18-.1913-.2314-.2018-.69-.1412-1.1509-.6624-.9648-1.2465.1867-.5857.8655-.5866,1.5289-.5459,1.891.1164,2.857,1.5828,4.1753,2.573,1.1967.8988,1.2806,2.4362,2.25,3.4423.1382.1436-.0634.6145-.1348,1.1281l-.762-.8873-.1991.1028a4.8683,4.8683,0,0,1,.3325.901,3.684,3.684,0,0,1-.0534.8661c-.2919-.0314-.6468.0307-.8617-.1145-.3939-.2662-.68-.6864-1.0572-.9841-.4666-.3685-.9833-.6731-1.4718-1.0146-.2173-.152-.4186-.3268-.7542-.5913.6006-.0347,1.0893.0856,1.3456-.1054.8141-.6072.8284-1.0066.0759-1.7243-.6038-.5756-1.3077-1.0463-2.0638-1.6392-.4673,1.9326-.4673,1.9326-1.9556,2.1517l1.9365,1.8152a10.3146,10.3146,0,0,1-2.0589-.2862c-.15-.0518-.082-.7386-.1306-1.3356a4.2866,4.2866,0,0,0-1.1811.4243,20.3562,20.3562,0,0,0-2.48,1.994,1.8284,1.8284,0,0,0,.4356,3.0894c.7349.4158,1.4506.8665,2.1635,1.32a2.3623,2.3623,0,0,1,1.1483,1.8646,4.7925,4.7925,0,0,0,.5877,1.2507c.2066-.3849.3339-.52.3488-.6664a3.5787,3.5787,0,0,1,1.3008-2.51.6459.6459,0,0,0-.0285-1.1349.7071.7071,0,0,1-.2267-.6009c.1931-.7554.4527-1.4937.7083-2.302,1.0293.0443,1.776.9387,2.6409,1.6105.1062.0826.0742.3278.1358.4861.162.4163.34.8263.5122,1.2387l1.0762-.526L97.5737,60.88l-3.609.1317c.5961.7157,1.2035,1.4574,1.8254,2.1867.3815.4473.4051.7332-.2251.9972a2.5494,2.5494,0,0,1-2.226.23c-.7355-.34-.9664.2736-1.2828.771a11.9557,11.9557,0,0,1-.9081.9553,18.3832,18.3832,0,0,0-1.4388,1.9225c-.2477.4034-.2524.9509-.4779,1.3742A8.8375,8.8375,0,0,1,88.15,71.03a14.2276,14.2276,0,0,1-1.1112.9309c-1.17,1.1063-1.223,1.7307-.49,3.1888a8.1653,8.1653,0,0,1,.4193,1.7577c-1.229-.1394-1.44-.9909-1.7738-1.6382a2.2494,2.2494,0,0,0-1.754-1.4187,2.0479,2.0479,0,0,0-1.3.0959c-1.0955.8344-2.3843.7774-3.62,1.01a1.7445,1.7445,0,0,0-.9308.57,6.1789,6.1789,0,0,0-1.6755,3.9231c-.0329,2.4371,1.7571,2.9381,3.5844,2.3424a1.329,1.329,0,0,0,.648-.7022,2.34,2.34,0,0,1,2.3954-1.3293,9.265,9.265,0,0,1-.8252,2.2972c-.512.73-.13.9585.3947,1.11a3.7945,3.7945,0,0,0,1.5069.1025c.6325-.0824.7535.2137.7306.7182a9.417,9.417,0,0,0-.0628,1.1679c.0771.952.524,1.302,1.495,1.17,1.4458-.197,2.9635-.1981,3.9092-1.648a1.7356,1.7356,0,0,1,2.2021-.5957c1.3108.5558,2.3592-.062,3.5249-.4592a2.2458,2.2458,0,0,0,2.3495,1.94c.3154-.0047.7258.6545.9453,1.0834.449.8773,1.0429,1.0857,2.0821.3826C100.7536,88.07,100.7659,88.9584,100.675,89.8366Z"/><circle class="cls-2" cx="77.914" cy="17.4764" r="5.9811"/><circle class="cls-2" cx="77.914" cy="138.819" r="5.9811"/><rect class="cls-1" x="323.3369" y="3.8851" width="3.6909" height="61.6367"/><text class="cls-3" transform="translate(159.1178 104.8402) scale(0.947 1)">THE WORLD’S DISEASE CONCE<tspan class="cls-4" x="155.5081" y="0">P</tspan><tspan x="161.8347" y="0">TS, UNIFIED</tspan></text></svg>