<?xml version="1.0" encoding="iso-8859-1"?>
<!-- Uploaded to: SVG Repo, www.svgrepo.com, Generator: SVG Repo Mixer Tools -->
<svg fill="#000000" height="800px" width="800px" version="1.1" id="Capa_1" xmlns="http://www.w3.org/2000/svg" xmlns:xlink="http://www.w3.org/1999/xlink" 
	 viewBox="0 0 612.001 612.001" xml:space="preserve">
<g>
	<g>
		<path d="M49.893,443.325c-0.948,1.185-1.71,2.069-2.076,2.343c-15.98,12.01-22.065,1.155-37.096,13.068
			c-2.432,1.927-5.852,12.863-8.728,23.611c-3.051,11.403-4.03,22.597,7.774,22.597h0.954h26.326h350.228h21.397h65.34
			c6.314,0,12.544-1.516,18.125-4.469c209.43-110.773,89.53-238.558,47.381-299.686c-32.105-46.56-13.294-93.732-13.294-93.732
			s-73.648,25.148,16.166,141.399c58.492,75.709,25.561,129.222-4.522,157.342c3.039-11.386,4.623-23.367,4.517-35.737
			c-0.632-73.954-61.864-132.955-135.819-132.55c-46.553,0.254-89.093,8.936-127.575,23.024c4.361,13.554,4.926,28.264,1.469,43.15
			c-4.661,20.072-16.239,38.161-32.599,50.935c-16.18,12.633-36.417,19.591-56.986,19.591h-64.054h-18.434
			C84.562,398.441,65.044,422.541,49.893,443.325z M120.612,407.733c11.543,0.604,20.411,10.452,19.807,21.995
			c-0.604,11.543-10.452,20.411-21.995,19.807s-20.411-10.452-19.807-21.995C99.221,415.997,109.069,407.129,120.612,407.733z"/>
		<path d="M133.414,350.262h57.461c31.426,0,59.147-21.383,66.257-51.995c2.436-10.488,2.048-20.151-0.436-28.786
			c-7.871-27.356-36.847-44.365-64.227-44.365c-13.197,0-26.016,3.947-35.929,12.589c-46.699,40.712-29.72,112.557-29.72,112.557
			H133.414z"/>
	</g>
</g>
</svg>