<svg
  id="Layer_1"
  data-name="Layer 1"
  xmlns="http://www.w3.org/2000/svg"
  viewBox="0 0 198.61 83.37"
>
  <defs>
    <style>
      .cls-1,
      .cls-6 {
        fill: #231f20;
      }
      .cls-2 {
        fill: #a9a8a9;
      }
      .cls-3 {
        fill: #40403f;
      }
      .cls-4,
      .cls-5 {
        fill: #f7f1da;
      }
      .cls-4 {
        opacity: 0.78;
      }
      .cls-5 {
        opacity: 0.37;
      }
      .cls-6 {
        font-weight: 300;
        font-size: 20.97px;
        font-family: Kelson-Light, Kelson;
      }
      .cls-7 {
        letter-spacing: -0.01em;
      }
      .cls-8 {
        letter-spacing: 0em;
      }
    </style>
  </defs>
  <polygon
    class="cls-1"
    points="69.23 23.62 69.16 59.13 38.61 76.57 38.49 41.26 69.23 23.62"
  />
  <polygon
    class="cls-2"
    points="38.49 41.26 7.8 23.53 38.62 5.85 69.23 23.62 38.49 41.26"
  />
  <polygon
    class="cls-3"
    points="38.61 76.57 38.49 41.26 7.8 23.53 7.8 58.96 38.61 76.57"
  />
  <path
    class="cls-4"
    d="M38.57,64.09l-15-8.71L23.46,69,18.1,65.91V29.22L38.68,17.37,59.26,29.22v23ZM23.69,49l14.89,8.62L53.74,49l.09-16.41L38.66,24l-15,8.61Z"
  />
  <polygon
    class="cls-5"
    points="38.66 24.04 23.64 32.66 23.71 48.95 38.58 57.62 53.74 48.98 53.78 32.59 38.66 24.04"
  />
  <text class="cls-6" transform="translate(73.01 46.27)">phenopackets</text>
</svg>
