<svg viewBox="0 0 100 100" xmlns="http://www.w3.org/2000/svg">
  <!-- S-shaped path (outlined, not stroked: site CSS overrides fill on SVG children) -->
  <path
    d="M22.0 23.0L24.8 23.1L27.5 23.3L29.9 23.6L32.1 24.0L34.1 24.5L35.9 25.2L37.5 25.9L38.9 26.7L40.1 27.6L41.1 28.5L42.1 29.6L42.8 30.7L43.5 32.0L44.1 33.4L44.5 35.0L44.8 36.7L45.0 38.6L45.0 40.9L45.2 43.6L45.6 46.2L46.3 48.7L47.3 51.1L48.5 53.3L50.0 55.3L51.8 57.2L53.7 58.8L55.9 60.2L58.3 61.5L60.8 62.5L63.4 63.3L66.3 64.0L69.2 64.5L72.4 64.8L75.7 65.0L73.0 60.7L72.9 62.7L72.6 64.5L72.2 66.1L71.7 67.6L71.1 68.9L70.3 70.0L69.5 71.1L68.5 72.1L67.3 73.0L66.0 73.8L64.5 74.6L62.7 75.3L60.8 75.8L58.7 76.3L56.3 76.7L53.8 76.9L51.0 77.0L48.1 77.0L45.4 76.8L42.9 76.5L40.6 76.2L38.5 75.7L36.7 75.0L35.0 74.4L33.6 73.6L32.3 72.7L31.2 71.8L30.2 70.8L29.4 69.7L28.7 68.4L28.1 67.1L27.6 65.6L27.3 63.9L27.1 62.0L27.0 60.0L17.0 60.0L17.1 62.8L17.4 65.5L18.0 68.1L18.8 70.6L19.8 72.9L21.0 75.1L22.6 77.2L24.3 79.0L26.3 80.7L28.4 82.1L30.7 83.4L33.2 84.4L35.8 85.3L38.6 86.0L41.5 86.5L44.6 86.8L47.8 87.0L51.1 87.0L54.4 86.9L57.5 86.6L60.5 86.1L63.3 85.5L66.0 84.7L68.5 83.7L70.9 82.6L73.1 81.2L75.1 79.6L76.9 77.8L78.5 75.8L79.8 73.7L80.9 71.4L81.8 68.9L82.4 66.4L82.8 63.7L83.0 60.9L76.0 55.0L73.2 54.8L70.6 54.6L68.2 54.2L66.0 53.7L64.1 53.1L62.4 52.4L61.0 51.6L59.7 50.8L58.6 49.9L57.7 48.9L57.0 47.9L56.3 46.7L55.8 45.5L55.4 44.0L55.1 42.4L55.0 40.6L55.0 38.1L54.7 35.4L54.2 32.8L53.5 30.2L52.6 27.8L51.4 25.6L50.0 23.5L48.3 21.6L46.4 19.8L44.3 18.3L42.1 17.0L39.7 15.9L37.1 15.0L34.4 14.3L31.5 13.7L28.5 13.3L25.3 13.1L22.0 13.0Z"
    fill="#0891b2"
  />
  <!-- Three nodes: hypothesis, analysis, discovery -->
  <circle cx="22" cy="18" r="10" fill="#06b6d4" />
  <circle cx="78" cy="60" r="10" fill="#06b6d4" />
  <circle cx="22" cy="60" r="10" fill="#0e7490" />
</svg>
