<svg id="Layer_1" data-name="Layer 1" xmlns="http://www.w3.org/2000/svg" viewBox="0 0 171.46 170.81"><defs><style>.cls-1{fill:#fff;stroke:#f4f4f4;stroke-miterlimit:10;}</style></defs><title>upheno-logo</title><path class="cls-1" d="M154.42,90.75a68.17,68.17,0,0,1-8.78,28.86A69,69,0,1,1,62.93,20.49,59.12,59.12,0,0,1,79.22,0,85.52,85.52,0,0,0,11.16,43.05c-23.31,41.18-8.91,93.65,32.11,117A85.7,85.7,0,0,0,170,69.87,59,59,0,0,1,154.42,90.75Z"/><path class="cls-1" d="M135.63,27.32l1.31,1.37a8.3,8.3,0,0,1,.72.85,25.19,25.19,0,0,1-17.85,39.94,8.68,8.68,0,0,1-1,0l-4.53-.11a8,8,0,0,0-2.13.22,9,9,0,0,0-3.84,2.07A8.37,8.37,0,0,0,108,83.5a8.62,8.62,0,0,0,5.94,2.67h0l5.77.06c.26,0,.53,0,.79,0A41.94,41.94,0,0,0,151,18.82l.18-.17-3.06-3.2a42,42,0,0,0-59.34-1.37l-.09.09A42.1,42.1,0,0,0,75.91,41.24v.52L74.7,109.5A8.37,8.37,0,0,0,83,118h0a8.36,8.36,0,0,0,8.48-8.18l1.49-67.11A6,6,0,0,1,93,42a24.7,24.7,0,0,1,42.67-14.67Z"/><path class="cls-1" d="M117.41,28.15a16.31,16.31,0,0,0-16.3,16.31V108c0,12.32-6.77,20-17.68,20.13C72.19,128,65.76,120.71,65.76,108V47.08a7.38,7.38,0,0,0-14.75,0V108c0,20.68,12.9,34.64,32.16,34.88h.52c19-.25,32.17-14.52,32.17-34.88V60.68c.51,0,1,.08,1.55.08a16.31,16.31,0,1,0,0-32.61Zm-.27,21.43a5.13,5.13,0,1,1,5.13-5.12A5.12,5.12,0,0,1,117.14,49.58Z"/></svg>