<svg id="Layer_1" data-name="Layer 1" xmlns="http://www.w3.org/2000/svg" viewBox="0 0 372 381.52"><defs><style>.cls-1{fill:#fff;}.cls-2{fill:#e0e0e0;}</style></defs><title>linkml-logo</title><path class="cls-1" d="M273.33,334.82A167.82,167.82,0,0,1,67.83,72.56,167.86,167.86,0,0,1,342.65,252.72,56.11,56.11,0,0,1,354.33,260a181.3,181.3,0,1,0-71.9,85.12A56,56,0,0,1,273.33,334.82Z"/><path class="cls-2" d="M320.47,272.36a29.37,29.37,0,0,0-7.9,1.08l-40.73-32.33V143.85l-31,36.47v75.75l50.67,40.21a30.38,30.38,0,0,0-.52,5.52,29.45,29.45,0,1,0,29.44-29.44Z"/><polygon class="cls-1" points="270.95 87.58 240 124.05 240 161.75 270.95 125.28 270.95 87.58"/><polygon class="cls-1" points="185.01 182.92 185 220.62 227.17 173.24 227.17 135.54 185.01 182.92"/><polygon class="cls-1" points="100.09 89.41 99.46 88.66 99.46 309.52 130.46 270.6 130.42 159.84 185 220.62 185 182.92 100.09 88.37 100.09 89.41"/></svg>