<?xml version="1.0" encoding="utf-8"?>
<!-- Generator: Adobe Illustrator 19.1.0, SVG Export Plug-In . SVG Version: 6.00 Build 0)  -->
<svg version="1.1" id="Layer_1" xmlns="http://www.w3.org/2000/svg" xmlns:xlink="http://www.w3.org/1999/xlink" x="0px" y="0px"
	 viewBox="-64.7 74 139.6 143.3" style="enable-background:new -64.7 74 139.6 143.3;" xml:space="preserve">
<style type="text/css">
	.st0{fill:#FFFFFF;}
</style>
<g>
	<path class="st0" d="M5.1,105.2c21.3,0,38.5,17.3,38.5,38.5c0,17.6-11.8,32.5-28,37.1c-0.1-0.1-0.1-0.3-0.2-0.4
		c-1.2-2.9-0.8-6.3,0.1-9.3c0.4-1.5,1.4-3.7,3.3-3.7c1.4,0,2.8,0.1,4.2,0.1c1.6,0,3.2-0.4,4.5-1.4c0.7-0.5,1.1-1.2,1.2-2
		c0.1-0.4,0-0.8-0.2-1.2c-0.3-0.8-0.3-1.5-0.1-2.3c0.1-0.5,0.5-1,0.9-1.3c0.3-0.2,0.3-0.5,0.2-0.8c-0.1-0.5-0.4-0.9-0.9-1.2
		c0,0-0.1,0-0.1-0.1c0,0,0,0,0-0.1c0.4-0.2,0.8-0.4,1-0.8c0.1-0.2,0.1-0.4,0.1-0.6c-0.1-0.2-0.2-0.3-0.2-0.5c-0.4-0.6-0.5-1.3-0.2-2
		c0.1-0.2,0.2-0.4,0.4-0.5c1-0.4,2.2-0.7,2-2.1c-0.1-0.8-0.5-1.6-0.9-2.3c-0.6-1.1-1.3-2.3-1.9-3.4c-0.3-0.5-0.5-1-0.7-1.5
		s-0.2-0.9-0.3-1.3c-1-11.7-10.8-20.9-22.7-20.9c-9.9,0-18.3,6.3-21.3,15.2c-0.9,2.4-1.4,5-1.4,7.8c0,5,1.7,10,4.8,13.9
		c1.4,1.8,3.5,3.1,4.8,5c1.3,1.9,1.5,4.2,1.6,6.4c0.2,3.9,0.3,7.8-0.8,11.5c-0.2-0.9-2.8-1.8-3.6-2.1c-1.5-0.7-3-1.5-4.5-2.4
		c-2.9-1.8-5.5-3.9-7.8-6.4c-4.7-5-8-11.1-9.5-17.7c-0.6-2.8-1-5.7-1-8.6C-33.4,122.5-16.2,105.2,5.1,105.2z"/>
	<path class="st0" d="M5.1,74c-38.5,0-69.8,31.3-69.8,69.8c0,25.6,13.9,48,34.5,60.2c1.9-4.3,4.5-8.1,7.7-11.4
		c-17-9.7-28.5-28-28.5-48.8c0-30.9,25.2-56.1,56.1-56.1s56.1,25.2,56.1,56.1c0,20.9-11.5,39.1-28.4,48.7c3.2,3.3,5.8,7.1,7.7,11.4
		c20.6-12.1,34.4-34.5,34.4-60.1C74.8,105.3,43.5,74,5.1,74z"/>
	<path class="st0" d="M8.4,197.3l0.2-42.5c3.9-1.4,6.7-5.2,6.7-9.6c0-5.6-4.6-10.2-10.2-10.2s-10.2,4.6-10.2,10.2
		c0,4.5,2.9,8.3,6.9,9.7l-0.2,42.6c-3.9,1.4-6.7,5.2-6.7,9.6c0,5.6,4.6,10.2,10.2,10.2s10.2-4.6,10.2-10.2
		C15.3,202.4,12.4,198.6,8.4,197.3z"/>
</g>
</svg>
