<?xml version="1.0" encoding="UTF-8" standalone="no"?>
<!-- Created with Inkscape (http://www.inkscape.org/) -->

<svg
  version="1.1"
  id="svg1"
  width="1024"
  height="1024"
  viewBox="0 0 1024 1024"
  sodipodi:docname="phenio_logo_1.svg"
  inkscape:version="1.3.1 (91b66b0783, 2023-11-16)"
  xmlns:inkscape="http://www.inkscape.org/namespaces/inkscape"
  xmlns:sodipodi="http://sodipodi.sourceforge.net/DTD/sodipodi-0.dtd"
  xmlns="http://www.w3.org/2000/svg"
  xmlns:svg="http://www.w3.org/2000/svg"
  xmlns:rdf="http://www.w3.org/1999/02/22-rdf-syntax-ns#"
  xmlns:cc="http://creativecommons.org/ns#"
  xmlns:dc="http://purl.org/dc/elements/1.1/"
>
  <title id="title3">PHENIO</title>
  <defs id="defs1">
    <rect
      x="190.18942"
      y="890.48954"
      width="628.50677"
      height="129.73186"
      id="rect1"
    />
  </defs>
  <sodipodi:namedview
    id="namedview1"
    pagecolor="#ffffff"
    bordercolor="#000000"
    borderopacity="0.25"
    inkscape:showpageshadow="2"
    inkscape:pageopacity="0.0"
    inkscape:pagecheckerboard="0"
    inkscape:deskcolor="#d1d1d1"
    inkscape:zoom="0.79394531"
    inkscape:cx="511.37023"
    inkscape:cy="512"
    inkscape:window-width="1920"
    inkscape:window-height="1009"
    inkscape:window-x="1912"
    inkscape:window-y="-8"
    inkscape:window-maximized="1"
    inkscape:current-layer="g1"
  />
  <g inkscape:groupmode="layer" inkscape:label="Image" id="g1">
    <path
      style="fill: #000000"
      d="m 504.10833,871.9184 c -15.73857,-3.09088 -29.43509,-16.20042 -33.7134,-32.26859 -5.15609,-19.36483 4.72039,-41.06608 22.80782,-50.11485 3.88628,-1.94423 7.67073,-3.53496 8.40989,-3.53496 1.1083,0 1.39157,-11.14867 1.61564,-63.58696 l 0.27172,-63.58695 2.80576,-2.41305 c 4.06854,-3.49906 9.67435,-3.296 13.92846,0.50454 l 3.26578,2.91758 0.27167,62.89267 0.27168,62.89267 4.90798,1.76489 c 10.08561,3.62673 18.38059,11.45197 24.09717,22.73255 13.13587,25.92115 -4.04497,57.58798 -33.5485,61.83483 -8.01328,1.15347 -9.35854,1.15046 -15.39167,-0.0344 z M 417.5,818.80502 c -3.18857,-1.84911 -4.43409,-4.04586 -4.4682,-7.88071 -0.0537,-6.04247 6.17172,-9.70212 12.4234,-7.30313 1.938,0.74368 4.5448,5.48912 4.5448,8.2734 0,4.9242 -8.15289,9.4314 -12.5,6.91044 z m 182.57673,-1.39391 C 594.05301,812.34248 597.16702,803 604.88019,803 c 4.4053,0 6.60715,1.34812 8.10398,4.96178 1.76231,4.25461 -0.21799,8.82014 -4.62432,10.66123 -4.39231,1.83522 -4.71855,1.78748 -8.28312,-1.2119 z M 318,806.62959 c -12.54697,-2.74391 -24.5611,-12.26921 -30.32684,-24.04438 -8.07782,-16.49707 -4.44752,-37.94128 8.63842,-51.02723 15.48667,-15.48666 38.57056,-17.72016 56.96195,-5.51139 l 5.77354,3.83265 21.65105,-10.46358 c 25.60921,-12.37648 35.19587,-18.51866 47.98134,-30.74164 22.81169,-21.80812 36.50456,-47.18548 41.84637,-77.55501 C 471.65447,604.70242 472,593.6927 472,564.14679 c 0,-38.17501 -0.0209,-38.56996 -1.93547,-36.61901 -1.06451,1.08472 -9.67742,14.34722 -19.13981,29.47222 -9.46238,15.125 -19.12313,29.975 -21.46832,33 -13.97595,18.02722 -27.9126,27.32086 -54.01403,36.0192 -15.53657,5.17759 -17.82763,7.12785 -34.96348,29.76243 L 327.822,672.5 l 16.20326,0.27532 c 19.4034,0.32969 20.58568,-0.1081 25.95686,-9.6118 4.16439,-7.36842 8.4541,-10.49907 14.37601,-10.49169 7.8758,0.01 13.67727,5.53842 13.61991,12.9793 -0.0584,7.57523 -8.23193,17.7004 -18.24748,22.60454 C 368.51494,693.74742 366.00753,694 322.70587,694 h -39.87393 l 3.32384,-4.25 C 287.98389,687.4125 294.88654,678.975 301.495,671 314.07317,655.82086 333,631.52776 333,630.56248 333,630.25312 322.03282,630 308.62849,630 h -24.37152 l -0.45937,7.93533 c -0.37045,6.39937 -1.10866,9.25436 -3.81385,14.75 -4.38439,8.90693 -11.99237,16.47675 -20.70992,20.60606 -6.34711,3.00648 -7.46677,3.20861 -17.77383,3.20861 -10.32061,0 -11.42092,-0.19936 -17.81505,-3.2279 -8.48951,-4.021 -16.37856,-11.87301 -20.6534,-20.55644 -10.74371,-21.82358 -1.70357,-48.87041 19.7277,-59.02253 6.41733,-3.03992 7.31752,-3.19313 18.76178,-3.19313 11.55468,0 12.27852,0.12677 18.65868,3.2677 4.49326,2.21203 8.45429,5.2299 12.26081,9.3414 l 5.62316,6.07368 42.21816,-0.4266 c 39.4336,-0.39846 42.7399,-0.56938 50.12849,-2.59148 20.38975,-5.58024 34.89668,-16.25149 47.33603,-34.82025 C 421.00509,566.48 433.48428,546.75 445.4779,527.5 469.12075,489.55274 472.46866,484.79651 482.41228,475.02889 486.03553,471.46978 489,468.27951 489,467.9394 c 0,-0.3401 -1.06636,-1.10423 -2.36968,-1.69807 -7.07117,-3.22184 -19.95361,-2.13815 -28.98464,2.43822 -9.21773,4.67098 -15.06195,11.35886 -21.77003,24.91273 -9.73243,19.66466 -20.64357,30.87887 -38.37565,39.44161 -14.15771,6.83669 -21.75608,8.46225 -39.5,8.45047 -17.73798,-0.0118 -24.37565,-1.32952 -37.61883,-7.46828 -20.17106,-9.35011 -34.96,-23.95538 -45.42207,-44.85796 C 271.2768,481.80111 266,464.55181 266,459.87178 266,458.45526 265.26426,458 262.97507,458 c -2.36014,0 -4.28313,1.2738 -8.75,5.79604 -6.35077,6.42949 -11.1708,8.47607 -19.80706,8.41005 -6.47076,-0.0495 -11.89714,-2.31843 -16.75274,-7.00492 -5.00189,-4.82767 -7.48045,-9.77728 -8.27304,-16.52101 -1.67671,-14.26618 6.30314,-26.16073 19.80059,-29.51421 6.17439,-1.53405 8.40969,-1.47316 14.72065,0.40099 5.43248,1.61328 14.08653,8.40824 14.08653,11.06042 0,0.75495 0.7875,1.37878 1.75,1.38629 0.9625,0.008 2.70576,0.27016 3.87391,0.58366 1.89135,0.50759 2.19999,0.0407 2.81874,-4.26365 1.96728,-13.68562 8.62752,-30.04508 16.4206,-40.33366 19.27187,-25.44313 45.51887,-39 75.50662,-39 16.88437,0 31.1194,3.62763 45.25499,11.5327 14.86745,8.31435 24.27768,18.75154 33.27089,36.90184 8.78804,17.73621 15.94306,24.16548 30.24506,27.17725 8.12095,1.71014 15.89598,1.22044 19.67747,-1.23936 l 2.31828,-1.50801 -7.49759,-7.68221 C 469.19452,401.43131 466.0516,396.92487 440.01486,354.5 410.674,306.6913 404.93377,299.87248 386.53291,290.96876 c -17.28686,-8.36468 -16.31801,-8.23551 -65.28813,-8.70427 l -43.25522,-0.41405 -6.12281,6.12281 c -11.3802,11.3802 -24.55893,15.58938 -39.21114,12.52374 -8.76437,-1.83374 -15.16875,-5.31077 -21.46035,-11.65114 -21.3138,-21.479 -15.30961,-58.42254 11.56399,-71.15272 6.41733,-3.03992 7.31752,-3.19313 18.76178,-3.19313 11.55948,0 12.27637,0.12571 18.67169,3.27411 8.1105,3.99279 15.38583,11.59309 19.92657,20.81663 2.54567,5.171 3.3132,8.16678 3.66957,14.32299 l 0.45063,7.78437 15.03925,0.65095 C 321.30971,262.30262 333,262.17099 333,260.96934 333,258.99218 307.35563,225.91298 291.16073,207 l -8.13471,-9.5 40.23699,-0.2652 c 43.1218,-0.28421 46.49923,-0.005 56.30198,4.64694 9.54272,4.52899 18.35387,15.76583 18.41305,23.48211 0.0379,4.93861 -3.8081,10.40583 -8.61018,12.23977 -8.13024,3.10496 -13.93745,0.13828 -19.58327,-10.00434 -5.41635,-9.73041 -6.17224,-10.04009 -25.52068,-10.45543 l -16.59096,-0.35615 4.85768,6.85615 c 11.20479,15.81448 22.58247,30.30377 26.02277,33.13956 2.02481,1.66901 5.54112,3.70227 7.81403,4.51835 2.27291,0.81609 9.42026,3.38118 15.88299,5.70022 16.86745,6.05259 27.26204,12.49878 38.74958,24.03051 8.75404,8.78772 10.99192,11.95521 28.5,40.33902 10.45,16.94136 19.77253,31.77583 20.71673,32.96548 1.62987,2.05357 1.71825,0.13912 1.74681,-37.83699 0.033,-43.84284 -0.49717,-49.77227 -5.93879,-66.42425 -8.04088,-24.60607 -24.87076,-48.475 -45.80727,-64.96609 -10.53359,-8.29701 -15.86387,-11.42217 -40.56606,-23.78404 l -20.84858,-10.43338 -5.15142,3.54439 c -8.20153,5.64298 -15.67208,7.89613 -26.15142,7.88735 -13.8468,-0.0116 -24.7053,-4.89671 -33.34115,-14.99979 -11.90486,-13.9275 -14.2146,-31.92315 -6.27499,-48.88971 10.23263,-21.86662 38.63757,-30.93039 61.04077,-19.47758 13.63549,6.97064 24.33248,26.57391 22.76867,41.7258 l -0.54944,5.32359 5.17807,2.19944 c 10.80137,4.58799 38.60913,18.76241 45.74302,23.31653 33.57535,21.43377 57.81793,51.79897 70.23856,87.97774 8.37658,24.39927 9.69259,36.17299 9.70836,86.85595 0.009,28.65736 0.34454,39.38759 1.34948,43.14405 1.49672,5.59472 5.43278,13.78925 8.35935,17.40341 l 1.93071,2.38432 3.1336,-5.09274 c 1.72347,-2.80101 4.12821,-7.92825 5.34386,-11.39387 2.11516,-6.02997 2.24105,-8.34512 2.92544,-53.80112 0.68815,-45.7062 0.80956,-47.91541 3.21486,-58.5 3.56727,-15.69784 6.9377,-25.05653 14.76572,-41 11.29469,-23.00412 28.87443,-43.9629 50.63282,-60.36509 C 604.59576,160.89699 625.45884,149.257 644,141.05336 l 11.5,-5.08824 0.0847,-9.23256 c 0.13219,-14.41795 5.62432,-26.05051 15.99675,-33.88177 7.13949,-5.39036 14.32063,-7.96762 23.9186,-8.5842 16.84299,-1.082 30.95672,5.6751 39.85508,19.08104 12.28428,18.50705 9.61295,42.20831 -6.43142,57.06256 -15.80462,14.6323 -39.13722,16.41219 -55.70615,4.24947 l -4.73293,-3.47428 -21.99229,10.81288 C 634.39653,177.94534 620.45,185.51192 615.5,188.81287 587.69651,207.3539 566.32024,237.13213 558.2967,268.5 c -2.2842,8.93 -2.59947,12.40749 -2.94651,32.5 -0.78733,45.58367 -0.83283,65.80087 -0.14714,65.37581 0.61994,-0.38429 10.12266,-15.52197 31.62355,-50.37581 8.27945,-13.42134 13.37558,-20.01264 21.30621,-27.55733 11.11027,-10.5696 22.58163,-16.99953 41.62439,-23.33132 12.52266,-4.16383 15.87065,-6.0447 21.86215,-12.28199 C 677.41613,246.7948 698,219.44856 698,217.78196 c 0,-1.72782 -31.09066,-0.30356 -34.75664,1.5922 -1.7762,0.9185 -4.13177,3.81547 -6.09034,7.49012 -3.97028,7.44901 -7.88048,10.82235 -13.52606,11.66895 -10.86,1.62856 -17.75393,-9.07814 -13.08085,-20.31535 2.06898,-4.97522 9.85092,-12.81746 15.68709,-15.80865 C 656.19641,197.30281 659.35801,197 702.7101,197 725.15562,197 743,197.38867 743,197.87756 c 0,0.48265 -0.75442,1.49515 -1.67649,2.25 -2.22623,1.82247 -23.12511,27.03694 -31.80482,38.37244 -3.79026,4.95 -9.34436,12.05067 -12.34244,15.77926 -2.99808,3.7286 -5.27672,6.94269 -5.06365,7.14242 0.21307,0.19974 11.5249,0.12118 25.1374,-0.17457 l 24.75,-0.53773 0.0119,-4.60469 c 0.0337,-13.08038 7.70516,-27.68581 18.41058,-35.05133 7.56356,-5.20387 15.73391,-7.30829 26.68973,-6.87441 8.68997,0.34415 10.3387,0.73973 17.18468,4.1232 9.01386,4.4549 14.21064,9.89903 19.32255,20.24228 4.21191,8.52222 5.51094,19.51068 3.37697,28.56566 -4.19435,17.79775 -19.18106,31.58673 -36.72456,33.78957 -14.36911,1.80425 -25.67064,-2.15933 -35.82139,-12.56296 l -6.1827,-6.3367 -39.88388,0.0131 c -45.81639,0.0151 -52.22547,0.76352 -66.80344,7.80113 -17.89526,8.63904 -24.19861,15.54086 -45.52225,49.84436 -8.493,13.66276 -19.91664,32.04137 -25.38587,40.84137 -11.51598,18.52924 -16.03961,24.62673 -25.56401,34.45827 -6.73372,6.95087 -6.85218,7.16196 -4.757,8.47666 5.69419,3.57303 19.80267,2.56328 29.14869,-2.08619 8.67449,-4.31538 14.92169,-11.73334 20.50586,-24.34874 10.67961,-24.12667 31.89872,-40.50462 60.30952,-46.54983 8.96409,-1.90737 26.83811,-1.84899 36.36466,0.11877 26.53554,5.48107 49.27658,22.56384 63.14145,47.43106 3.7125,6.65852 8.86301,21.73387 9.9466,29.11336 l 0.79096,5.38664 3.47048,-0.33845 c 1.90876,-0.18614 3.65022,-0.86114 3.86991,-1.5 1.17232,-3.40909 8.96708,-9.54443 14.0398,-11.05086 6.74952,-2.0044 9.84544,-2.01986 16.50982,-0.0825 14.44251,4.19856 22.19106,20.43234 17.01014,35.63751 -1.72911,5.07467 -7.90789,11.87025 -12.98219,14.27817 -7.64079,3.62579 -17.48409,3.67229 -24.36295,0.11509 C 775.22406,468.0645 768,460.39409 768,458.82 c 0,-0.451 -1.56643,-0.82 -3.48095,-0.82 -2.81174,0 -3.56624,0.43256 -3.92462,2.25 -5.69769,28.8945 -17.28434,48.62289 -37.40738,63.69288 -17.13603,12.83305 -37.37389,18.8818 -59.44817,17.76805 -14.13137,-0.71299 -21.62379,-2.62156 -34.23888,-8.72179 -18.06963,-8.73787 -29.58781,-20.40973 -38.90358,-39.42269 -6.25904,-12.77432 -12.0206,-19.84666 -19.47242,-23.90244 -6.42468,-3.49675 -18.17916,-6.02058 -24.00432,-5.15401 -4.61954,0.68722 -9.11968,2.38376 -9.11968,3.43811 0,0.34489 2.2875,2.86016 5.08332,5.58948 8.89793,8.68628 16.42428,18.8469 29.01476,39.17013 38.59585,62.30043 43.35965,69.20058 53.70219,77.78531 7.86377,6.52725 19.98621,12.83347 30.19973,15.71021 6.97677,1.96508 10.44461,2.13881 49.70853,2.49028 l 42.20852,0.37783 6.79148,-6.8859 C 764.29563,592.46504 769.47356,590.5 785.5,590.5 c 11.16554,0 12.37534,0.19352 17.39759,2.78286 11.73918,6.05243 19.25363,14.99167 23.11717,27.50035 6.21944,20.13622 -3.57042,42.45144 -22.79128,51.95091 -7.42376,3.66901 -7.90458,3.76588 -18.69264,3.76588 -10.43768,0 -11.44603,-0.1837 -17.57734,-3.20213 -13.69907,-6.74403 -23.55411,-20.9778 -24.66141,-35.61879 L 741.71132,630 h -23.93899 c -14.78235,0 -23.8115,0.36549 -23.60566,0.95552 0.66697,1.91192 21.02122,27.97354 35.17996,45.04448 l 14.5146,17.5 -38.18062,0.28527 C 681.04669,693.96932 665.19377,693.67813 661,692.96455 644.47022,690.15197 629,677.11612 629,666 c 0,-5.51569 2.87593,-10.05758 7.72732,-12.20358 7.77925,-3.44113 15.35055,-0.12416 19.80281,8.67559 5.03634,9.95416 5.09969,9.98085 24.54762,10.34384 9.30724,0.17372 16.92225,-0.0117 16.92225,-0.4121 0,-0.90662 -11.96237,-16.98541 -21.342,-28.68609 -8.66245,-10.80603 -12.78606,-13.60196 -27.00182,-18.30805 -20.75883,-6.87214 -34.36729,-15.30372 -46.65973,-28.90961 -6.81135,-7.53914 -11.1979,-14.01849 -32.49623,-48 -7.58383,-12.1 -14.20398,-22.45 -14.71144,-23 -0.56422,-0.61151 -0.76767,16.09345 -0.52372,43 0.37134,40.95509 0.54599,44.55362 2.52376,52 6.70742,25.25361 18.71785,46.01236 37.67714,65.1209 14.78485,14.90124 23.60207,20.5282 59.33688,37.86756 l 13.30284,6.45484 5.69716,-3.86515 c 22.98858,-15.59624 53.36241,-6.95276 65.4821,18.63425 3.04282,6.42396 3.21506,7.40647 3.21506,18.33946 0,11.36637 -0.0612,11.6757 -3.81147,19.26386 -4.61719,9.34225 -11.33599,16.3526 -19.65823,20.51127 -19.63602,9.81224 -42.15406,4.87774 -54.54374,-11.95245 -6.48483,-8.80902 -8.82508,-15.63329 -8.91323,-25.99137 l -0.0733,-8.61684 -24,-12.06147 c -25.13686,-12.63281 -34.32049,-18.40353 -48.06501,-30.20259 -30.41203,-26.1074 -52.9385,-68.6103 -57.35264,-108.21286 -0.59529,-5.34082 -1.09126,-26.26582 -1.10216,-46.5 -0.0109,-20.23417 -0.46799,-39.88994 -1.01577,-43.67948 -0.97072,-6.71545 -5.06644,-16.72322 -8.78449,-21.46462 l -1.84647,-2.3547 -3.70077,5.57545 c -7.18163,10.81958 -6.97234,9.18334 -7.69166,60.13394 -0.69327,49.10575 -1.06808,53.37112 -6.41436,72.9955 -11.01983,40.45014 -36.99088,75.80239 -73.12224,99.53528 -7.0174,4.60937 -29.64177,16.15402 -45.61595,23.27666 l -5.71153,2.54668 0.57597,4.86317 c 1.33104,11.23855 -3.83064,24.59323 -13.10058,33.89478 -6.95759,6.98132 -11.83582,9.77084 -20.77086,11.87741 -7.40676,1.74626 -12.27926,1.78077 -19.78148,0.14011 z M 684.21718,509.43955 c 18.55373,-4.48285 35.98492,-20.43674 43.1541,-39.49678 11.99811,-31.89826 -1.75326,-69.10527 -30.87128,-83.52825 -9.98975,-4.94821 -16.42297,-6.39078 -28.5,-6.39078 -11.83135,0 -18.41053,1.42691 -27.72747,6.01363 -10.61131,5.22393 -17.12435,12.17632 -24.21128,25.8445 -8.8937,17.1528 -13.11338,21.41337 -29.91936,30.20931 l -6.35812,3.32772 3.35812,1.48691 c 11.50205,5.0929 14.9483,7.21521 20.4523,12.59518 4.79755,4.68944 7.36086,8.43664 11.72842,17.14531 3.68782,7.35329 7.43431,13.13596 11.01339,16.99902 14.09663,15.21512 35.78442,21.13314 57.88118,15.79423 z m -25.91734,-30.24099 c -12.55914,-4.48609 -20.69563,-14.06892 -23.13092,-27.24262 -3.2091,-17.35959 7.19875,-35.34306 23.27191,-40.21098 5.60562,-1.69772 18.11918,-1.35565 23.48377,0.64195 9.8337,3.66175 18.67063,13.58888 21.09588,23.69846 1.91308,7.97461 0.83587,18.69338 -2.55147,25.38834 -7.64831,15.11662 -26.86185,23.1926 -42.16917,17.72485 z M 373.5399,509.47838 c 17.32713,-4.42363 28.87451,-14.27258 37.49299,-31.97838 7.63821,-15.69192 16.77671,-24.43501 31.77587,-30.40098 l 4.30876,-1.71383 -8.35894,-4.14202 c -12.74064,-6.31323 -20.34785,-13.83657 -26.79542,-26.5 -7.35397,-14.44366 -11.58792,-19.72553 -20.50399,-25.57884 -11.06297,-7.26273 -20.21082,-9.53407 -35.9455,-8.92499 -14.21838,0.55038 -21.2017,2.74048 -32.33211,10.13996 -11.61678,7.72282 -19.92329,18.65447 -24.91278,32.7861 -3.45556,9.78708 -4.27701,26.20519 -1.85566,37.08868 1.91252,8.59641 6.97256,19.71229 12.07198,26.51968 7.69807,10.27641 21.19007,19.39197 33.5149,22.64358 7.37088,1.94462 24.03568,1.97688 31.5399,0.061 z M 347.5,479.60118 c -6.54082,-2.06859 -9.80611,-4.15194 -14.68869,-9.37182 -5.74489,-6.14175 -8.3141,-11.08801 -9.72568,-18.72396 -2.65122,-14.34179 4.50232,-30.19372 16.55557,-36.68637 14.19838,-7.64816 30.75929,-5.61127 41.39313,5.09109 8.22905,8.28208 10.36045,13.41494 10.41846,25.08988 0.0419,8.43264 -0.2792,10.20687 -2.85797,15.79148 -4.04715,8.76455 -11.54312,15.49445 -20.25547,18.18543 -7.36871,2.27596 -14.90308,2.50166 -20.83935,0.62427 z m 162,-244.54654 c -1.1,-0.45022 -2.9,-1.81872 -4,-3.04112 -1.94891,-2.16576 -2.00694,-3.82909 -2.27187,-65.11802 -0.2114,-48.90415 -0.54508,-62.89568 -1.5,-62.89629 -3.14522,-0.002 -14.33144,-6.45657 -19.24751,-11.10598 C 473.02153,83.94721 468.24413,71.13079 469.28758,57.5 c 2.10166,-27.454216 27.19752,-45.264894 55.04893,-39.068544 16.74063,3.724438 29.51448,17.559754 32.70719,35.425074 3.46705,19.40043 -7.041,38.95312 -25.36106,47.19018 l -7.68046,3.45329 -10e-4,61.38197 c -10e-4,60.26348 -0.0387,61.4428 -2.0644,64.72047 -1.38673,2.24377 -3.27224,3.67428 -5.75,4.36246 -4.22906,1.17459 -4.04228,1.17208 -6.68669,0.0897 z M 419,86.31457 c -9.39635,-3.56516 -7.19289,-16.88649 2.74657,-16.60475 7.14501,0.20254 10.73745,8.39863 6.00343,13.69677 -2.33901,2.61772 -6.16432,3.88903 -8.75,2.90798 z M 601.31537,85.99302 C 598.49748,84.85767 597,81.9938 597,77.74006 c 0,-7.48356 9.80179,-10.99696 14.7219,-5.27698 3.71084,4.3141 2.49078,10.34134 -2.62928,12.98902 -3.34592,1.73025 -4.6076,1.818 -7.77725,0.54092 z"
      id="path1"
    />
    <text
      xml:space="preserve"
      id="text1"
      style="
        font-size: 114.667px;
        line-height: normal;
        font-family: &quot;Franklin Gothic Medium&quot;;
        -inkscape-font-specification: &quot;Franklin Gothic Medium, &quot;;
        text-decoration-color: #000000;
        letter-spacing: 40px;
        white-space: pre;
        shape-inside: url(#rect1);
        fill: #c3c3c3;
        stroke-width: 0.79375;
        -inkscape-stroke: none;
      "
      x="195.09375"
      y="0"
      transform="translate(8,-14)"
    >
      <tspan x="213.12542" y="995.02245" id="tspan3">
        <tspan
          style="text-align: center; text-anchor: middle; fill: #000000"
          id="tspan2"
        >
          PHENIO
        </tspan>
      </tspan>
    </text>
    <path
      style="
        fill: #000000;
        fill-opacity: 1;
        stroke-width: 0.79375;
        -inkscape-stroke: none;
      "
      d="M 827.51292,0 V 1022.7405"
      id="path2"
    />
  </g>
  <metadata id="metadata3">
    <rdf:RDF>
      <cc:Work rdf:about="">
        <dc:title>PHENIO</dc:title>
      </cc:Work>
    </rdf:RDF>
  </metadata>
</svg>
