<?xml version="1.0" encoding="UTF-8"?><svg id="Layer_1" xmlns="http://www.w3.org/2000/svg" viewBox="0 0 184.71 171.7"><defs><style>.cls-1{fill:#fff;}</style></defs><g id="XoIyDF.tif"><path class="cls-1" d="m85.14,166.06c-.11,0-.23,0-.35-.02-.56-.06-1.11-.12-1.67-.17-.88-.09-1.79-.18-2.69-.3-1.7-.23-2.1-1.31-2.15-2.17-.04-.86-.11-1.72-.17-2.58-.09-1.23-.18-2.5-.22-3.76-.03-.86-.28-1.06-.86-1.19-1.25-.29-2.52-.62-3.74-.93l-.92-.24c-.63-.16-.97.05-1.45.88-.76,1.31-1.58,2.61-2.36,3.87-.25.4-.5.79-.74,1.19-.65,1.05-1.68,1.4-2.82.96-1.03-.4-2.06-.82-3.06-1.22l-1.19-.48c-1.01-.41-1.5-1.22-1.32-2.23.08-.46.16-.93.23-1.4.23-1.43.47-2.92.85-4.36.41-1.59.34-1.78-.98-2.43-.99-.49-2.05-1.07-3.23-1.76-1.07-.63-1.09-.64-2.01.31-1.14,1.17-2.34,2.32-3.49,3.44l-.53.51c-1.06,1.02-2.27,1.11-3.42.25-.53-.4-1.09-.79-1.63-1.17-.6-.43-1.23-.87-1.83-1.32-1.08-.82-1.27-1.93-.58-3.38.82-1.73,1.7-3.57,2.66-5.34.32-.6.19-.8-.05-1.03-1.03-.99-2.08-1.97-3.12-2.94l-.81-.76c-.26-.25-.46-.31-.96-.03-1.31.75-2.65,1.47-3.95,2.18-.66.36-1.32.71-1.98,1.07-.73.4-1.81.62-2.79-.61-.99-1.25-2-2.45-2.76-3.36-.84-.99-.87-2.04-.09-2.97,1.37-1.63,2.77-3.27,3.98-4.67q.84-.98.12-2.02c-.65-.94-1.25-1.93-1.84-2.89l-.24-.39c-.65-1.05-.77-1.1-1.93-.77-1.12.32-2.24.64-3.36.96l-1.93.55c-1.71.49-2.51.16-3.28-1.35-.72-1.41-1.34-2.88-1.94-4.31-.27-.64-.33-1.6.93-2.53,1.44-1.06,3.13-2.29,4.89-3.41.8-.51.95-.89.67-1.66-.35-.95-.65-1.93-.93-2.87-.17-.57-.35-1.14-.53-1.7-.14-.43-.38-.68-1.17-.65-1.44.05-2.91.07-4.33.09-.57,0-1.14.01-1.71.02-.02,0-.04,0-.06,0-1.41,0-2.32-.78-2.56-2.2-.11-.62-.22-1.24-.34-1.86-.15-.8-.31-1.62-.44-2.44-.17-1.09.36-1.96,1.47-2.37.7-.26,1.4-.53,2.1-.8,1.16-.44,2.35-.9,3.54-1.32,1.02-.36,1.08-.44,1.03-1.41-.03-.69-.07-1.38-.1-2.07-.05-.87-.09-1.74-.12-2.61-.02-.63-.25-.8-.68-.89-1.08-.24-2.15-.5-3.22-.76-.55-.13-1.09-.26-1.64-.4-.08-.02-.15-.03-.23-.04-.17-.02-.36-.05-.55-.12l-.43-.16c-1.89-.69-2.13-.89-2.1-2.82v-.41c.01-.64.05-1.29.09-1.91.03-.54.07-1.09.08-1.64.03-1.38.8-2.24,2.17-2.42,1.89-.25,3.74-.48,5.61-.64q1.49-.13,1.76-1.51c.12-.59.22-1.19.33-1.79.14-.79.28-1.61.45-2.42.12-.56,0-.84-.52-1.11l-.29-.15c-1.66-.87-3.37-1.77-5.04-2.69-1.53-.84-1.9-1.82-1.32-3.49.11-.33.23-.66.35-.99.33-.92.67-1.88.96-2.83.32-1.03,1.09-1.58,2.11-1.5,1.37.11,2.76.27,4.1.43l1.19.14c.17.02.31.07.42.11.05.02.09.03.14.04,1.6.35,1.78.25,2.42-1.33.43-1.05.96-2.17,1.68-3.52.28-.52.23-.82-.18-1.19-.51-.46-1.03-.92-1.54-1.38-1.01-.9-2.02-1.81-3.01-2.73-1.24-1.14-1.38-2.19-.46-3.63.26-.41.53-.82.8-1.23.44-.68.9-1.39,1.33-2.09.65-1.07,1.63-1.46,2.68-1.06,2.14.81,4.04,1.57,5.8,2.35,1.08.48,1.17.45,1.88-.47.84-1.09,1.79-2.26,2.91-3.57.31-.36.39-.64,0-1.22-1.28-1.9-2.4-3.61-3.42-5.23-.78-1.24-.65-2.19.45-3.26.96-.93,1.93-1.85,2.88-2.73,1.14-1.05,2.06-1.12,3.3-.25,1.5,1.05,2.97,2.18,4.39,3.27l.38.29q.91.7,1.81.04c1.23-.89,2.47-1.79,3.7-2.68.37-.27.67-.62.16-1.89-.51-1.28-1.1-2.79-1.62-4.31-.17-.51-.37-1.28-.32-2.08.04-.56.37-1.34.92-1.68,1.47-.91,2.99-1.75,4.5-2.49.58-.29,1.58-.13,2.01.32.94.97,1.82,2.01,2.67,3.02l.57.67c.21.24.4.5.6.75.35.46.68.9,1.08,1.24.15.13.63.22.87.14.71-.24,1.41-.54,2.1-.83.73-.31,1.48-.62,2.25-.88.75-.25.94-.56.87-1.37-.19-2.12-.33-4.19-.42-6.15-.07-1.52.47-2.23,1.99-2.63.78-.2,1.56-.39,2.34-.58.5-.12,1-.24,1.5-.37,1.42-.35,2.52.17,3.11,1.46.23.52.47,1.03.71,1.55.62,1.35,1.26,2.75,1.84,4.15.2.49.41.56.79.51,1.76-.2,3.65-.43,5.56-.71.06-.02.22-.15.25-.23.18-.43.27-.92.37-1.44l.03-.14c.16-.85.32-1.7.47-2.54.18-.99.36-1.98.55-2.97.2-1.05.98-1.65,2.13-1.65,1.56,0,3.13,0,4.69,0,1.13,0,1.9.62,2.1,1.68.31,1.62.61,3.27.9,4.87l.08.46c.03.18.05.36.07.54.02.16.03.32.07.48.15.79.41,1.04,1.12,1.08,1.15.06,2.3.23,3.42.39.43.06.85.12,1.28.18.65.09.87-.04,1.1-.62.57-1.44,1.23-2.86,1.87-4.23.22-.46.43-.92.64-1.39.57-1.25,1.61-1.77,2.91-1.46,1.35.32,2.88.68,4.36,1.09,1.13.31,1.74,1.17,1.66,2.36-.04.57-.07,1.14-.11,1.7-.1,1.52-.2,3.09-.33,4.64-.07.79.13,1.09.91,1.35,1.19.39,2.34.89,3.46,1.37.31.13.61.26.92.39.38.16.66.13,1.15-.48.39-.5.78-1.01,1.16-1.51.46-.62.95-1.26,1.44-1.87,2.47-3.05,3.01-3.14,6.37-1.11.17.11.35.22.52.33.41.26.79.51,1.19.68,1.13.49,1.61,1.46,1.28,2.59-.54,1.86-1.08,3.68-1.78,5.48-.57,1.46-.53,1.63.62,2.49.44.33.89.66,1.34.99.63.46,1.28.94,1.92,1.43.61.47,1,.45,1.63-.06,1.37-1.11,2.87-2.24,4.86-3.64,1.23-.87,2.12-.8,3.28.28.43.4.86.81,1.29,1.22.55.52,1.1,1.05,1.66,1.56.98.9,1.13,2.01.42,3.13l-.14.22c-1.05,1.65-2.14,3.36-3.28,5.01-.4.58-.39.89.02,1.37.86.99,1.69,2.03,2.49,3.03l.69.85c.35.43.63.48,1.17.23l.1-.05c1.58-.74,3.22-1.51,4.89-2.13,1.83-.68,2.93-.96,4.23,1.28.32.56.7,1.12,1.06,1.66.3.45.61.92.9,1.4.66,1.08.51,2.22-.38,3.07-1.19,1.13-2.62,2.45-4.13,3.7-1.21,1.01-1.24,1.1-.62,2.4.23.49.47.98.71,1.47.41.84.83,1.7,1.22,2.57.17.38.34.53.93.44,1.05-.17,2.1-.33,3.15-.49.73-.11,1.46-.22,2.2-.34,2.28-.35,3.21.19,3.96,2.34.43,1.23.81,2.38,1.13,3.5.35,1.2-.14,2.18-1.46,2.91-1.99,1.1-3.63,1.97-5.17,2.74-.73.37-.9.71-.71,1.46.23.91.38,1.84.53,2.75.08.5.16.99.26,1.49.2,1.06.31,1.15,1.44,1.26,2.09.2,3.85.38,5.61.61,1.75.23,2.34.88,2.44,2.69.06,1.14.11,2.29.15,3.43l.03.74c.06,1.43-.76,1.94-1.46,2.12-.93.24-1.85.49-2.78.73-.61.16-1.22.33-1.83.49-.15.04-.29.05-.41.06-.08,0-.16.01-.2.03l-.51.14c-.81.22-1.4.38-1.54.55-.12.13-.13.62-.14,1.29v.52c-.03.69-.08,1.39-.13,2.06-.03.46-.06.92-.09,1.38-.05,1.03,0,1.11,1.07,1.49,1.87.65,3.67,1.34,5.37,2.02,1.59.65,1.97,1.32,1.69,3-.15.89-.34,1.77-.54,2.63-.1.45-.2.91-.3,1.36-.25,1.23-1.05,1.91-2.25,1.92-.9,0-1.79,0-2.68,0h-1.8v-.07c-.06,0-.13,0-.19,0-.63,0-1.27,0-1.9,0-.53-.01-.79.18-.95.67-.19.59-.37,1.18-.55,1.77-.3.99-.61,2.01-.96,3-.21.61-.08.91.58,1.34,1.4.91,2.75,1.83,4.23,2.86.41.28.79.6,1.13.94.77.78.92,1.65.46,2.6-.3.62-.58,1.27-.85,1.89-.25.59-.52,1.2-.8,1.8-.85,1.76-1.65,2.12-3.56,1.57l-1.54-.44c-1.22-.35-2.43-.7-3.65-1.04-1.12-.31-1.23-.27-1.81.64-.3.47-.59.94-.88,1.41-.52.84-1.06,1.72-1.63,2.56-.28.42-.26.63.07,1.01,1.47,1.64,2.65,2.98,3.73,4.22l.09.1c.3.34.68.77.79,1.3.21,1.02.16,1.72-.17,2.18-.71,1.01-1.51,1.97-2.29,2.89-.27.32-.54.64-.81.96-.66.8-1.55.98-2.45.5l-1.21-.65c-1.59-.85-3.23-1.72-4.82-2.64-.56-.32-.8-.24-1.12.07-.48.46-.97.91-1.45,1.37-.8.75-1.61,1.51-2.4,2.28-.25.24-.33.45-.06.94.94,1.76,1.8,3.55,2.61,5.24.85,1.77.61,2.71-.95,3.87-.48.36-.97.71-1.46,1.06-.52.37-1.05.75-1.56,1.13-1.12.84-2.31.76-3.34-.23-1.54-1.47-2.91-2.81-4.17-4.09-.79-.8-.88-.81-1.87-.24l-.28.17c-1.13.66-2.3,1.34-3.51,1.9-.65.31-.82.66-.64,1.4.11.5.24.99.36,1.49.17.71.36,1.43.51,2.16.12.55.19,1.1.27,1.64.04.28.08.57.13.85.15.93-.03,2.17-1.75,2.82-.86.32-1.72.67-2.56,1.01l-1,.4c-1.71.69-2.68-.16-3.18-1-.4-.67-.82-1.33-1.23-1.99-.59-.94-1.19-1.91-1.76-2.89-.65-1.1-.74-1.14-1.92-.84-.43.11-.86.22-1.29.33-.9.23-1.84.47-2.77.68-.78.17-1.01.48-1.02,1.38-.02,1.34-.12,2.7-.22,4.01-.06.75-.12,1.5-.16,2.25-.07,1.2-.81,1.95-2.08,2.12-1.12.15-2.26.26-3.36.37-.4.04-.81.08-1.21.12-1.08.11-1.87-.39-2.19-1.38-.15-.46-.3-.91-.45-1.37-.51-1.56-1.04-3.18-1.5-4.8-.22-.76-.51-.99-1.22-.96-1.53.05-3.09.05-4.62,0-.71-.02-.98.2-1.2.99-.39,1.38-.84,2.77-1.27,4.1-.2.62-.4,1.24-.6,1.87-.32,1.02-1.05,1.56-2.06,1.56Zm-13.11-12.67c.2,0,.43.03.67.09l.92.24c1.21.31,2.47.64,3.71.92,1.58.37,1.8,1.53,1.82,2.37.04,1.23.13,2.49.21,3.7.06.87.12,1.74.17,2.61.03.53.22.88,1.07.99.87.12,1.77.21,2.64.29.56.06,1.13.11,1.69.18.61.07.9-.11,1.08-.68.2-.63.4-1.25.6-1.87.43-1.33.87-2.7,1.26-4.06.24-.84.75-1.95,2.45-1.9,1.51.05,3.04.05,4.54,0,1.31-.05,2.09.55,2.47,1.87.46,1.59.98,3.2,1.49,4.75.15.46.3.91.45,1.37.12.36.31.58.87.52.41-.04.81-.08,1.22-.12,1.09-.11,2.22-.22,3.32-.37.79-.1.97-.45.99-.95.04-.76.1-1.51.16-2.27.1-1.29.2-2.62.22-3.93.02-1.46.66-2.28,2-2.58.91-.2,1.84-.44,2.73-.67.43-.11.86-.22,1.3-.33,1.73-.43,2.37-.15,3.3,1.42.57.96,1.17,1.93,1.75,2.86.41.67.83,1.33,1.24,2.01.4.66.86.8,1.65.49l1-.4c.84-.34,1.72-.69,2.59-1.02.93-.35,1.05-.83.95-1.45-.05-.29-.09-.58-.13-.88-.08-.54-.15-1.05-.25-1.55-.15-.71-.33-1.43-.5-2.12-.12-.5-.25-1-.36-1.51-.3-1.31.15-2.26,1.33-2.82,1.16-.54,2.3-1.21,3.41-1.85l.28-.17c1.49-.86,2.18-.77,3.39.44,1.26,1.27,2.62,2.6,4.15,4.07.58.56,1.1.6,1.73.13.52-.39,1.06-.77,1.59-1.15.48-.34.97-.69,1.45-1.04,1.08-.8,1.15-1.1.57-2.33-.8-1.67-1.66-3.45-2.59-5.19-.5-.94-.4-1.76.3-2.43.8-.77,1.6-1.53,2.41-2.29.48-.45.96-.91,1.44-1.36.77-.73,1.63-.82,2.61-.25,1.57.91,3.2,1.78,4.78,2.62l1.21.65c.37.2.62.14.9-.19.27-.33.54-.65.82-.97.76-.9,1.54-1.83,2.22-2.79.02-.03.16-.27-.03-1.21-.04-.2-.29-.48-.5-.73l-.09-.11c-1.07-1.23-2.25-2.57-3.71-4.2-.71-.8-.77-1.65-.18-2.54.55-.82,1.09-1.69,1.61-2.52.29-.47.59-.95.89-1.42.88-1.38,1.57-1.64,3.21-1.17,1.22.34,2.43.69,3.65,1.04l1.54.44c1.33.38,1.5.3,2.09-.91.27-.57.53-1.17.78-1.75.28-.64.56-1.31.88-1.95.23-.46.17-.77-.23-1.17-.28-.29-.6-.55-.94-.79-1.48-1.02-2.82-1.94-4.2-2.84-.72-.47-1.62-1.27-1.07-2.8.34-.97.65-1.98.94-2.95.18-.6.36-1.2.55-1.79.33-1.02,1.11-1.56,2.17-1.54.62.02,1.25.01,1.87,0,.27,0,.55,0,.82,0h.63v.08h.55c.89,0,1.78,0,2.67,0,.6,0,.9-.27,1.04-.93.1-.46.2-.92.3-1.38.19-.84.38-1.71.52-2.57.18-1.11.12-1.21-.93-1.64-1.67-.68-3.46-1.36-5.31-2-1.41-.5-1.99-.98-1.9-2.73.02-.47.06-.94.09-1.41.05-.66.09-1.34.11-2.01v-.51c.06-2.23.35-2.4,2.61-3.02l.5-.14c.16-.04.31-.06.43-.07.07,0,.13,0,.2-.03.61-.16,1.22-.32,1.83-.49.93-.25,1.86-.5,2.79-.74.37-.09.54-.25.52-.85l-.03-.74c-.04-1.14-.09-2.27-.15-3.41-.07-1.21-.21-1.36-1.36-1.51-1.74-.23-3.48-.41-5.56-.61-1.68-.16-2.25-.67-2.55-2.27-.1-.5-.18-1.01-.26-1.52-.14-.88-.29-1.78-.51-2.64-.33-1.33.1-2.25,1.36-2.88,1.52-.77,3.15-1.63,5.12-2.72.92-.51,1.01-.95.86-1.46-.32-1.1-.69-2.22-1.11-3.43-.56-1.58-.9-1.78-2.59-1.52-.73.11-1.47.22-2.2.34-1.05.16-2.1.32-3.14.48-1.08.17-1.84-.22-2.27-1.16-.38-.85-.8-1.7-1.21-2.53-.24-.49-.48-.98-.72-1.48-.92-1.94-.61-2.61.95-3.9,1.48-1.23,2.89-2.53,4.07-3.65.46-.43.51-.94.17-1.51-.28-.46-.58-.91-.88-1.35-.37-.55-.75-1.13-1.1-1.72-.83-1.43-1.08-1.34-2.71-.73-1.63.6-3.24,1.36-4.8,2.09l-.1.05c-1.07.5-1.97.31-2.68-.58l-.69-.85c-.8-.99-1.62-2.02-2.46-2.99-.8-.93-.83-1.85-.11-2.9,1.12-1.63,2.21-3.33,3.25-4.97l.14-.22c.38-.6.33-1.05-.2-1.53-.57-.52-1.12-1.05-1.68-1.58-.43-.41-.85-.81-1.28-1.21-.73-.68-.97-.7-1.71-.18-1.96,1.39-3.44,2.5-4.79,3.6-1.08.87-2.12.9-3.18.08-.62-.48-1.27-.95-1.89-1.41-.45-.33-.9-.66-1.35-1-1.71-1.28-1.75-2.11-1.03-3.95.68-1.75,1.22-3.54,1.75-5.37.15-.53-.02-.86-.57-1.1-.5-.21-.94-.5-1.38-.77-.16-.1-.33-.21-.49-.31-1.32-.79-2.15-1.28-2.66-1.19-.48.08-1.04.71-2.1,2.02-.48.6-.96,1.23-1.42,1.84-.39.52-.78,1.03-1.18,1.54-.29.36-1.17,1.47-2.62.86-.31-.13-.62-.26-.93-.4-1.1-.47-2.23-.96-3.36-1.34-1.32-.44-1.88-1.28-1.76-2.64.14-1.53.23-3.1.33-4.61.04-.57.07-1.14.11-1.71.04-.59-.19-.92-.74-1.07-1.46-.4-2.98-.76-4.32-1.08-.72-.17-1.16.06-1.48.76-.21.47-.43.93-.65,1.4-.63,1.36-1.29,2.76-1.84,4.16-.58,1.46-1.67,1.5-2.43,1.4-.43-.06-.87-.12-1.3-.18-1.09-.16-2.21-.32-3.3-.38-1.7-.09-2.11-1.23-2.28-2.09-.04-.19-.06-.39-.08-.59-.02-.15-.03-.3-.06-.45l-.08-.46c-.29-1.59-.59-3.24-.9-4.85-.07-.34-.22-.66-.88-.67-1.56,0-3.12,0-4.68,0-.68,0-.84.31-.9.64-.19.99-.37,1.97-.55,2.96-.16.85-.31,1.7-.47,2.55l-.03.14c-.11.56-.21,1.13-.44,1.69-.17.42-.68.91-1.22.99-1.92.29-3.83.52-5.6.72-.99.11-1.69-.32-2.09-1.28-.57-1.38-1.21-2.77-1.82-4.11-.24-.52-.47-1.04-.71-1.56-.34-.75-.82-.97-1.66-.76-.5.13-1.01.25-1.51.37-.78.19-1.55.38-2.32.57-.94.24-1.09.43-1.05,1.36.09,1.94.23,3.99.42,6.09.12,1.39-.42,2.24-1.72,2.67-.73.24-1.45.55-2.16.85-.71.3-1.44.61-2.19.86-.65.22-1.59.05-2.09-.38-.49-.42-.88-.93-1.25-1.42-.18-.24-.36-.47-.55-.7l-.57-.67c-.84-.99-1.71-2.02-2.62-2.96-.09-.06-.45-.11-.56-.07-1.48.73-2.96,1.54-4.39,2.43-.11.07-.31.42-.33.7-.03.47.06,1.02.25,1.6.51,1.49,1.09,2.99,1.59,4.25.39.98.75,2.39-.59,3.36-1.23.89-2.47,1.78-3.7,2.68-1.36.99-1.95.98-3.31-.06l-.38-.29c-1.42-1.08-2.88-2.2-4.36-3.24-.74-.52-1.03-.5-1.73.14-.95.88-1.91,1.79-2.86,2.71-.69.67-.73.95-.27,1.7,1.01,1.61,2.12,3.31,3.4,5.2.67.99.64,1.88-.08,2.73-1.1,1.3-2.04,2.45-2.87,3.52-1.07,1.38-1.76,1.56-3.38.85-1.74-.76-3.62-1.52-5.74-2.32-.34-.13-.74-.16-1.17.54-.44.72-.9,1.43-1.35,2.12-.26.41-.53.81-.79,1.22-.59.93-.54,1.31.25,2.04.99.91,2,1.81,3,2.72.51.46,1.03.92,1.54,1.39.83.75.99,1.69.44,2.71-.7,1.31-1.21,2.39-1.62,3.4-.86,2.14-1.65,2.56-3.85,2.08-.1-.02-.19-.05-.28-.08-.06-.02-.13-.04-.15-.05l-1.19-.14c-1.33-.15-2.7-.31-4.06-.42-.31-.03-.63.03-.82.62-.3.97-.65,1.94-.98,2.87-.12.33-.23.65-.35.98-.38,1.1-.26,1.43.74,1.98,1.66.91,3.37,1.81,5.02,2.68l.29.15c1.01.53,1.4,1.37,1.16,2.48-.17.78-.31,1.59-.44,2.37-.11.61-.21,1.21-.33,1.82-.4,2.03-.94,2.35-2.88,2.51-1.84.16-3.68.39-5.55.63-.75.1-1.06.45-1.08,1.21-.01.57-.05,1.14-.08,1.69-.04.61-.08,1.23-.08,1.84v.41c-.02.52-.02.98.06,1.08.1.13.59.31,1.21.54l.43.16c.07.03.18.04.3.06.12.02.23.03.34.06.55.13,1.1.26,1.65.4,1.07.26,2.13.52,3.2.76,1.05.24,1.61.94,1.65,2.07.03.86.08,1.73.12,2.59.04.7.07,1.39.1,2.09.07,1.68-.49,2.15-1.87,2.64-1.18.42-2.36.87-3.51,1.31-.7.27-1.41.54-2.11.8-.69.26-.72.65-.67,1,.13.8.28,1.62.43,2.41.12.63.24,1.25.35,1.88.14.84.55,1.18,1.37,1.16.57,0,1.15-.02,1.72-.02,1.41-.02,2.87-.04,4.3-.09,1.26-.03,2.06.47,2.4,1.51.19.57.36,1.15.54,1.72.28.93.58,1.89.91,2.81.64,1.74-.36,2.63-1.17,3.15-1.72,1.1-3.39,2.32-4.82,3.37-.73.54-.6.86-.52,1.04.59,1.4,1.2,2.85,1.9,4.22.5.98.67,1.05,1.83.72l1.93-.55c1.12-.32,2.24-.64,3.36-.96,1.71-.49,2.4-.22,3.34,1.32l.24.39c.58.94,1.17,1.91,1.8,2.83,1.08,1.57,1.05,2.1-.2,3.55-1.21,1.4-2.61,3.04-3.97,4.66-.31.37-.42.75.09,1.35.77.91,1.78,2.13,2.79,3.39.44.56.77.53,1.21.29.66-.36,1.32-.72,1.98-1.08,1.29-.7,2.63-1.42,3.92-2.16.91-.52,1.73-.45,2.43.2l.81.76c1.05.98,2.1,1.96,3.13,2.95.72.69.82,1.54.28,2.52-.94,1.75-1.82,3.57-2.63,5.28-.55,1.15-.2,1.55.2,1.85.58.44,1.2.88,1.79,1.3.55.39,1.11.78,1.66,1.19.66.5,1.18.45,1.8-.14l.53-.51c1.15-1.11,2.34-2.26,3.47-3.41,1.32-1.35,1.95-1.44,3.54-.51,1.16.68,2.19,1.24,3.16,1.72,1.97.98,2.14,1.87,1.63,3.86-.36,1.38-.59,2.84-.82,4.25-.08.47-.15.94-.23,1.41-.05.31-.02.62.56.86l1.19.48c.99.41,2.02.82,3.04,1.22.58.22.97.09,1.31-.45.25-.4.5-.8.74-1.2.78-1.25,1.59-2.55,2.34-3.84.29-.49.9-1.55,2.18-1.55Z"/></g><g><path class="cls-1" d="m119.45,50.15c-.3-.09-.55-.11-.76-.05-.53.13-.55.95-.04,1.14,6.2,2.26,13.35.64,17.49-3.81.2-.21.21-.55.03-.79h0c-.19-.26-.53-.29-.76-.09-4.74,4.23-10.04,5.43-15.96,3.61Z"/><path class="cls-1" d="m95.28,56.23c-.37.61.35,1.3.84.8,7.47-7.66,20.57-8.2,24.23-19.79.1-.32-.07-.67-.36-.77h0c-.3-.11-.63.09-.71.42-2.37,10.06-20.54,13.59-24.01,19.34Z"/><path class="cls-1" d="m130.15,48.39c.23-.13.4-.34.53-.58.65-1.2,1.5-2.23,2.2-3.39.1-.16.15-.36.12-.55-.03-.19-.15-.36-.32-.43-.16-.06-.34-.02-.48.07-.37.23-.62.68-.88,1.03-.32.43-.64.86-.95,1.29-.13.18-.24.37-.36.55-.06.09-.12.17-.18.26-.21.27-.45.52-.57.86-.06.18-.09.37-.08.56,0,.11.03.24.11.31.03.03.08.06.12.07.24.1.51.06.74-.07Z"/><path class="cls-1" d="m109.5,43.17c-.47.51.12,1.34.69.96,3.49-2.3,5.81-5.56,7.24-9.73.11-.32-.05-.68-.35-.79h-.01c-.29-.11-.6.05-.7.36-2.02,6.09-5.66,7.87-6.87,9.2Z"/><path class="cls-1" d="m112.35,31.87l-.15-.05c-.25-.09-.52.05-.62.32-.69,1.85-1.63,3.44-2.89,4.83-.02.03-.05.06-.06.09-.31.51.33,1.08.76.7,1.55-1.38,2.56-3.12,3.27-5.17.1-.29-.05-.62-.32-.72Z"/><path class="cls-1" d="m147.74,64.64c-2.34.68-4.62,1.34-6.9,2.01-.4.12-.62.68-.4,1.1.23.46.6.47,1.15.25,2.11-.86,4.19-1.42,6.39-1.86.34-.07.57-.45.52-.86,0,0,0,0,0-.01-.05-.44-.4-.72-.75-.62Z"/><path class="cls-1" d="m101.4,75.07c1.23-1.73,2.78-3.29,4.12-4.96,2.96-3.68,5.03-8.16,5.39-12.86.03-.41.01-1.78-.68-1.75s-.67,1.61-.66,2.05c.05,4.58-2.34,8.87-5.33,12.35-1.9,2.21-4.1,4.25-5.31,6.9-1.2,2.64-1.29,5.63-1.23,8.52.11,5.51.67,11.01,1.65,16.44.37,0,.75.01,1.12.02-.28-5.86-1.42-11.65-1.52-17.52-.04-2.07.06-4.18.78-6.12.41-1.11.99-2.11,1.67-3.07Z"/><path class="cls-1" d="m147.29,70.77c1.35.05,1.09-1.56.16-1.51l-2.65.69c-.75.19-.55,1.59.2,1.43.73-.15,1.49-.56,2.28-.6Z"/><path class="cls-1" d="m107.84,30.28s0,0,0,0c-.31-.08-.62.12-.69.46-1.14,5.25-1.15,10.42.37,15.63.1.35.47.53.78.37h.03c.27-.14.39-.47.31-.78-1.45-4.99-1.38-9.96-.36-14.94.07-.33-.12-.66-.42-.75Z"/><path class="cls-1" d="m147.37,81.13c.29.04.55-.18.6-.5v-.02c.05-.33-.15-.63-.45-.68-6.82-1.19-12.84-6.07-14.9-13.38-.09-.33-.41-.51-.7-.39h-.01c-.26.11-.41.41-.34.71,1.81,7.47,8.38,13.22,15.8,14.26Z"/><path class="cls-1" d="m148.86,74.58c-5.48-1.02-9.62-3.81-11.47-9.8-.1-.31-.4-.48-.68-.36l-.05.02c-.25.1-.39.39-.32.67,1.5,6.45,7.54,10.33,12.43,10.62.26.01.48-.19.53-.47h0c.05-.33-.14-.63-.43-.68Z"/><path class="cls-1" d="m97.8,71.31c2.49-4.23,6.87-7.14,7.67-12.17.09-.59-.68-.92-.92-.37-.01.03-.03.07-.03.1-.56,2.59-2.13,4.4-3.67,6.29-1.28,1.57-2.42,3.29-3.59,4.97-.16.23-.27.46-.35.71-.21.61.57,1.02.89.47Z"/><path class="cls-1" d="m76.51,36.98c-1.25-1.39-2.19-2.98-2.89-4.83-.1-.27-.37-.41-.62-.32l-.15.05c-.27.1-.42.42-.32.72.72,2.06,1.73,3.79,3.27,5.17.43.38,1.07-.19.76-.7-.02-.03-.04-.06-.07-.09Z"/><path class="cls-1" d="m102.93,28.9c-.31-.07-.62.15-.69.48-1.38,6.54-1.31,12.93.66,19.31.11.37.5.54.81.36h0c.26-.15.38-.48.29-.79-1.9-6.13-1.97-12.33-.63-18.6.08-.35-.13-.71-.45-.78Z"/><path class="cls-1" d="m143.78,60.04c-.17.02-.34.05-.52.08-1.46.25-2.91.77-4.33,1.2-1.37.41-2.75.81-4.12,1.26-2.8.93-5.58,1.91-8.38,2.85-.33.11-.72.21-1.11.31-.39.08-1.01.27-1.28.37-1.74.66-3.53.99-5.37,1.03-1.39.03-2.86-.17-4.21-.53-.08-.02-.17-.04-.25-.06-1.2-.34-2.37-.66-3.53-1.02-.83-.26-.99-.34-1.21.34-.11.33.07.7.38.79,1.28.36,2.56.72,3.85,1.07.1.03.19.04.27.04,1.82.56,3.73.73,5.62.6,1.91-.13,3.8-.55,5.64-1.14.56-.1,1.12-.35,1.66-.53.72-.24,1.44-.48,2.16-.72,1.44-.48,2.89-.96,4.33-1.44,2.89-.96,5.79-1.93,8.68-2.89.53-.19,1.07-.29,1.6-.45.2-.06.4-.13.56-.27.16-.15.25-.4.16-.6-.1-.23-.37-.3-.6-.27Z"/><path class="cls-1" d="m55.05,48.39c.23.13.5.16.74.07.04-.02.09-.04.12-.07.08-.08.1-.2.11-.31.01-.19-.02-.38-.08-.56-.12-.34-.36-.59-.57-.86-.07-.08-.12-.17-.18-.26-.12-.18-.23-.38-.36-.55-.32-.43-.63-.86-.95-1.29-.26-.35-.51-.8-.88-1.03-.15-.09-.32-.13-.48-.07-.17.06-.29.24-.32.43-.03.19.02.39.12.55.71,1.15,1.55,2.18,2.2,3.39.13.24.31.45.53.58Z"/><path class="cls-1" d="m48.88,47.39h0c-.16.26-.12.6.09.79,4.44,4.09,11.68,5.1,17.71,2.32.5-.23.42-1.05-.12-1.13-.21-.03-.46,0-.75.12-5.77,2.32-11.15,1.57-16.17-2.24-.24-.19-.58-.12-.75.14Z"/><path class="cls-1" d="m76.89,46.72h.03c.31.16.67,0,.78-.36,1.52-5.21,1.51-10.37.37-15.63-.07-.34-.39-.55-.69-.46,0,0,0,0,0,0-.3.08-.49.41-.42.75,1.01,4.98,1.09,9.95-.36,14.94-.09.3.04.63.31.76Z"/><path class="cls-1" d="m65.22,36.47c-.29.1-.46.45-.36.77,1.91,6.05,6.84,9.36,11.85,11.98,1.29.67,2.59,1.32,3.87,1.99.89.46,1.68,1.14,2.63,1.49.33.12.84.33,1.14.02.06-.06.1-.11.13-.17.34-.63-.85-1.16-1.24-1.37-2.61-1.41-5.28-2.7-7.84-4.2-3.77-2.21-8.32-5.22-9.47-10.1-.08-.34-.4-.53-.71-.42Z"/><path class="cls-1" d="m97.7,39c.55-.14.92-1.58,1.11-2.08.34-.87.64-1.77.88-2.68.47-1.82.69-3.71.57-5.6-.02-.26-.21-.47-.45-.48-.26-.02-.48.2-.5.48-.15,1.76-.4,3.52-.81,5.24-.17.72-.43,1.42-.6,2.13-.18.75-.64,1.45-.74,2.21-.03.21-.02.44.11.61.03.03.06.06.09.09.1.08.23.11.35.08Z"/><path class="cls-1" d="m94.45,34.02c.18-.56.34-1.14.46-1.72.25-1.19.37-2.4.36-3.62,0-.3-.24-.54-.51-.54h-.03c-.27,0-.49.24-.51.54-.07,1.23-.25,2.45-.55,3.63-.2.77-.99,2.24-.26,2.93.1.1.24.17.37.15.38-.06.57-1.04.67-1.36Z"/><path class="cls-1" d="m81.49,49.06h0c.32.18.7,0,.81-.36,1.97-6.38,2.03-12.78.66-19.31-.07-.34-.38-.55-.69-.48-.32.07-.53.42-.45.78,1.34,6.27,1.27,12.47-.63,18.6-.09.3.03.64.29.78Z"/><path class="cls-1" d="m90.47,28.13h-.03c-.28,0-.51.24-.51.55-.13,8.85,6.89,14.51,10.89,21.39.15.25.44.34.68.19.25-.15.35-.51.19-.79-3.93-7.1-10.23-11.92-10.71-20.81-.02-.3-.24-.54-.51-.54Z"/><path class="cls-1" d="m68.13,33.6h-.01c-.3.12-.46.48-.35.8,1.43,4.18,3.75,7.44,7.24,9.73.57.37,1.16-.45.69-.96-1.21-1.33-4.85-3.11-6.87-9.2-.1-.31-.42-.47-.7-.36Z"/><path class="cls-1" d="m60.32,57.89c-.43-.08-.77.4-.66.86.27,1.08.23,2.2.46,3.28.05.25.13.51.29.7.14.17.35.28.55.25.03,0,.06-.01.09-.02.22-.08.36-.32.41-.57.04-.25,0-.5-.03-.75-.16-1.05-.42-2.05-.59-3.08-.11-.45-.29-.64-.52-.68Z"/><path class="cls-1" d="m73.14,60.33c-1.55.34-3.08.68-4.64,1.02-.53.12-.61.96-.09,1.14.16.05.36.06.61,0,.72-.36,3.53-.39,4.54-1.1.49-.35.15-1.19-.42-1.06Z"/><path class="cls-1" d="m42.23,55.29h0c-.03.35.18.65.49.71,5.37,1,10.34,3.38,15.57,4.99.63.19,1.06-.77.5-1.15-.07-.05-.16-.09-.27-.13-5.24-1.68-10.22-3.87-15.6-5-.34-.07-.66.2-.7.58Z"/><path class="cls-1" d="m44.81,50.26c-.2.24-.19.62.03.84,6.54,6.58,17.43,7.52,25.36,2.99.49-.28.33-1.13-.22-1.13-.18,0-.38.04-.62.16-8.43,4.11-16.49,3.32-23.81-2.92-.23-.19-.55-.17-.74.07Z"/><path class="cls-1" d="m41.43,60.04c-.23-.03-.5.04-.6.27-.09.2,0,.46.16.6.16.15.36.21.56.27.53.16,1.07.27,1.6.45,2.89.96,5.79,1.93,8.68,2.89,1.44.48,2.89.96,4.33,1.44.72.24,1.44.48,2.16.72.45.15.92.35,1.39.47.09.05.19.08.29.12,1.93.61,3.91,1.05,5.91,1.17,2,.12,4.03-.09,5.95-.75.12-.04.24-.09.34-.17,1.05-.29,2.1-.58,3.15-.88.31-.09.49-.45.38-.79-.22-.68-.38-.6-1.21-.34-1.16.37-2.34.69-3.54,1.03-.11.03-.2.1-.27.18-1.26.32-2.61.51-3.89.49-1.84-.03-3.63-.34-5.37-.99-.28-.1-.94-.3-1.33-.37-.42-.2-.92-.3-1.35-.44-2.8-.94-5.58-1.93-8.38-2.85-1.36-.45-2.74-.85-4.12-1.26-1.43-.43-2.87-.94-4.33-1.2-.17-.03-.34-.06-.52-.08Z"/><path class="cls-1" d="m56.19,40.19h0c-.16.22-.15.53,0,.75,1.22,1.69,2.43,3.34,3.6,5.02.8.75,1.06,2.78,2.06,2.92.42.06.71-.47.5-.88-1.46-2.84-3.22-5.4-5.34-7.84-.23-.26-.61-.24-.82.04Z"/><path class="cls-1" d="m115.49,62.4c.39.05.92.21,1.3.08.52-.17.45-1.02-.09-1.14-1.56-.34-3.09-.68-4.64-1.02-.57-.13-.91.72-.42,1.06.63.45,1.42.46,2.12.64.57.14,1.14.29,1.73.37Z"/><path class="cls-1" d="m53.29,66.16c-.29-.12-.61.06-.7.39-2.06,7.31-8.08,12.19-14.9,13.38-.3.05-.5.35-.45.68v.02c.05.31.31.54.6.5,7.42-1.04,13.99-6.8,15.8-14.26.07-.29-.08-.6-.34-.7h-.01Z"/><path class="cls-1" d="m86.6,76.96c-1.89-4.34-5.87-7.41-8.29-11.49-1.16-1.95-1.94-4.13-2.29-6.37-.11-.69.03-2.65-.43-3.16-.07-.07-.13-.13-.19-.17-.52-.37-.85.29-.84.97.04,2.84.77,5.66,2.1,8.17,2.41,4.51,6.69,7.89,8.65,12.61,1.27,3.07,1.05,6.47,1.14,9.79.06,2.04-1.57,12.43-1.54,14.48.4,0,.68,0,1.08,0-.42-5.54,2.83-19.74.61-24.83Z"/><path class="cls-1" d="m35.91,75.25h0c.05.29.27.49.53.48,4.89-.28,10.93-4.16,12.43-10.62.06-.28-.08-.57-.32-.67l-.05-.02c-.28-.12-.59.05-.68.36-1.85,5.99-5.99,8.78-11.47,9.8-.29.05-.49.36-.43.67Z"/><path class="cls-1" d="m37.76,69.26c-.92-.05-1.18,1.57.16,1.51.79.04,1.55.45,2.28.6.75.16.95-1.23.2-1.43l-2.65-.69Z"/><path class="cls-1" d="m36.72,65.26s0,0,0,.01c-.05.41.18.79.52.86,2.2.44,4.28.99,6.39,1.86.55.23.92.21,1.15-.25.22-.42,0-.98-.4-1.1-2.27-.66-4.56-1.33-6.9-2.01-.35-.1-.7.18-.75.62Z"/><path class="cls-1" d="m65.13,57.2c-.32.08-.51.44-.43.79.28,1.12.23,3.81,1.29,4.5.17.11.42.11.55-.06.13-.17.09-.43.04-.65-.31-1.36-.4-2.76-.75-4.11-.08-.34-.39-.55-.7-.46Z"/><path class="cls-1" d="m142.28,54.71c-5.38,1.13-10.36,3.32-15.6,5-.1.04-.19.08-.27.13-.56.38-.13,1.34.5,1.15,5.24-1.61,10.2-3.99,15.57-4.99.31-.06.52-.36.49-.7h0c-.03-.39-.36-.66-.7-.59Z"/><path class="cls-1" d="m139.65,50.19c-7.32,6.24-15.38,7.03-23.81,2.92-.24-.11-.44-.16-.62-.16-.56,0-.72.85-.22,1.13,7.93,4.53,18.82,3.59,25.36-2.99.22-.22.23-.6.03-.84-.19-.23-.52-.26-.74-.07Z"/><path class="cls-1" d="m129.02,40.19c-.2-.28-.59-.3-.82-.04-2.12,2.45-3.88,5-5.34,7.84-.21.41.08.94.5.88,1-.13,1.26-2.17,2.06-2.92,1.18-1.68,2.38-3.33,3.6-5.02.16-.22.16-.52,0-.74h0Z"/><path class="cls-1" d="m123.51,64.28c.88-.05,1.11-2.04,1.3-2.72.26-.93.5-1.86.73-2.8.11-.46-.23-.94-.66-.86-.23.04-.41.23-.52.68-.26,1.08-.53,2.16-.83,3.22-.12.44-.92,2.18-.26,2.45.06.03.14.04.24.03Z"/><path class="cls-1" d="m119.69,60.99c.29-.99.55-1.99.8-3,.09-.35-.11-.7-.43-.79-.31-.08-.62.13-.7.46-.22.95-.46,1.9-.74,2.84-.17.6-.9,1.92-.37,2.45.88.89,1.28-1.47,1.43-1.97Z"/><path class="cls-1" d="m60.18,37.78c-.23.08-.37.35-.29.61,4.69,16.9,21.81,14.59,27.87,25.96.26.48.93.2.82-.34-2.1-9.88-23.41-10.44-27.84-25.9-.07-.26-.32-.4-.55-.32Z"/><path class="cls-1" d="m84.35,65.16c-1.54-1.89-3.11-3.71-3.67-6.29,0-.03-.02-.07-.03-.1-.24-.54-1.02-.22-.92.37.8,5.04,5.18,7.94,7.67,12.17.32.55,1.1.14.89-.47-.08-.24-.2-.48-.35-.71-1.17-1.68-2.31-3.4-3.59-4.97Z"/><path class="cls-1" d="m83.25,47.38c-.22.14-.26.56-.15.85.12.29.33.47.54.65,2.24,1.94,3.95,4.85,5.1,8.05.69,1.92,1.12,3.62,1.37,5.66.26,2.14.21,4.6.33,6.76.02.29.04.58.06.87.02.25.05.5.16.72s.35.37.57.31c.15-.04.2-.96.21-1.19.02-.59-.04-1.18-.04-1.77-.02-1.04-.05-2.07-.11-3.11-.11-2.1-.35-4.19-.82-6.23-.57-2.42-1.37-4.62-2.56-6.63-.24-.4-.48-.78-.74-1.16-.97-1.4-2.09-2.62-3.32-3.61-.18-.15-.41-.29-.6-.17Z"/><path class="cls-1" d="m125.02,37.78c-.23-.08-.48.07-.55.32-4.44,15.46-25.74,16.03-27.84,25.9-.12.54.56.82.82.34,6.06-11.37,23.18-9.06,27.87-25.96.07-.25-.06-.53-.29-.61Z"/><path class="cls-1" d="m85.4,28.16c-.24.01-.43.22-.45.48-.58,9.26,6.77,17.23,11.66,24.33.16.23.44.27.65.11h.02c.2-.17.26-.48.13-.71-5.24-9.49-10.43-11.21-11.51-23.73-.02-.28-.24-.49-.5-.48Z"/><path class="cls-1" d="m84.54,41.76c-.76.23.37,1.2.8,1.61,7.6,7.11,8.71,14.95,9.22,19.72.51,4.77.11,8.38,1.31,7.66.32-.19.17-2.59.06-3.93-.61-7.58-1.63-13.89-6.22-20.22-1.18-1.63-4.3-5.09-5.18-4.83Z"/></g><g><path class="cls-1" d="m89.03,128.17c-1.06.7-1.6,1.76-1.6,3.17,0,1.24.35,2.14,1.06,2.71.71.57,1.81.85,3.29.85,1.15,0,2.1-.25,2.84-.75.74-.5,1.28-1.11,1.61-1.85.33-.73.5-1.46.5-2.19v-2.83c-1.15-.11-2.09-.17-2.83-.17-2.19,0-3.82.35-4.89,1.05Z"/><path class="cls-1" d="m166.27,116.15c-.32-.32-.67-.61-1.04-.87-1.41-.96-2.82-1.92-4.26-2.85-.79-.51-1.19-1.07-.83-2.07.56-1.57,1-3.17,1.51-4.76.24-.74.76-1.13,1.58-1.11.58.01,2,.01,2.58,0-19.33-13.79-43.07-22.22-67.99-23.26l1.41,20.34h-.03c0,.07.02.14.02.21,0,1.99-2.96,3.6-6.61,3.6s-6.61-1.61-6.61-3.6c0-.07-.01-.21-.01-.21l1.41-20.34c-24.82,1.05-47.83,9.49-67.15,23.28.51-.01,1.03-.02,1.54-.03.88-.03,1.52.23,1.8,1.08.5,1.52.92,3.06,1.47,4.55.42,1.13.05,1.79-.93,2.41-1.68,1.06-3.29,2.22-4.89,3.39-.57.41-1.07,1-.73,1.78.61,1.44,1.22,2.88,1.94,4.26.66,1.28,1.17,1.43,2.58,1.03,1.78-.5,3.56-1.01,5.34-1.51,1.46-.41,1.87-.24,2.66,1.05.68,1.09,1.34,2.19,2.08,3.25.92,1.32.93,1.54-.16,2.79-1.34,1.55-2.69,3.1-4.01,4.67-.62.73-.51,1.45.09,2.16.95,1.11,1.89,2.23,2.8,3.37.57.71,1.2.89,2.02.45,1.99-1.08,4-2.13,5.97-3.24.65-.37,1.17-.38,1.71.12,1.33,1.23,2.66,2.46,3.97,3.71.55.52.55,1.08.17,1.77-.94,1.74-1.81,3.52-2.66,5.31-.57,1.19-.44,1.99.39,2.62,1.14.86,2.34,1.64,3.48,2.49.96.71,1.82.58,2.64-.2,1.36-1.3,2.72-2.6,4.05-3.94,1.12-1.14,1.45-1.19,2.8-.41,1.05.61,2.13,1.2,3.22,1.74,1.64.81,1.78,1.34,1.31,3.15-.49,1.87-.74,3.8-1.08,5.71-.13.76.25,1.26.95,1.54,1.42.57,2.84,1.16,4.28,1.7.87.33,1.59.08,2.08-.71,1.05-1.68,2.12-3.34,3.12-5.05.51-.86,1.07-1.45,2.17-1.17,1.56.4,3.12.8,4.69,1.16.99.23,1.32.79,1.35,1.78.06,2.11.28,4.22.39,6.33.06,1.06.73,1.46,1.62,1.58,1.46.2,2.92.31,4.38.47.9.1,1.48-.25,1.76-1.11.63-1.98,1.31-3.95,1.88-5.95.28-.99.76-1.48,1.84-1.44,1.54.05,3.08.05,4.62,0,1.06-.03,1.57.41,1.86,1.41.6,2.06,1.29,4.1,1.96,6.14.24.74.79,1.03,1.55.95,1.53-.16,3.07-.29,4.59-.49.86-.11,1.49-.53,1.55-1.53.12-2.08.36-4.15.38-6.23.02-1.15.42-1.74,1.52-1.98,1.37-.3,2.72-.66,4.08-1,1.49-.37,1.85-.18,2.63,1.13.98,1.64,2.02,3.24,3.01,4.87.6.98,1.42,1.14,2.43.74,1.2-.48,2.39-.97,3.6-1.42,1.01-.38,1.54-1.02,1.36-2.13-.13-.82-.22-1.65-.39-2.46-.26-1.22-.59-2.42-.88-3.64-.22-.95,0-1.65,1-2.11,1.3-.6,2.53-1.33,3.77-2.04,1.25-.72,1.64-.67,2.65.34,1.38,1.38,2.78,2.74,4.2,4.08.78.74,1.64.86,2.56.18,1.01-.75,2.05-1.45,3.06-2.19,1.33-.98,1.49-1.6.77-3.1-.84-1.75-1.7-3.5-2.62-5.21-.36-.67-.33-1.2.18-1.69,1.28-1.23,2.59-2.43,3.88-3.65.59-.56,1.15-.58,1.88-.16,1.99,1.14,4.04,2.2,6.07,3.28.64.34,1.22.22,1.69-.34,1.05-1.26,2.15-2.47,3.09-3.81.28-.4.18-1.15.07-1.7-.09-.41-.45-.78-.74-1.12-1.24-1.41-2.49-2.82-3.75-4.21-.51-.57-.58-1.1-.13-1.77.88-1.29,1.68-2.64,2.52-3.95.73-1.15,1.15-1.29,2.53-.91,1.75.49,3.49.99,5.24,1.48,1.62.46,2.12.27,2.85-1.24.59-1.22,1.07-2.49,1.67-3.7.38-.76.19-1.35-.35-1.88Zm-85.39,13.04c0,2.64-.49,4.51-1.46,5.62-.98,1.11-2.54,1.66-4.69,1.66-1.46,0-2.64-.22-3.52-.66-.89-.44-1.55-1.19-1.98-2.24-.43-1.05-.65-2.51-.65-4.37v-5.58c0-1.82.22-3.25.67-4.3.44-1.05,1.11-1.81,1.99-2.26.89-.45,2.05-.68,3.49-.68s2.64.22,3.52.66c.89.44,1.55,1.2,1.98,2.26.43,1.06.65,2.54.65,4.42v5.49Zm17.45,6.95h-1.4l-.03-2.43c-.64,1.04-1.41,1.76-2.31,2.16-.9.4-2.03.6-3.41.6-1.68,0-3.01-.42-3.97-1.25-.96-.83-1.45-2.13-1.45-3.91,0-2.02.71-3.47,2.14-4.37,1.43-.9,3.51-1.35,6.23-1.35.8,0,1.66.03,2.59.1v-2.93c0-1.75-.33-3.01-.98-3.77-.65-.76-1.73-1.15-3.24-1.15s-2.53.32-3.21.96c-.68.64-1.01,1.84-1.01,3.59h-1.6c0-2.08.45-3.61,1.36-4.59.91-.97,2.39-1.46,4.45-1.46s3.46.5,4.4,1.51c.94,1.01,1.41,2.63,1.41,4.87v13.4Zm16.22,0l-6.95-9.67h-1.83v9.67h-1.73v-25.66h1.7v14.26h1.83l6.22-8.05h1.99l-6.81,8.91,7.65,10.54h-2.06Z"/><path class="cls-1" d="m77.59,118.48c-.64-.38-1.6-.57-2.86-.57-1.2,0-2.12.19-2.76.57-.64.38-1.09.98-1.35,1.8-.26.82-.38,1.94-.38,3.36v5.42c0,1.51.11,2.67.33,3.49.22.82.65,1.42,1.3,1.81.64.39,1.6.58,2.86.58,1.2,0,2.12-.2,2.76-.6.64-.4,1.09-1.01,1.35-1.85.25-.83.38-1.96.38-3.37v-5.42c0-1.48-.11-2.63-.33-3.44-.22-.81-.65-1.4-1.3-1.78Z"/></g></svg>