<svg
  viewBox="8.662628865979382 3.3457600000000003 74.0122852233677 72.84632"
  xmlns="http://www.w3.org/2000/svg"
  data-name="Layer 1"
  id="Layer_1"
  style="max-height: 500px"
  width="74.0122852233677"
  height="72.84632"
>
  <defs>
    <style>
      .cls-1 {
        fill: #dddbdb;
      }
      .cls-2 {
        fill: #9f9c9d;
      }
      .cls-3 {
        fill: #fff;
      }
      .cls-4 {
        fill: #d8d8d8;
      }
      .cls-5 {
        fill: #efefef;
      }
    </style>
  </defs>
  <title>phenopackets-logo</title>
  <polygon
    points="45.4 57.6 45.43 57.62 60.59 48.98 60.68 32.58 60.58 32.52 45.34 41.26 45.4 57.6"
    class="cls-1"
  />
  <polygon
    points="66.12 29.34 66.12 52.23 45.42 64.09 45.42 64.09 45.47 76.57 76.01 59.13 76.08 23.62 66.12 29.34"
    class="cls-2"
  />
  <polygon
    points="24.95 29.22 45.53 17.37 66.12 29.22 66.12 29.34 76.08 23.62 45.48 5.85 14.65 23.53 24.95 29.48 24.95 29.22"
    class="cls-3"
  />
  <polygon
    points="30.54 32.65 30.54 32.71 45.34 41.26 60.58 32.52 45.51 24.04 30.54 32.65"
    class="cls-3"
  />
  <polygon
    points="24.95 29.48 14.65 23.53 14.65 58.96 24.95 64.84 24.95 29.48"
    class="cls-4"
  />
  <polygon
    points="45.34 41.26 30.54 32.71 30.54 49 45.4 57.6 45.34 41.26"
    class="cls-5"
  />
  <polygon
    points="30.41 55.38 30.32 67.91 45.47 76.57 45.42 64.09 30.41 55.38"
    class="cls-4"
  />
</svg>
