<?xml version="1.0" encoding="UTF-8"?>
<svg
  id="Layer_2"
  data-name="Layer 2"
  xmlns="http://www.w3.org/2000/svg"
  viewBox="0 0 135.54 133.3"
>
  <defs>
    <style>
      .cls-1 {
        fill: #fff;
      }
    </style>
  </defs>
  <g id="Layer_1-2" data-name="Layer 1">
    <g>
      <path
        class="cls-1"
        d="M51.78,127.32c0-3.57,1.18-6.85,3.16-9.51-22.91-5.75-39.94-26.5-39.94-51.17S31.96,21.31,54.81,15.52c-1.99-2.66-3.18-5.96-3.18-9.54,0-1.89,.34-3.69,.94-5.37C22.47,7.51,0,34.45,0,66.65s22.55,59.23,52.74,66.07c-.61-1.69-.96-3.5-.96-5.4Z"
      />
      <path
        class="cls-1"
        d="M82.64,.55c.62,1.7,.97,3.52,.97,5.43,0,3.55-1.17,6.82-3.13,9.47,22.98,5.7,40.06,26.48,40.06,51.2s-17.03,45.42-39.94,51.17c1.97,2.66,3.16,5.94,3.16,9.51,0,1.9-.35,3.71-.96,5.4,30.19-6.84,52.74-33.81,52.74-66.07S112.91,7.33,82.64,.55Z"
      />
    </g>
    <rect class="cls-1" x="64.95" y="98.9" width="5.64" height="25.96" />
    <rect class="cls-1" x="64.95" y="3.26" width="5.64" height="25.96" />
    <path
      class="cls-1"
      d="M64.07,29.41c-20.57,2.04-35.59,20.37-33.55,40.94,2.04,20.57,20.37,35.59,40.94,33.55,20.57-2.04,35.59-20.37,33.55-40.94-2.04-20.57-20.37-35.59-40.94-33.55Zm26.46,48.93c-.14,1.35-.31,2.7-.55,4.04-.12,.64-.4,1.25-.68,1.85-.82,1.79-1.67,3.58-2.5,5.36-.04,.08-.03,.2-.08,.26-1.23,1.44-2.17,3.13-3.79,4.26-.63,.44-.99,1.25-1.47,1.89-.14,.19-.26,.39-.42,.56-.46,.48-.46,.56,.17,.96-.84,.47-1.85,.38-2.49-.24-.12-.11-.25-.35-.21-.46,.42-1.09,.88-2.17,1.33-3.26,.08-.19,.2-.38,.23-.58,.18-1.07,.32-2.14,.52-3.2,.37-1.98,.07-2.6-1.8-3.19-1.01-.32-1.66-.97-2.29-1.76-.85-1.08-1.31-2.02-.81-3.55,.33-1.01,.54-1.95,1.21-2.84,.38-.5,.42-1.35,.39-2.03-.02-.6-.77-.62-1.38-.64-.91-.03-2.14-.13-2.64-.71-1.89-2.16-4.44-2.33-6.94-2.81-1.29-.25-2.59-.6-3.79-1.14-.57-.25-1-.98-1.33-1.58-1.06-1.89-2.23-3.69-3.73-5.26-.09,.05-.18,.1-.27,.14,.62,1.26,1.23,2.52,1.85,3.78-.07,.06-.14,.12-.21,.19-.2-.08-.46-.11-.59-.26-.78-.83-1.27-1.8-1.72-2.88-.63-1.49-.53-3.48-2.46-4.25-.17-.07-.32-.29-.38-.47-.76-2.42-1.08-4.85-.08-7.31,.32-.8,.43-1.69,.7-2.51,.27-.81-.08-1.24-.76-1.55-.13-.06-.24-.17-.44-.31,.73-.84,.95-1.73,.18-2.61-.12-.14-.46-.08-.77-.12,.27-.23,.52-.44,.65-.54-.2-1.11-.16-2.27-.65-3.12-.46-.78-1.5-1.22-2.32-1.84-.58,.44-1.05,.99-1.64,1.2-1.78,.64-2.58,2.33-3.89,3.45-.29,.24-.53,.54-.93,.69,.56-.72,1.11-1.43,1.67-2.15-.06-.06-.12-.12-.18-.19-.21,.06-.43,.11-.62,.16-.55-.57-.35-2.04,.5-2.92,.69-.71,1.54-1.26,2.28-2.07-.26,.03-.53,.05-.79,.08-.05-.86,1.01-1.81,1.83-1.69,.23,.03,.72-.22,.73-.36,.04-1.23,1.03-1.45,1.85-1.85,2.67-1.3,5.45-1.4,8.33-.85,.58,.11,1.28-.06,1.86-.27,1.61-.58,3.12-.26,4.65,.28,.54,.19,1.13,.24,1.77,.16-.16-.14-.33-.28-.53-.46,.14-.13,.28-.25,.62-.56-.83-.15-1.46-.27-2.37-.44,.61-.21,1.01-.39,1.43-.49,1.03-.24,2.01-.42,3.04,.22,.42,.27,1.16,.05,1.75,.02,.39-.02,.79-.1,1.15-.15-.04,.75-.08,1.34-.12,2.14-.46,.04-1.1,.1-1.85,.16,1.21,1.18,3.32,.85,3.84-.53,.07-.19-.08-.46-.12-.69-.11-.68,.24-1.08,.91-.98,.7,.11,1.39,.29,2.08,.44-.38,.31-.86,.51-.99,.85-.14,.37,.04,.87,.07,1.19,.46,.37,.86,.71,1.42,1.17,.22-.2,.54-.51,.87-.82-.14-.12-.18-.19-.23-.2-.69-.14-1.15-.66-.96-1.25,.19-.59,.87-.59,1.53-.55,1.89,.12,2.86,1.58,4.18,2.57,1.2,.9,1.28,2.44,2.25,3.44,.14,.14-.06,.61-.13,1.13-.36-.41-.56-.65-.76-.89-.07,.03-.13,.07-.2,.1,.12,.3,.28,.59,.33,.9,.05,.28-.03,.58-.05,.87-.29-.03-.65,.03-.86-.11-.39-.27-.68-.69-1.06-.98-.47-.37-.98-.67-1.47-1.01-.22-.15-.42-.33-.75-.59,.6-.03,1.09,.09,1.35-.11,.81-.61,.83-1.01,.08-1.72-.6-.58-1.31-1.05-2.06-1.64q-.47,1.93-1.96,2.15c.64,.6,1.21,1.13,1.94,1.82-.84-.09-1.48-.09-2.06-.29-.15-.05-.08-.74-.13-1.34-.33,.11-.82,.17-1.18,.42-.87,.61-1.72,1.26-2.48,1.99-1.06,1.03-.82,2.38,.44,3.09,.73,.42,1.45,.87,2.16,1.32,.68,.43,1.06,1.03,1.15,1.86,.04,.36,.32,.7,.59,1.25,.21-.38,.33-.52,.35-.67,.1-1.01,.5-1.84,1.3-2.51,.36-.3,.51-.74-.03-1.13-.15-.11-.27-.43-.23-.6,.19-.76,.45-1.49,.71-2.3,1.03,.04,1.78,.94,2.64,1.61,.11,.08,.07,.33,.14,.49,.16,.42,.34,.83,.51,1.24,.35-.17,.7-.34,1.08-.53,.79,1.91,1.62,3.91,2.55,6.14-1.36,.05-2.45,.09-3.61,.13,.6,.72,1.2,1.46,1.83,2.19,.38,.45,.41,.73-.23,1-.73,.31-1.41,.61-2.23,.23-.74-.34-.97,.27-1.28,.77-.23,.36-.63,.61-.91,.96-.5,.62-1.02,1.24-1.44,1.92-.25,.4-.25,.95-.48,1.37-.3,.56-.67,1.1-1.08,1.58-.31,.36-.76,.6-1.11,.93-1.17,1.11-1.22,1.73-.49,3.19,.25,.49,.27,1.09,.42,1.76-1.23-.14-1.44-.99-1.77-1.64-.39-.76-.89-1.32-1.75-1.42-.43-.05-1.01-.13-1.3,.1-1.1,.83-2.38,.78-3.62,1.01-.34,.06-.71,.3-.93,.57-.95,1.13-1.65,2.38-1.68,3.92-.03,2.44,1.76,2.94,3.58,2.34,.27-.09,.52-.42,.65-.7,.43-.96,1.2-1.28,2.4-1.33-.28,.83-.39,1.68-.83,2.3-.51,.73-.13,.96,.39,1.11,.48,.14,1.01,.17,1.51,.1,.63-.08,.75,.21,.73,.72-.02,.39-.09,.78-.06,1.17,.08,.95,.52,1.3,1.5,1.17,1.45-.2,2.96-.2,3.91-1.65,.52-.8,1.46-.91,2.2-.6,1.31,.56,2.36-.06,3.52-.46,.34,1.16,.95,1.96,2.35,1.94,.32,0,.73,.65,.95,1.08,.45,.88,1.04,1.09,2.08,.38-.04,1.04-.03,1.93-.12,2.81Z"
    />
    <circle class="cls-1" cx="67.77" cy="5.98" r="5.98" />
    <circle class="cls-1" cx="67.77" cy="127.32" r="5.98" />
  </g>
</svg>
