<?xml version="1.0" encoding="UTF-8"?>
<svg id="Layer_2" data-name="Layer 2" xmlns="http://www.w3.org/2000/svg" version="1.1" viewBox="0 0 539.9 555.7">
  <defs>
    <style>
      .cls-1 {
        fill: #231f20;
        stroke-width: 0px;
      }
    </style>
  </defs>
  <g id="Layer_1-2" data-name="Layer 1-2">
    <g>
      <path class="cls-1" d="M212.4,499.9c0-13.4,4.4-25.7,11.7-35.7-84.5-21.6-147.3-99.4-147.3-191.9s62.6-170,146.9-191.7c-7.3-10-11.7-22.4-11.7-35.8s1.3-13.8,3.5-20.1C104.2,50.5,21.4,151.6,21.4,272.4s83.2,222.2,194.6,247.8c-2.3-6.3-3.5-13.1-3.5-20.3Z"/>
      <path class="cls-1" d="M326.2,24.4c2.3,6.4,3.6,13.2,3.6,20.4,0,13.3-4.3,25.6-11.5,35.5,84.8,21.4,147.8,99.3,147.8,192s-62.8,170.4-147.3,191.9c7.3,10,11.7,22.3,11.7,35.7s-1.3,13.9-3.5,20.3c111.4-25.7,194.6-126.8,194.6-247.8S437.9,49.9,326.2,24.4Z"/>
    </g>
    <rect class="cls-1" x="260.9" y="393.3" width="20.8" height="97.4"/>
    <rect class="cls-1" x="260.9" y="34.6" width="20.8" height="97.4"/>
    <path class="cls-1" d="M257.7,132.7c-75.9,7.7-131.3,76.4-123.8,153.6,7.5,77.2,75.1,133.5,151,125.8,75.9-7.7,131.3-76.4,123.8-153.6-7.5-77.2-75.1-133.5-151-125.8ZM355.3,316.2c-.5,5.1-1.1,10.1-2,15.2-.4,2.4-1.5,4.7-2.5,6.9-3,6.7-6.2,13.4-9.2,20.1-.1.3-.1.8-.3,1-4.5,5.4-8,11.7-14,16-2.3,1.7-3.7,4.7-5.4,7.1-.5.7-1,1.5-1.5,2.1-1.7,1.8-1.7,2.1.6,3.6-3.1,1.8-6.8,1.4-9.2-.9-.4-.4-.9-1.3-.8-1.7,1.5-4.1,3.2-8.1,4.9-12.2.3-.7.7-1.4.8-2.2.7-4,1.2-8,1.9-12,1.4-7.4.3-9.8-6.6-12-3.7-1.2-6.1-3.6-8.4-6.6-3.1-4.1-4.8-7.6-3-13.3,1.2-3.8,2-7.3,4.5-10.7,1.4-1.9,1.5-5.1,1.4-7.6,0-2.3-2.8-2.3-5.1-2.4-3.4-.1-7.9-.5-9.7-2.7-7-8.1-16.4-8.7-25.6-10.5-4.8-.9-9.6-2.3-14-4.3-2.1-.9-3.7-3.7-4.9-5.9-3.9-7.1-8.2-13.8-13.8-19.7-.3.2-.7.4-1,.5,2.3,4.7,4.5,9.5,6.8,14.2-.3.2-.5.5-.8.7-.7-.3-1.7-.4-2.2-1-2.9-3.1-4.7-6.8-6.3-10.8-2.3-5.6-2-13.1-9.1-15.9-.6-.3-1.2-1.1-1.4-1.8-2.8-9.1-4-18.2-.3-27.4,1.2-3,1.6-6.3,2.6-9.4,1-3-.3-4.7-2.8-5.8-.5-.2-.9-.6-1.6-1.2,2.7-3.2,3.5-6.5.7-9.8-.4-.5-1.7-.3-2.8-.5,1-.9,1.9-1.7,2.4-2-.7-4.2-.6-8.5-2.4-11.7-1.7-2.9-5.5-4.6-8.6-6.9-2.1,1.7-3.9,3.7-6,4.5-6.6,2.4-9.5,8.7-14.4,12.9-1.1.9-2,2-3.4,2.6,2.1-2.7,4.1-5.4,6.2-8.1-.2-.2-.4-.5-.7-.7-.8.2-1.6.4-2.3.6-2-2.1-1.3-7.7,1.8-11,2.5-2.7,5.7-4.7,8.4-7.8-1,.1-2,.2-2.9.3-.2-3.2,3.7-6.8,6.8-6.3.8.1,2.7-.8,2.7-1.4.1-4.6,3.8-5.4,6.8-6.9,9.8-4.9,20.1-5.3,30.7-3.2,2.1.4,4.7-.2,6.9-1,5.9-2.2,11.5-1,17.2,1.1,2,.7,4.2.9,6.5.6-.6-.5-1.2-1.1-2-1.7.5-.5,1-.9,2.3-2.1-3.1-.6-5.4-1-8.7-1.7,2.3-.8,3.7-1.5,5.3-1.8,3.8-.9,7.4-1.6,11.2.8,1.5,1,4.3.2,6.5,0,1.4,0,2.9-.4,4.2-.6-.1,2.8-.3,5-.4,8-1.7.2-4.1.4-6.8.6,4.5,4.4,12.2,3.2,14.2-2,.3-.7-.3-1.7-.4-2.6-.4-2.6.9-4.1,3.4-3.7,2.6.4,5.1,1.1,7.7,1.7-1.4,1.2-3.2,1.9-3.7,3.2-.5,1.4.1,3.3.3,4.5,1.7,1.4,3.2,2.7,5.2,4.4.8-.8,2-1.9,3.2-3.1-.5-.5-.7-.7-.8-.8-2.5-.5-4.2-2.5-3.5-4.7.7-2.2,3.2-2.2,5.6-2.1,7,.5,10.6,5.9,15.4,9.6,4.4,3.4,4.7,9.2,8.3,12.9.5.5-.2,2.3-.5,4.2-1.3-1.5-2.1-2.4-2.8-3.3-.3.1-.5.3-.7.4.4,1.1,1,2.2,1.2,3.4.2,1.1-.1,2.2-.2,3.3-1.1-.1-2.4.1-3.2-.4-1.4-1-2.5-2.6-3.9-3.7-1.7-1.4-3.6-2.5-5.4-3.8-.8-.6-1.5-1.2-2.8-2.2,2.2-.1,4,.3,5-.4,3-2.3,3.1-3.8.3-6.5-2.2-2.2-4.8-3.9-7.6-6.2-1.2,4.8-3.6,7.5-7.2,8.1,2.4,2.3,4.5,4.2,7.2,6.8-3.1-.3-5.5-.3-7.6-1.1-.6-.2-.3-2.8-.5-5-1.2.4-3,.6-4.4,1.6-3.2,2.3-6.3,4.7-9.1,7.5-3.9,3.9-3,8.9,1.6,11.6,2.7,1.6,5.3,3.3,8,5,2.5,1.6,3.9,3.9,4.2,7,.1,1.4,1.2,2.6,2.2,4.7.8-1.4,1.2-2,1.3-2.5.4-3.8,1.8-6.9,4.8-9.4,1.3-1.1,1.9-2.8-.1-4.2-.6-.4-1-1.6-.8-2.3.7-2.9,1.7-5.6,2.6-8.6,3.8.2,6.6,3.5,9.7,6,.4.3.3,1.2.5,1.8.6,1.6,1.3,3.1,1.9,4.7,1.3-.6,2.6-1.3,4-2,2.9,7.2,6,14.7,9.4,23-5,.2-9,.3-13.3.5,2.2,2.7,4.4,5.5,6.8,8.2,1.4,1.7,1.5,2.7-.8,3.8-2.7,1.2-5.2,2.3-8.2.9-2.7-1.3-3.6,1-4.7,2.9-.8,1.4-2.3,2.3-3.4,3.6-1.8,2.3-3.8,4.7-5.3,7.2-.9,1.5-.9,3.6-1.8,5.1-1.1,2.1-2.5,4.1-4,5.9-1.1,1.4-2.8,2.3-4.1,3.5-4.3,4.2-4.5,6.5-1.8,12,.9,1.8,1,4.1,1.5,6.6-4.5-.5-5.3-3.7-6.5-6.2-1.4-2.9-3.3-5-6.5-5.3s-3.7-.5-4.8.4c-4.1,3.1-8.8,2.9-13.4,3.8-1.3.2-2.6,1.1-3.4,2.1-3.5,4.2-6.1,8.9-6.2,14.7-.1,9.2,6.5,11,13.2,8.8,1-.3,1.9-1.6,2.4-2.6,1.6-3.6,4.4-4.8,8.9-5-1,3.1-1.4,6.3-3.1,8.6-1.9,2.7-.5,3.6,1.4,4.2,1.8.5,3.7.6,5.6.4,2.3-.3,2.8.8,2.7,2.7,0,1.5-.3,2.9-.2,4.4.3,3.6,1.9,4.9,5.5,4.4,5.3-.8,10.9-.8,14.4-6.2,1.9-3,5.4-3.4,8.1-2.3,4.8,2.1,8.7-.2,13-1.7,1.3,4.4,3.5,7.4,8.7,7.3,1.2,0,2.7,2.4,3.5,4.1,1.7,3.3,3.8,4.1,7.7,1.4-.1,3.9-.1,7.2-.4,10.5l-.3.3Z"/>
    <ellipse class="cls-1" cx="271.4" cy="44.8" rx="22.1" ry="22.4"/>
    <ellipse class="cls-1" cx="271.4" cy="499.9" rx="22.1" ry="22.4"/>
  </g>
</svg>