<svg id="Layer_1" data-name="Layer 1" xmlns="http://www.w3.org/2000/svg" viewBox="0 0 97.3 83.64"><defs><style>.cls-1{fill:#ec9735;}.cls-2{fill:#fff;}</style></defs><rect class="cls-1" x="21.81" y="56.78" width="6.97" height="4.92"/><path class="cls-2" d="M63.56,74.68c0-.46,0-1,0-1.54a8.28,8.28,0,0,1,.17-1.34l.55-2.42-2.4.64a27.46,27.46,0,0,1-4.31.73c-1.72.17-3.57.31-5.5.41s-7.2.16-9.44.16H30.54c0-1.16-.06-2.6-.07-4.32,0-2.55,0-5.78,0-9.71V47c0-1.08,0-2,0-2.69,0-.19,0-.37,0-.56l2.4,0c.86,0,4.81,0,8.64.06,3.61,0,7.17,0,8.07,0,1.86,0,3.7.12,5.47.25s3.45.31,4.77.51l2,.3-.32-2a18.4,18.4,0,0,1-.22-2.87,19.17,19.17,0,0,1,.22-3l.31-2-2,.23c-1.12.13-2.33.25-3.69.36l-4.29.31c-.95.06-3.36.12-5.49.17l-3.15.08c-1.55.06-8.8.09-12.49.1v0H30.5c0-1.15,0-2.58,0-4.29q0-3.81,0-7.85c0-2.52,0-4.8.11-6.77.07-1.56.12-3.18.17-4.87,3.92,0,11.62.06,13.16.15l3.52.14c2,.06,4.26.14,5.16.22l4.5.41c1.43.14,3,.28,4.73.42l1.89.15-.29-1.88a19.81,19.81,0,0,1-.22-2.87,20,20,0,0,1,.22-2.88l.29-1.83-1.85.1c-2.41.14-4.8.26-7.15.37s-8.15.15-10.64.15c-2.77,0-12.82-.06-15.08-.15s-4.78-.23-7.19-.37l-1.64-.09.06,1.65q.24,6.62.44,13.24c.13,4.4.2,8.91.2,13.41v17.8c0,4.5-.07,9-.2,13.36s-.28,8.77-.44,13.18L20.12,79l1.64-.09c2.43-.14,4.87-.21,7.25-.21H55.1c2.34,0,4.74.07,7.12.21l2,.11-.46-2A10.2,10.2,0,0,1,63.56,74.68Zm-35-57.6v1.28H22.22V17.08Zm-6.32-1.7V13h6.32v2.38Zm6.32,8.53v3.58H22.22V23.91Zm0,6.4v6.1H22.22v-6.1Zm0,13.42v1.81H22.22V43.73Zm0,2.88v6.32H22.22V46.61Zm0,9.14v8.46H22.22V55.75Zm0,9.93v.92H22.22v-.92Zm0,2.39V70.7H22.22V68.07Z"/></svg>