<?xml version="1.0" encoding="UTF-8"?>
<svg id="Layer_1" data-name="Layer 1" xmlns="http://www.w3.org/2000/svg" viewBox="0 0 179.78 226.64">
  <defs>
    <style>
      .cls-1 {
        fill: #231f20;
      }
    </style>
  </defs>
  <path class="cls-1" d="m152.79,132.9c10.88-12.59,17.49-28.97,17.49-46.87,0-39.57-32.19-71.77-71.76-71.77S26.76,46.46,26.76,86.03v126.35h41.2v-61.44c9.28,4.39,19.64,6.85,30.57,6.85,16.73,0,32.12-5.77,44.34-15.4l-27.35-30.97c-4.86,3.26-10.71,5.17-16.99,5.17-16.86,0-30.57-13.71-30.57-30.57s13.71-30.57,30.57-30.57,30.57,13.71,30.57,30.57c0,5.58-1.53,10.81-4.15,15.31l27.86,31.56Z"/>
  <g>
    <path class="cls-1" d="m84.53,109.36v-33.03h-9.01v24.23c2.28,3.59,5.37,6.61,9.01,8.81Z"/>
    <path class="cls-1" d="m98.8,113.26v-50.3h-9.02v48.85c2.75.93,5.68,1.46,8.73,1.46.09,0,.19-.01.28-.01Z"/>
    <path class="cls-1" d="m112.1,82.01h-9.02v30.85c3.23-.55,6.27-1.66,9.02-3.25v-27.6Z"/>
  </g>
</svg>