<svg id="Layer_1" data-name="Layer 1" xmlns="http://www.w3.org/2000/svg" viewBox="0 0 135.54 133.3"><defs><style>.cls-1{fill:#c6c6c5;}.cls-2{fill:#fff;}</style></defs><path class="cls-1" d="M109.15,56.2c-2.53.19-5.06.4-7.59.69s-5,.67-7.55,1.08c-1.26.22-2.51.46-3.77.7s-2.49.55-3.73.86-2.48.61-3.71,1-2.46.7-3.67,1.11a101.54,101.54,0,0,0-14.2,5.87,103.56,103.56,0,0,0-13.1,8A113.9,113.9,0,0,0,40,85.28a135.2,135.2,0,0,0-10.4,11.15l-2.39,3c-.79,1-1.55,2-2.3,3l-.16.21a6.87,6.87,0,0,1,.58.63l.26-.28c.86-.92,1.69-1.86,2.56-2.78l2.61-2.72c.86-.92,1.77-1.79,2.66-2.68l1.33-1.32c.45-.45.92-.86,1.37-1.29.93-.85,1.82-1.73,2.75-2.57l2.81-2.49A139,139,0,0,1,53.57,78a108.28,108.28,0,0,1,12.82-7.63A104.15,104.15,0,0,1,80.1,64.51a126.38,126.38,0,0,1,14.39-4.08c2.45-.54,4.91-1,7.38-1.46s4.95-.83,7.45-1.2c2.79-.42,5.6-.79,8.41-1.17q0-.39-.06-.78C114.83,55.9,112,56,109.15,56.2Z"/><path class="cls-1" d="M67.75,52.66A210.11,210.11,0,0,0,96,55.53c7.23.3,14.44.36,21.66.27a8.21,8.21,0,0,1,0-1,6.78,6.78,0,0,1,.28-1.22l-.59-.21a57.23,57.23,0,0,1-6.48-2.85,26.78,26.78,0,0,1-10.21-8.69A18.44,18.44,0,0,1,99.11,39c-.24-.49-.41-1-.63-1.53s-.33-1.07-.51-1.59a29,29,0,0,1-1-6.74c-.07-1.16,0-2.33,0-3.51s.12-2.36.29-3.55c.06-.55.1-1.1.18-1.65A6.49,6.49,0,0,1,96,19.91c-.21.57-.41,1.15-.59,1.74a37.06,37.06,0,0,0-1,3.62A36.17,36.17,0,0,0,93.89,29a26.07,26.07,0,0,0,.49,7.71c.17.64.31,1.28.52,1.9s.41,1.26.68,1.86A21.86,21.86,0,0,0,97.47,44l.57.82c.18.27.41.52.61.78l.63.77.68.72a18.25,18.25,0,0,0,1.43,1.35,17.76,17.76,0,0,0,1.52,1.23,27.84,27.84,0,0,0,6.76,3.64,34.29,34.29,0,0,0,4.12,1.27C107.91,54,102,53.56,96.18,53c-9.35-.87-18.66-1.92-27.87-3.54A252,252,0,0,1,41,43.11c-6.89-2-13.71-4.27-20.53-6.61a5.25,5.25,0,0,1-.33.77,197.49,197.49,0,0,0,20.1,8.23A173.52,173.52,0,0,0,67.75,52.66Z"/><path class="cls-1" d="M19.83,46.93c.2.73.41,1.46.59,2.2s.36,1.48.52,2.23a107,107,0,0,1,2.18,18.13,140.16,140.16,0,0,1-.52,18.32c-.4,4.3-1,8.58-1.76,12.87a6.59,6.59,0,0,1,1,.22A80.88,80.88,0,0,0,25,88.13a89.26,89.26,0,0,0,1.24-18.77,75.44,75.44,0,0,0-3-18.62A50.8,50.8,0,0,0,19.82,42c-.39-.69-.76-1.39-1.18-2.05l-.26-.41a7.81,7.81,0,0,1-1,.65c.36.81.69,1.62,1,2.44C18.94,44,19.43,45.46,19.83,46.93Z"/><path class="cls-2" d="M50.28,127.57c1,.23,1.57-.13,1.76-.94.26-1.14-.64-1.38-1.49-1.7s-1.6-.71-1.28-2c.24-1,1.06-1.53,2.34-1.23s1.76,1.09,1.52,2.12l-.53-.12c.16-.78-.14-1.26-1.1-1.49s-1.49.13-1.66.84c-.26,1.09.5,1.27,1.28,1.57s1.81.77,1.48,2.17a1.78,1.78,0,0,1-2.44,1.34c-1.23-.29-1.91-1-1.61-2.27l.54.13C48.92,126.68,49.17,127.31,50.28,127.57Zm6.23,1.15c1,.13,1.55-.29,1.66-1.11.16-1.16-.76-1.31-1.64-1.55s-1.66-.55-1.48-1.91c.15-1.05.92-1.62,2.22-1.44s1.86.91,1.71,2l-.53-.07c.08-.79-.26-1.24-1.24-1.37s-1.47.27-1.57,1c-.15,1.11.61,1.22,1.42,1.44s1.88.59,1.68,2c-.15,1.12-.89,1.75-2.3,1.56-1.25-.17-2-.77-1.81-2.1l.55.08C55.07,128,55.38,128.56,56.51,128.72Zm6.32.54c1,0,1.51-.42,1.55-1.25,0-1.18-.88-1.24-1.79-1.39s-1.7-.39-1.64-1.76c0-1.06.75-1.7,2.07-1.65s1.93.73,1.89,1.79l-.55,0c0-.8-.37-1.21-1.35-1.25s-1.45.41-1.48,1.14c0,1.12.73,1.16,1.56,1.3S65,126.58,65,128c0,1.13-.72,1.83-2.14,1.77-1.26,0-2.06-.58-2-1.91l.56,0C61.33,128.65,61.69,129.22,62.83,129.26Zm4.28-1.79-.1-1.76c-.1-1.82.52-2.45,1.91-2.53s2.07.43,2.18,2.33l.1,1.73c.1,1.79-.51,2.46-1.9,2.54S67.22,129.35,67.11,127.47Zm3.54-.22-.1-1.71c-.08-1.39-.33-1.91-1.6-1.84s-1.46.63-1.39,2l.1,1.71c.08,1.39.34,1.94,1.61,1.87S70.72,128.61,70.65,127.25Zm3-4.33.15.5a1.86,1.86,0,0,1,1.44-.94,1.71,1.71,0,0,1,1.89.61,2,2,0,0,1,1.64-1.29c1.56-.31,2.11.44,2.4,1.94l.8,4.11-.54.1-.8-4.11c-.27-1.35-.62-1.77-1.81-1.53s-1.39,1-1.21,2l.83,4.28-.54.1-.8-4.12c-.24-1.18-.62-1.76-1.81-1.53s-1.42.85-1.24,1.74l.87,4.49-.54.11L73.15,123Zm42.91-20.56a62.3,62.3,0,0,0,11.24-43,5.06,5.06,0,0,1-3.12,1.41c0,.31.07.61.1.93A59.38,59.38,0,0,1,114,100.39a8.55,8.55,0,0,0-2.64-.82,8.2,8.2,0,0,0-5.63,1.3q-.88-1.47-1.74-3c-2.09-3.68-4-7.44-5.81-11.25a112.79,112.79,0,0,1-7.94-23.82l-.57-3.08-.46-3.1-.35-3.11-.22-3.12A70.21,70.21,0,0,1,89.11,38l.21-1.55.27-1.54c.17-1,.44-2,.65-3.06.1-.51.26-1,.39-1.51s.27-1,.43-1.51c.34-1,.63-2,1-3a38.16,38.16,0,0,1,2.24-5,8.21,8.21,0,0,0,9.29-.29,58.92,58.92,0,0,1,19.32,30.29,4.85,4.85,0,0,1,1.38-.21,5.12,5.12,0,0,1,.67,0,4.72,4.72,0,0,1,1.34.4,62.05,62.05,0,0,0-20.5-32.88A8.27,8.27,0,0,0,93.75,7.3a8.1,8.1,0,0,0-1.87,2A62.49,62.49,0,0,0,17.09,26.58a7.75,7.75,0,0,0-1.81-.46A8.3,8.3,0,0,0,6,33.23a8.19,8.19,0,0,0,1.64,6.12,6.68,6.68,0,0,0,.91,1,62.53,62.53,0,0,0,5.55,61.45,8.3,8.3,0,0,0,5.72,14.26,8.3,8.3,0,0,0,5.43-2c.39.33.78.67,1.19,1A62.67,62.67,0,0,0,42,124.16h0a1.59,1.59,0,0,0,.69.16,1.61,1.61,0,0,0,.66-3.08h0a59.35,59.35,0,0,1-14.87-8.73l-1.24-1a8.59,8.59,0,0,0,.8-2.59,8.27,8.27,0,0,0-11.19-8.81,59.31,59.31,0,0,1-5.52-58,7.88,7.88,0,0,0,1.81.46,8.08,8.08,0,0,0,1.09.07A8.26,8.26,0,0,0,19,41.05c4.46,6.11,9.14,12.07,14.2,17.74C36.6,62.7,40.29,66.36,44,70c.23.23.46.46.7.68l.73.64,1.46,1.29,2.92,2.58c2,1.65,4,3.29,6,4.92s4.18,3.08,6.3,4.58,4.3,2.91,6.49,4.31l6.68,4c2.26,1.27,4.55,2.47,6.84,3.69a212.88,212.88,0,0,0,20.12,9,8.55,8.55,0,0,0-.22,1,8.28,8.28,0,0,0,1.13,5.36,58.61,58.61,0,0,1-15.4,9.16h0a1.61,1.61,0,0,0,.65,3.08,1.52,1.52,0,0,0,.71-.17,62.28,62.28,0,0,0,16.22-9.73,8.43,8.43,0,0,0,4.94,1.65,8.28,8.28,0,0,0,6.57-13.31C116.78,102.61,116.67,102.49,116.56,102.36Zm-96.1.41a5.14,5.14,0,1,1-.68,0A5.17,5.17,0,0,1,20.46,102.77ZM93.77,13.21a5,5,0,0,1,5.67-4.34,5.06,5.06,0,0,1,4.34,5.67,5,5,0,0,1-10-1.33ZM59,7.1a62,62,0,0,1,6.65-.37,58.85,58.85,0,0,1,25,5.58c0,.16-.07.31-.09.47a8.26,8.26,0,0,0,1,5.23A133,133,0,0,1,79.07,24a140.37,140.37,0,0,1-21,6.66,147.41,147.41,0,0,1-21.75,3.44c-4.61.38-9.24.53-13.89.5a8.26,8.26,0,0,0-2.61-6.26A59.18,59.18,0,0,1,59,7.1ZM13.52,39.33a5,5,0,0,1-3.34-1.94,5,5,0,0,1-1-3.73,5,5,0,0,1,5-4.38,4.87,4.87,0,0,1,.66,0,5,5,0,1,1-1.33,10ZM83.4,94.45l-3.3-2c-1.1-.66-2.21-1.28-3.3-2L70.33,86.4,64,82.08c-2.06-1.5-4.09-3-6.14-4.57l-6-4.77c-1.92-1.68-3.87-3.33-5.78-5l-2.82-2.59-1.41-1.3c-.47-.43-.92-.89-1.38-1.33-1.81-1.81-3.67-3.56-5.44-5.42-5.25-5.37-10.28-11-15.32-16.6a8.23,8.23,0,0,0,2.64-4.84,102.17,102.17,0,0,0,14.11.61,110,110,0,0,0,22.27-2.9A105.19,105.19,0,0,0,80,25.94a90.6,90.6,0,0,0,12.25-7h0a8.51,8.51,0,0,0,1.32,1.36l-.47.7c-.3.45-.6.9-.86,1.37l-.81,1.41c-.26.47-.5,1-.75,1.44a48,48,0,0,0-4,12.37,67.68,67.68,0,0,0,.5,25.92A92.33,92.33,0,0,0,96,87.76a111.73,111.73,0,0,0,6.73,11c.69,1,1.39,1.91,2.1,2.86a8.19,8.19,0,0,0-2.17,3.1C96.13,101.42,89.69,98.06,83.4,94.45Zm31.91,14a5,5,0,1,1-10-1.33,5,5,0,0,1,5-4.38,3.78,3.78,0,0,1,.67,0,5,5,0,0,1,4.34,5.66Z"/><path class="cls-1" d="M125.41,47.48a8.28,8.28,0,1,0,7.12,9.29A8.28,8.28,0,0,0,125.41,47.48Zm3.92,8.87a5,5,0,1,1-8.07-4.67,5,5,0,0,1,3-1,5.17,5.17,0,0,1,.68,0,5.06,5.06,0,0,1,4.34,5.67Z"/></svg>