<?xml version="1.0" encoding="utf-8"?>
<!-- Generator: Adobe Illustrator 19.1.0, SVG Export Plug-In . SVG Version: 6.00 Build 0)  -->
<svg version="1.1" id="Layer_1" xmlns="http://www.w3.org/2000/svg" xmlns:xlink="http://www.w3.org/1999/xlink" x="0px" y="0px"
	 viewBox="-268.7 144.6 189.4 154.9" style="enable-background:new -268.7 144.6 189.4 154.9;" xml:space="preserve">
<g>
	<g>
		<path d="M-205.5,210.7c2.8,0,5.5,1,7.5,2.9l24.1,24.3l5.4-5.3l-24.2-24.4l-0.2-0.2c-3.4-3.1-7.9-4.8-12.6-4.9h-0.1
			c-10.4,0-19,8.5-19,19v2h0.1c1,9.5,9,17,18.9,17c4.4,0,8.7-1.6,12.2-4.4l2-2l0,0c0.7-0.7,1.1-1.7,1.1-2.7c0-2.1-1.7-3.8-3.8-3.8
			c-0.9,0-1.7,0.3-2.4,0.8l-1.9,1.9c-2,1.7-4.6,2.6-7.2,2.6c-5.8,0-10.7-4.5-11.2-10.2V222C-216.7,215.8-211.7,210.8-205.5,210.7z"
			/>
		<path d="M-142.5,203c-4.7,0-9.2,1.7-12.7,4.9l-4,4l5.4,5.4l3.7-3.7c2.1-1.9,4.7-2.9,7.5-2.9c6.2,0,11.2,5,11.2,11.2
			s-5,11.2-11.2,11.2c-2.6,0-5.1-0.9-7.1-2.6l-1.4-1.4l-0.5-0.5c-0.7-0.5-1.5-0.8-2.4-0.8c-2.1,0-3.8,1.7-3.8,3.8c0,1,0.4,2,1.1,2.7
			l0,0l1.7,1.8l0.2,0.2c3.4,2.9,7.7,4.4,12.1,4.4c10.4,0,18.9-8.5,18.9-18.9C-123.6,211.6-132.1,203-142.5,203z"/>
	</g>
	<g>
		<path d="M-184.1,238c-1,0-1.9,0.3-2.6,1l-2.7,2.7c-4.7,4-10.6,6.1-16.8,6.1c-1.8,0-3.5-0.2-5.2-0.5c-11.4-2.4-19.9-12.2-20.6-23.8
			V222c0-12.2,8.7-22.9,20.7-25.4l0.6-0.1c1.5-0.3,3-0.4,4.5-0.4c6.6,0,13,2.5,17.8,7c0.5,0.4,15.4,15.5,23.1,23.3l0.9,0.9l0,0
			l0.2,0.1l5.5-5.5l-11.1-11.2l-11.8-11.7c-0.4-0.5-0.9-0.9-1.4-1.4c-6.2-5.9-14.5-9.2-23.1-9.2c-2.3,0-4.6,0.2-6.8,0.7
			c-15.6,3.2-26.9,17.1-26.9,33v1.5l0,0c0.7,15.3,11.8,28.4,26.9,31.5c2.2,0.5,4.5,0.7,6.8,0.7c8.1,0,15.9-2.9,22-8.2l3-3
			c0.7-0.7,1-1.7,1-2.6C-180.2,239.8-181.9,238-184.1,238z"/>
		<path d="M-135,189c-2.2-0.5-4.4-0.7-6.7-0.7c-8.6,0-16.9,3.3-23.1,9.2c-0.5,0.4-0.9,0.9-1.3,1.3l-3.1,3.1l5.5,5.5l3.1-3.1l0.1-0.1
			c0.3-0.4,0.7-0.7,1.1-1.1c4.8-4.5,11.1-7,17.8-7c1.8,0,3.5,0.2,5.2,0.5c11.9,2.5,20.7,13.2,20.7,25.4c0,12.2-8.6,22.9-20.6,25.3
			c-1.7,0.4-3.5,0.5-5.2,0.5c-6.1,0-12-2.2-16.8-6.1l-2.8-2.8c-0.7-0.6-1.6-1-2.6-1c-2.2,0-3.9,1.8-3.9,3.9c0,1,0.4,1.9,1.1,2.7
			l2.8,2.8l0,0c6.1,5.3,13.9,8.4,21.9,8.4c2.3,0,4.6-0.2,6.8-0.7c15.6-3.2,26.9-17.1,26.9-33C-108,206-119.3,192.2-135,189z"/>
	</g>
</g>
</svg>
