<svg id="Layer_1" data-name="Layer 1" xmlns="http://www.w3.org/2000/svg" viewBox="0 0 145.0073 147.6192"><defs><style>.cls-1,.cls-2{fill:#231f20;}.cls-2{opacity:0.53;}</style></defs><title>sepio_logo</title><path class="cls-1" d="M77.0878,143.2045a8.7146,8.7146,0,0,1-.5595-17.4106A52.72,52.72,0,1,0,29.5556,102.997a8.7143,8.7143,0,0,1-14.3711,9.86A70.1294,70.1294,0,1,1,77.665,143.1855C77.4716,143.1982,77.2787,143.2045,77.0878,143.2045Z"/><path class="cls-2" d="M44.1056,76.6531l.0356-.0038c.0562-.0229.1129-.0445.17-.0664Z"/><path class="cls-2" d="M44.1056,76.506a1.741,1.741,0,0,0-.6542.224Z"/><path class="cls-1" d="M107.057,64.1314c-2.8,0-5.6271,1.1515-8.8973,3.6234-1.6064,1.2143-3.1642,2.62-4.7514,4.0746-.138.1264-.3.2907-.4718.4646-.7765.7869-1.6567,1.6788-2.7239,1.6788a1.873,1.873,0,0,1-1.6-.9242c-1.0417-1.6023-.8178-4.4844-.5063-6.8162.3715-2.7816,1.1241-6.1416,3.6674-7.4445a18.6517,18.6517,0,0,1,8.4234-1.77h0c.24,0,.4844.0033.7266.01a29.92,29.92,0,0,1,5.095.606,17.41,17.41,0,0,0-10.0443-9.4612c-6.0934-2.2227-13.0218-.96-18.8218,1.9434C69.73,53.8319,64.5827,60.4758,57.4383,64.46c-1.5471.8626-3.203,1.5121-4.74,2.3938-2.4351,1.3969-5.3007,2.4272-5.3027,5.7685A1.5777,1.5777,0,0,0,47.86,73.9a1.6348,1.6348,0,0,0,.6573.2664,10.905,10.905,0,0,0,4.3533-.0647c1.0025-.18,2.0035-.4246,2.9932-.6311a12.06,12.06,0,0,1,5.271-.18c1.6525.4051,3.0548,1.5721,4.6077,2.2593A14.683,14.683,0,0,0,70.19,76.9373c1.778.15,3.3982-.1625,5.1153.5721,2.5852,1.1058,4.1359,3.7848,5.0466,6.445a9.1577,9.1577,0,0,1,.5651,2.5831c.1188,3-1.6182,6.3716-3.332,8.7248-.3.4112-.6156.8105-.9006,1.2318a9.1211,9.1211,0,0,0-1.6175,4.226c1.3922.3084,4.1706-1.9521,5.4716-2.5539a58.9186,58.9186,0,0,1,6.7492-2.6319c1.8031-.578,3.6374-1.07,5.39-1.7875a22.7287,22.7287,0,0,0,12.1657-12.0059,41.0814,41.0814,0,0,0,2.2279-7.9564,37.8464,37.8464,0,0,0,.8275-5.6374,24.7135,24.7135,0,0,0-.1233-3.988C107.5361,64.1425,107.2969,64.1314,107.057,64.1314Z"/><path class="cls-1" d="M97.4812,66.0156c4.2926-3.2448,9.07-5.2827,14.8366-2.6331,1.0585.4863,2.07,1.0846,2.3153-.2686a3.5509,3.5509,0,0,0-1.45-2.8372,7.09,7.09,0,0,0-2.1948-1.0061,36.5957,36.5957,0,0,0-10.0965-1.962,18.1522,18.1522,0,0,0-8.607,1.6367c-2.1359,1.0942-2.7657,4.3456-3.0659,6.593-.2061,1.543-.5666,4.6687.3346,6.055.7985,1.2282,2.1762-.594,3.0944-1.4353C94.2054,68.7313,95.8064,67.2816,97.4812,66.0156Z"/><path class="cls-1" d="M56.92,51.0693c-3.5266-1.316-6.989-3.2088-10.7531-3.1918,1.5979,1.4575,3.2859,3.0715,3.6768,5.1987a17.5318,17.5318,0,0,1-.09,3.8894,11.7674,11.7674,0,0,0,2.18,7.29,2.311,2.311,0,0,0,1.1905.993,2.5077,2.5077,0,0,0,1.7535-.4273,66.5762,66.5762,0,0,0,6.8381-4.2893c1.1423-.8066,2.2655-1.64,3.3787-2.4862.8677-.66,2.4838-1.4841,3.0562-2.4061,1.5272-2.46-2.0555-2.4189-3.5159-2.6222A36.4655,36.4655,0,0,1,56.92,51.0693Z"/><path class="cls-2" d="M45.6768,75.7786l.9052-.31C46.2745,75.557,45.9739,75.6637,45.6768,75.7786Z"/><path class="cls-1" d="M74.5832,96.7665c1.8956-3.0073,3.2068-6.56,2.74-10.0836S74.245,79.7765,70.73,79.245c-2.1207-.3207-4.4311.3569-6.3522-.5968-1.18-.5859-2.0135-1.7066-3.153-2.3683-1.8692-1.0855-4.2132-.7691-6.3194-.2835s-4.3049,1.1083-6.3893.5362A8.6694,8.6694,0,0,0,45.495,75.85a12.8336,12.8336,0,0,0-6.6737,6.5961,17.0394,17.0394,0,0,0-.919,10.5484,3.38,3.38,0,0,0,.8256,1.7514,3.6983,3.6983,0,0,0-.2638.2632,7.8213,7.8213,0,0,0-1.4026,2.5445,29.1181,29.1181,0,0,0-1.4161,13.58c.7888,6.1845,4.7409,12.2027,4.6572,18.4406a3.97,3.97,0,0,1-.577,2.1855,2.0713,2.0713,0,0,1-1.95.9558,1.6269,1.6269,0,0,1-.3669-3.1095c-1.3208-.7625-3.138-1.1675-4.2689-.1444a2.9133,2.9133,0,0,0-.1914,3.6858,6.36,6.36,0,0,0,3.2883,2.201,7.0783,7.0783,0,0,0,2.7415.488,3.3321,3.3321,0,0,0,2.4493-1.18,4.9489,4.9489,0,0,0,.77-1.919c1.6759-7.0476-.7707-14.4236-.8642-21.5567a16.4275,16.4275,0,0,1,.33-5.2807,10.6206,10.6206,0,0,1,2.13-4.06,4.5838,4.5838,0,0,1,2.2945-1.39c-.5713.1261-1.4215,1.6111-1.638,2.1042-.3681.8384-.74,1.7248-1.04,2.6a17.19,17.19,0,0,0-.92,5.8871c.0606,3.104,1.0627,6.0792,1.47,9.1437.5132,3.8621,1.8366,7.3664,1.6626,11.3957-.0472,1.0929.82,8.8609-1.6979,7.9977a.6092.6092,0,0,1-.2109-.9669c-.75-.052-1.7413.5876-1.5692,1.45a1.3453,1.3453,0,0,0,.3973.6477,3.0069,3.0069,0,0,0,1.6574.9091c2.279.3477,4.0236-4.0983,4.7422-5.7864,1.2276-2.8836,1.2878-6.4319,1.1283-9.5267-.1891-3.6695-1.14-7.2416-1.7557-10.85a27.2344,27.2344,0,0,1-.3327-8.27,6.9676,6.9676,0,0,1,.9168-3.1072c.6377-.94,1.63-1.37,2.3763-2.1577-2.3662,2.4966-2.1869,5.5344-2.0707,8.7246a43.2228,43.2228,0,0,0,1.3311,8.1738c.61,2.6226.8237,5.4817,1.18,8.1666a27.143,27.143,0,0,1-.516,9.9c-.2427,1.0087-.7682,2.1967-1.8031,2.27-.5055.036-1.0858-.4855-.82-.9171a1.9126,1.9126,0,0,0,.5345,2.6676,2.8327,2.8327,0,0,0,2.9109-.0439,5.6888,5.6888,0,0,0,2.0226-2.2533,18.38,18.38,0,0,0,1.949-7.2551,41.1361,41.1361,0,0,0,.0784-6.7623,45.3252,45.3252,0,0,0-.3839-5.4018c-.3429-1.7833-.6808-3.5733-.967-5.3742-.538-3.3855-.3128-7.0652,2.3664-9.5419-.6581.6083-.8627,2.8132-1.0244,3.6723a24.35,24.35,0,0,0-.3986,3.6907,34.2408,34.2408,0,0,0,.6351,7.382c.4375,2.3572,1.2078,4.6056,1.79,6.897a40.0139,40.0139,0,0,1,.6427,7.8206,17.0976,17.0976,0,0,1-.8777,6.644c-.3653,1.0354-2.2737,3.5519-3.4841,2.1115a.8344.8344,0,0,1-.15-.55c.0013-.16.0567-.3569.19-.4122-1.04.2222-2.4446,1.02-1.8831,2.31a2.509,2.509,0,0,0,2.8548,1.303c1.3939-.2021,2.34-1.3979,3.2854-2.3655A14.1677,14.1677,0,0,0,62.51,135.47a15.2622,15.2622,0,0,0,.0237-3.2592,35.63,35.63,0,0,0-1.3652-8.6863c.1326.5076,1.4183.7008,1.8141.7739,2.6127.4829,5.68.2847,7.258-2.0965a5.9184,5.9184,0,0,0,.91-4.1071,1.528,1.528,0,0,1-2.2233,1.1324,2.4852,2.4852,0,0,1-1.063-2.6063,7.2857,7.2857,0,0,1,1.2712-2.6988l2.9384-4.5025a8.2049,8.2049,0,0,0,1.2241-2.4286c.5681-2.2826-.2847-4.7663-.5388-7.1807.013-.0283.0243-.057.0376-.0851A28.4217,28.4217,0,0,1,74.5832,96.7665Zm-5.6838.3788c-2.4035.8309-5.6446.9957-7.893-.7541A4.5943,4.5943,0,0,1,59.0839,92.84a8.2422,8.2422,0,0,1,1.9852-4.7361,15.2784,15.2784,0,0,1,4.4675-3.5315,9.3557,9.3557,0,0,1,1.9724-.7589,5.0494,5.0494,0,0,1,4.1136.6045A6.4564,6.4564,0,0,1,74.2,88.9408C74.7416,93.1979,71.3253,96.3066,68.8994,97.1453Z"/><path class="cls-1" d="M66.2656,90.998a1.2651,1.2651,0,0,1-1.0769-.8809,1.8329,1.8329,0,0,0-1.4081,1.652,3.3708,3.3708,0,0,0,2.28,3.2045,1.8457,1.8457,0,0,0,1.755-.4012,4.5234,4.5234,0,0,0,.7825-1.57c.2272-.5439.6578-1.1,1.2472-1.1066,1.7856-.0186.5422-2.2507-.56-2.5293a3.3858,3.3858,0,0,0-1.8665.2688C66.8965,89.9887,67.1052,91.0045,66.2656,90.998Z"/><path class="cls-2" d="M44.1056,76.5411l.0356-.0038c.0562-.0229.1129-.0445.17-.0665Z"/><path class="cls-2" d="M44.1056,76.394a1.741,1.741,0,0,0-.6542.224Z"/></svg>