<svg xml:space="preserve" viewBox="117.19999999999999 22.528 167.6 304.128" width="167.6" y="0px" x="0px" xmlns:xlink="http://www.w3.org/1999/xlink" xmlns="http://www.w3.org/2000/svg" id="Layer_1" version="1.1" style="max-height: 500px" height="304.128">
<path d="M154.653595,261.996674 &#10;&#9;C154.653519,255.501541 154.622086,249.505417 154.661102,243.509735 &#10;&#9;C154.726166,233.510101 160.068680,229.898422 168.802963,234.553574 &#10;&#9;C180.801498,240.948486 192.505615,247.896942 204.318436,254.638794 &#10;&#9;C220.178513,263.690521 235.980194,272.845764 251.904160,281.783356 &#10;&#9;C255.523865,283.815002 256.516693,286.630035 256.337036,290.433868 &#10;&#9;C256.153046,294.328735 253.930405,296.376831 250.583847,297.741974 &#10;&#9;C232.233292,305.227905 213.190720,309.315308 193.354507,308.239502 &#10;&#9;C182.973846,307.676514 172.622086,306.141724 162.561920,303.172272 &#10;&#9;C157.834259,301.776764 155.508881,299.177643 155.537079,293.854187 &#10;&#9;C155.592407,283.403259 154.986328,272.948853 154.653595,261.996674 &#10;z" stroke="none" opacity="1.000000" fill="#000000"/>
<path d="M74.599289,171.752838 &#10;&#9;C68.762375,170.084732 68.144897,165.734863 68.807396,161.285156 &#10;&#9;C72.564804,136.048203 81.248260,112.956337 98.292320,93.399292 &#10;&#9;C101.678741,89.513573 105.074226,85.669899 108.781479,82.118706 &#10;&#9;C112.061821,78.976448 115.934021,78.770477 119.807251,80.980873 &#10;&#9;C134.920883,89.606003 150.001587,98.288895 165.082199,106.971718 &#10;&#9;C171.075226,110.422272 171.331924,118.188271 165.290695,121.775497 &#10;&#9;C146.060822,133.194000 126.703957,144.398529 107.400818,155.693710 &#10;&#9;C99.677887,160.212738 92.025391,164.856644 84.219681,169.227341 &#10;&#9;C81.417274,170.796494 78.652237,173.113983 74.599289,171.752838 &#10;z" stroke="none" opacity="1.000000" fill="#000000"/>
<path d="M270.362732,210.283600 &#10;&#9;C285.614014,201.447647 300.505035,192.722351 315.500580,184.180527 &#10;&#9;C322.623077,180.123398 328.678192,183.568405 328.273224,191.633179 &#10;&#9;C327.366791,209.683899 321.553741,226.342850 312.776611,241.994827 &#10;&#9;C306.570892,253.061295 298.688721,262.847534 289.467041,271.591156 &#10;&#9;C285.919312,274.954987 282.535858,276.113892 277.953918,273.477448 &#10;&#9;C262.566956,264.623749 246.993179,256.093750 231.635605,247.190277 &#10;&#9;C225.564178,243.670410 226.549606,235.586899 232.991180,231.923630 &#10;&#9;C245.397247,224.868408 257.699860,217.631271 270.362732,210.283600 &#10;z" stroke="none" opacity="1.000000" fill="#000000"/>
<path d="M134.337646,209.000031 &#10;&#9;C134.338150,231.301178 134.327942,253.102325 134.348846,274.903442 &#10;&#9;C134.352112,278.303314 134.405640,281.738190 130.707642,283.448883 &#10;&#9;C126.904732,285.208099 123.378403,284.577362 120.001686,282.044220 &#10;&#9;C95.742996,263.845886 80.060585,239.917984 72.280037,210.720444 &#10;&#9;C70.214745,202.970154 71.259415,200.524490 78.140175,196.460800 &#10;&#9;C91.852402,188.362579 105.752838,180.571762 119.291046,172.194244 &#10;&#9;C127.876068,166.881805 135.348816,171.438965 134.500427,181.055908 &#10;&#9;C133.699219,190.138062 134.334030,199.346909 134.337646,209.000031 &#10;z" stroke="none" opacity="1.000000" fill="#000000"/>
<path d="M242.346176,71.009674 &#10;&#9;C242.343353,85.318687 242.359848,99.129898 242.330139,112.941010 &#10;&#9;C242.312454,121.163460 236.588928,124.586044 229.357910,120.538177 &#10;&#9;C215.040085,112.523186 200.785858,104.393677 186.546402,96.239830 &#10;&#9;C173.461197,88.746941 160.503723,81.027222 147.329788,73.695290 &#10;&#9;C143.386642,71.500732 140.399429,69.246017 140.688782,64.286736 &#10;&#9;C140.984985,59.209850 144.670761,57.316929 148.628647,55.770149 &#10;&#9;C159.937851,51.350430 171.615509,48.734550 183.743835,47.449486 &#10;&#9;C199.926544,45.734833 215.794693,46.675976 231.539597,50.557804 &#10;&#9;C241.303574,52.965073 242.318802,54.254684 242.339050,64.022156 &#10;&#9;C242.343536,66.185371 242.343826,68.348602 242.346176,71.009674 &#10;z" stroke="none" opacity="1.000000" fill="#000000"/>
<path d="M282.040436,75.861740 &#10;&#9;C297.228333,88.705177 309.117401,103.639717 317.255737,121.475014 &#10;&#9;C320.847137,129.345612 323.759644,137.455856 325.935638,145.819870 &#10;&#9;C327.094849,150.275681 326.099701,154.029068 321.827240,156.507080 &#10;&#9;C306.757874,165.247253 291.749847,174.094223 276.627563,182.741623 &#10;&#9;C269.340485,186.908600 263.671967,183.604309 263.661652,175.382858 &#10;&#9;C263.632904,152.389786 263.528839,129.395691 263.712982,106.404083 &#10;&#9;C263.779694,98.076775 261.968353,89.857323 262.673920,81.525887 &#10;&#9;C262.812988,79.883507 262.850891,78.192581 263.288940,76.622673 &#10;&#9;C264.878784,70.924927 269.413177,68.614487 274.693176,71.033997 &#10;&#9;C277.221161,72.192413 279.415649,74.078690 282.040436,75.861740 &#10;z" stroke="none" opacity="1.000000" fill="#000000"/>
<path d="M189.874786,128.767471 &#10;&#9;C196.080338,124.100060 201.469727,124.349762 207.850052,128.571259 &#10;&#9;C218.215164,135.429230 229.241043,141.294403 240.044281,147.480377 &#10;&#9;C242.929230,149.132339 244.370636,151.289993 244.351761,154.691696 &#10;&#9;C244.269577,169.501755 244.216354,184.313629 244.379150,199.122345 &#10;&#9;C244.422958,203.106461 242.273392,205.313416 239.329895,207.032410 &#10;&#9;C229.308380,212.884903 218.864563,218.093109 209.258804,224.553635 &#10;&#9;C201.657059,229.666336 195.617355,229.330124 188.131271,224.277145 &#10;&#9;C178.542664,217.804977 168.113846,212.567596 157.980194,206.918106 &#10;&#9;C154.264297,204.846466 152.549103,202.056885 152.606689,197.682449 &#10;&#9;C152.784134,184.205551 152.840576,170.721436 152.576797,157.247330 &#10;&#9;C152.480240,152.314987 154.162430,149.106232 158.435760,146.732742 &#10;&#9;C168.878723,140.932495 179.199539,134.912384 189.874786,128.767471 &#10;M216.680679,211.162598 &#10;&#9;C222.690506,207.635406 228.680176,204.073151 234.722031,200.601700 &#10;&#9;C236.615082,199.514023 237.681595,198.193268 237.668961,195.865372 &#10;&#9;C237.600403,183.220123 237.604660,170.574142 237.668381,157.928848 &#10;&#9;C237.678833,155.854935 236.956879,154.520203 235.157364,153.497009 &#10;&#9;C223.773514,147.024277 212.385284,140.556808 201.104614,133.907593 &#10;&#9;C199.369644,132.884949 198.245239,132.917511 196.628113,133.852966 &#10;&#9;C186.014008,139.992828 175.369659,146.081100 164.694794,152.114746 &#10;&#9;C161.680939,153.818237 160.180588,155.983582 160.251633,159.688889 &#10;&#9;C160.471725,171.165680 160.495163,182.652496 160.255402,194.128326 &#10;&#9;C160.173553,198.045731 161.724762,200.132828 164.988251,201.949402 &#10;&#9;C175.407547,207.749191 185.720016,213.745529 195.972046,219.837143 &#10;&#9;C197.977280,221.028625 199.333298,221.090302 201.336746,219.853409 &#10;&#9;C206.126907,216.896088 211.121201,214.269424 216.680679,211.162598 &#10;z" stroke="none" opacity="1.000000" fill="#000000"/>
<path d="M190.685974,211.399872 &#10;&#9;C183.015442,207.057098 175.674286,202.872406 168.363846,198.634735 &#10;&#9;C166.032257,197.283173 163.318527,195.823441 165.329727,192.507248 &#10;&#9;C167.215302,189.398178 169.713821,190.601364 172.190475,192.038483 &#10;&#9;C181.509460,197.445984 190.832703,202.849030 200.244400,208.092102 &#10;&#9;C202.872742,209.556335 204.159561,211.626144 202.965866,214.173447 &#10;&#9;C201.498932,217.303818 198.875488,216.099640 196.598450,214.810776 &#10;&#9;C194.724274,213.749908 192.883087,212.630737 190.685974,211.399872 &#10;z" stroke="none" opacity="1.000000" fill="#000000"/>
<path d="M181.184662,157.315048 &#10;&#9;C177.371170,159.382797 173.878235,161.272141 170.426468,163.233932 &#10;&#9;C168.347794,164.415344 166.573135,164.257019 165.359940,162.108017 &#10;&#9;C164.089188,159.857117 164.617752,157.952713 166.916946,156.661484 &#10;&#9;C177.165802,150.905792 187.414551,145.149887 197.679092,139.422256 &#10;&#9;C199.612915,138.343170 201.731354,138.107910 202.801178,140.384918 &#10;&#9;C203.848923,142.614929 203.683365,144.922867 201.075165,146.355011 &#10;&#9;C194.546951,149.939621 188.038773,153.560699 181.184662,157.315048 &#10;z" stroke="none" opacity="1.000000" fill="#000000"/>
<path d="M232.335205,176.000763 &#10;&#9;C232.328171,182.655548 232.321991,188.810486 232.313461,194.965408 &#10;&#9;C232.310501,197.096054 232.038437,199.099625 229.297043,199.227615 &#10;&#9;C226.369949,199.364319 225.671921,197.472122 225.673630,195.011307 &#10;&#9;C225.681808,183.200623 225.676590,171.389923 225.687256,159.579239 &#10;&#9;C225.689072,157.566956 226.207550,155.898956 228.650558,155.803619 &#10;&#9;C231.219193,155.703354 232.238052,157.190369 232.260040,159.532471 &#10;&#9;C232.310028,164.855057 232.313004,170.178070 232.335205,176.000763 &#10;z" stroke="none" opacity="1.000000" fill="#000000"/>
</svg>