<?xml version="1.0" encoding="utf-8"?>
<!-- Generator: Adobe Illustrator 22.1.0, SVG Export Plug-In . SVG Version: 6.00 Build 0)  -->
<svg version="1.1" id="Layer_1" xmlns="http://www.w3.org/2000/svg" xmlns:xlink="http://www.w3.org/1999/xlink" x="0px" y="0px"
	 viewBox="0 0 217 110" style="enable-background:new 0 0 217 110;" xml:space="preserve">
<style type="text/css">
	.st0{fill:#FFFFFF;}
</style>
<path class="st0" d="M58,36.6c4.6,0,8.9,1.7,12.2,4.7l39.4,39.6l8.8-8.6L79,32.4l-0.3-0.3c-5.6-5.1-12.9-7.9-20.6-8H58
	C40.9,24.1,27,38,27,55v3.3h0.2C28.9,73.8,42,85.9,58,85.9c7.3,0,14.3-2.6,19.9-7.3l3.3-3.2l0,0c1.2-1.2,1.8-2.8,1.8-4.4
	c0-3.4-2.8-6.2-6.2-6.2c-1.4,0-2.8,0.5-3.9,1.4l-3.1,3.1c-3.3,2.7-7.5,4.2-11.8,4.2c-9.6,0-17.4-7.3-18.4-16.6v-1.8
	C39.6,44.9,47.9,36.6,58,36.6z"/>
<path class="st0" d="M160.7,24.1c-7.7,0-15,2.8-20.7,8l-6.5,6.5l8.9,8.8l6-6c3.4-3.1,7.8-4.8,12.3-4.8c10.1,0,18.4,8.2,18.4,18.4
	c0,10.1-8.2,18.4-18.4,18.4c-4.3,0-8.4-1.5-11.7-4.2l-2.4-2.4l-0.8-0.7c-1.1-0.9-2.5-1.4-3.9-1.4c-3.4,0-6.3,2.8-6.3,6.3
	c0,1.7,0.7,3.3,1.9,4.4l0,0l2.9,2.9l0.4,0.4c5.6,4.7,12.6,7.2,19.8,7.2c17,0,30.8-13.8,30.8-30.8C191.6,38,177.7,24.1,160.7,24.1z"
	/>
<g>
	<path class="st0" d="M92.9,81.1c-1.6,0-3.1,0.6-4.3,1.7l-4.4,4.4c-7.6,6.5-17.3,10.1-27.3,10.1c-2.9,0-5.8-0.3-8.6-0.9
		c-18.7-3.9-32.5-20-33.6-38.9V55c0-20,14.2-37.3,33.7-41.4l1-0.2c2.4-0.4,4.9-0.6,7.4-0.6c10.8,0,21.1,4.1,28.9,11.5
		c0.7,0.7,25,25.2,37.7,38l1.5,1.5l0,0l0.3,0.2l9-9L116,36.5L96.8,17.3c-0.7-0.8-1.5-1.5-2.3-2.3C84.2,5.3,70.8,0,56.8,0
		c-3.7,0-7.5,0.4-11.1,1.1C20.3,6.4,1.8,29,1.8,55v2.5h0.1c1.1,24.9,19.2,46.3,43.8,51.4c3.7,0.8,7.4,1.1,11.2,1.1
		c13.2,0,25.9-4.8,35.9-13.4l4.8-4.8c1.1-1.2,1.7-2.7,1.7-4.3C99.3,83.9,96.4,81.1,92.9,81.1z"/>
	<path class="st0" d="M173,1.1c-3.6-0.7-7.3-1.1-11.1-1.1c-14.1,0-27.5,5.3-37.7,15c-0.8,0.7-1.5,1.5-2.2,2.2l-5,5l9.1,9l5-5
		l0.2-0.2c0.6-0.6,1.1-1.2,1.7-1.7c7.9-7.4,18.2-11.5,29-11.5c2.9,0,5.7,0.3,8.5,0.9c19.5,4,33.7,21.4,33.7,41.4
		c0,19.9-14.1,37.3-33.6,41.3c-2.8,0.6-5.7,0.9-8.6,0.9c-10,0-19.7-3.6-27.3-10.1l-4.5-4.5c-1.2-1-2.7-1.6-4.2-1.6
		c-3.5,0-6.4,2.9-6.4,6.4c0,1.6,0.6,3.1,1.8,4.4l4.6,4.6l0.1,0.1c10,8.6,22.8,13.4,35.9,13.4c3.8,0,7.5-0.4,11.2-1.1
		C198.6,103.6,217,81,217,55.1C216.9,29,198.5,6.4,173,1.1z"/>
</g>
</svg>
