<svg id="Layer_1" data-name="Layer 1" xmlns="http://www.w3.org/2000/svg" viewBox="0 0 135.54 133.3"><defs><style>.cls-1{fill:#010101;}.cls-2{fill:#fff;}</style></defs><path class="cls-1" d="M85.31,19.79l-4-16.63h0c-1.11-.14-2.21-.26-3.33-.35s-2.24-.15-3.36-.18-2.26,0-3.4,0c-.82,0-1.66.07-2.49.12L63.21,18.88c-.22,0-.43.11-.65.15l0,.1c-1.58.31-3.13.68-4.65,1.13s-3,.95-4.45,1.53L40.52,10.85c-.58.32-1.17.64-1.74,1-1,.55-1.91,1.13-2.83,1.73s-1.84,1.24-2.73,1.88-1.77,1.31-2.63,2l-.73.6,4.86,16.21c-.15.15-.28.32-.42.48v0c-1.12,1.18-2.17,2.42-3.17,3.69s-1.95,2.59-2.84,4h-.07l-16.83-1c-.31.62-.62,1.22-.91,1.85-.46,1-.88,2-1.29,3.07-.28.69-.53,1.39-.79,2.09-.12.35-.26.69-.38,1-.36,1.06-.69,2.11-1,3.17-.1.34-.17.69-.26,1l13.4,10.12a54.39,54.39,0,0,0-.56,10.74L5.25,83.76c.09.51.16,1,.26,1.55.21,1.08.44,2.15.7,3.23s.54,2.14.85,3.2.65,2.11,1,3.16c.14.41.31.82.46,1.23h0l16.68.09,0,0h.13a52.36,52.36,0,0,0,5.88,9l-6.39,15.94c.61.58,1.21,1.18,1.83,1.74.85.76,1.71,1.49,2.59,2.2s1.77,1.4,2.68,2.06,1.62,1.15,2.45,1.7L48.1,119c.14.07.3.11.43.18l.1-.07c1.22.6,2.47,1.11,3.73,1.6a19.94,19.94,0,0,1,9.28-28.87A22.88,22.88,0,0,1,78.33,49.5,19.93,19.93,0,0,1,89.86,21.69l.16-.41Q87.71,20.43,85.31,19.79Z"/><path class="cls-2" d="M43.71,37.11V34c0-2.89,1.57-4,4.09-4s4.09,1.07,4.09,4v3.12c0,3-1.2,4.16-4.09,4.16S43.71,40.08,43.71,37.11Zm6.4,0V34c0-2-.84-2.37-2.31-2.37S45.48,32,45.48,34v3.12c0,2,.73,2.61,2.32,2.61S50.11,39.09,50.11,37.11Z"/><path class="cls-2" d="M60.46,41.09l-.22-1.44a2.71,2.71,0,0,1-2.71,1.49c-2.19,0-3.7-1-3.7-3.94V34.33c0-2.95,1.4-4.24,3.7-4.24a3,3,0,0,1,2.63.95V26.48H62V41.09Zm-2.54-9.28c-1.59,0-2.31.63-2.31,2.55v2.86c0,1.79.72,2.26,2.18,2.26s2.37-.71,2.37-2.86V34.27C60.16,32.4,59.51,31.81,57.92,31.81Z"/><path class="cls-2" d="M67,36.23h-.8v4.86H64.42V26.67H66.2v7.88h.71l3.38-4.39h2.17l-4,5.14,4.37,5.79H70.7Z"/><path class="cls-1" d="M126.8,64a4.34,4.34,0,0,0-3.28,1.51l-6.24-2.95a8,8,0,0,0,.37-2.42,8.18,8.18,0,0,0-2.5-5.89l3.73-5.14a3.38,3.38,0,0,0,.63.07,2.93,2.93,0,1,0-2.93-2.93,2.9,2.9,0,0,0,.42,1.48l-3.74,5.15a8.08,8.08,0,0,0-3.83-1,8.22,8.22,0,0,0-8.21,8.21,7.71,7.71,0,0,0,.11,1.28L84.84,66.48a13.48,13.48,0,0,0-3.38-4.86l10.7-13.85a8.25,8.25,0,1,0-1.85-1.43L79.61,60.19a13.54,13.54,0,1,0-9.5,24.74l-1.3,17.14a8.21,8.21,0,0,0,.55,16.41l.49,0,1.38,6.7a2.3,2.3,0,1,0,2.29-.47L72.14,118a8.21,8.21,0,0,0-1-15.74l1.3-17.12a13.5,13.5,0,0,0,6.26-1.61L86.88,96a8.21,8.21,0,0,0,3.6,14.17L90,115.84a4.39,4.39,0,1,0,2.33.2l.47-5.67a8.2,8.2,0,0,0,6.68-4.2l7.1,2.71a2.29,2.29,0,1,0,2.26-2.69,2.27,2.27,0,0,0-1.42.5L100.32,104a8.21,8.21,0,0,0-11.48-9.24L80.65,82.22a13.56,13.56,0,0,0,3.81-4.71l14.68,5.66A7.9,7.9,0,0,0,98.92,85a8.22,8.22,0,1,0,1-4L85.3,75.34a13.36,13.36,0,0,0,.23-6.62L102,63.63a8.2,8.2,0,0,0,14.27,1l6.24,2.95a4.53,4.53,0,0,0-.08.74A4.36,4.36,0,1,0,126.8,64Z"/></svg>