<svg xmlns="http://www.w3.org/2000/svg" viewBox="0 0 100 80" fill="#000000">
  <!-- Solid fish silhouette with filled tail -->
  <path d="M92,40 C92,28 78,14 60,10 C45,7 30,12 20,22 C14,28 10,34 8,40 C10,46 14,52 20,58 C30,68 45,73 60,70 C78,66 92,52 92,40 Z" />
  <!-- Tail triangle -->
  <polygon points="10,40 0,12 0,68" />
  <!-- Dorsal fin -->
  <path d="M52,10 C56,2 64,0 72,4 C64,4 57,6 53,12 Z" />
  <!-- Horizontal white stripes -->
  <line x1="18" y1="30" x2="58" y2="30" stroke="#ffffff" stroke-width="3" stroke-linecap="round" />
  <line x1="15" y1="40" x2="54" y2="40" stroke="#ffffff" stroke-width="3" stroke-linecap="round" />
  <line x1="18" y1="50" x2="58" y2="50" stroke="#ffffff" stroke-width="3" stroke-linecap="round" />
  <!-- Eye -->
  <circle cx="72" cy="35" r="5" fill="#ffffff" />
  <circle cx="73.5" cy="34" r="2.5" fill="#000000" />
</svg>
