<?xml version="1.0" standalone="no"?>
<!DOCTYPE svg PUBLIC "-//W3C//DTD SVG 20010904//EN" "http://www.w3.org/TR/2001/REC-SVG-20010904/DTD/svg10.dtd">
<svg
  version="1.0"
  xmlns="http://www.w3.org/2000/svg"
  width="500.000000pt"
  height="280.000000pt"
  viewBox="0 0 500.000000 280.000000"
  preserveAspectRatio="xMidYMid meet"
>
  <g
    transform="translate(0.000000,280.000000) scale(0.100000,-0.100000)"
    fill="#000000"
    stroke="none"
  >
    <path
      d="M1865 2505 c-135 -19 -175 -27 -175 -34 0 -3 17 -16 38 -28 71 -41
      201 -153 264 -228 202 -241 300 -502 301 -800 0 -211 -41 -383 -135 -567 -91
      -178 -242 -351 -398 -454 -39 -26 -67 -51 -63 -55 10 -9 171 -35 269 -44 l71
      -6 78 78 c42 43 106 116 141 163 69 91 180 303 215 410 60 185 86 405 69 591
      -32 350 -171 652 -418 911 -73 76 -76 78 -121 77 -25 -1 -86 -7 -136 -14z"
    />
    <path
      d="M2230 2470 c510 -312 731 -902 544 -1458 -94 -281 -294 -520 -570
      -682 -38 -22 -65 -40 -61 -40 4 0 51 5 105 11 129 14 225 33 350 71 l102 31
      54 66 c154 191 256 403 308 644 32 147 32 437 0 583 -54 251 -158 468 -310
      651 -44 53 -59 64 -114 82 -132 43 -282 73 -423 86 l-70 7 85 -52z"
    />
    <path
      d="M1470 2409 c-77 -27 -180 -70 -180 -76 0 -3 34 -41 75 -85 453 -482
      443 -1231 -24 -1707 l-60 -62 47 -21 c26 -11 83 -33 127 -50 l80 -30 48 54
      c157 174 285 433 339 681 29 137 32 426 5 562 -41 202 -118 391 -226 551 -59
      88 -156 205 -169 203 -4 0 -32 -9 -62 -20z"
    />
    <path
      d="M3029 2219 c207 -246 303 -500 304 -809 0 -213 -38 -373 -135 -563
      -56 -108 -116 -195 -191 -274 -28 -29 -46 -53 -42 -53 28 0 400 232 492 307
      12 11 34 55 51 109 102 306 104 621 6 926 l-35 106 -67 50 c-105 78 -261 177
      -358 229 l-88 47 63 -75z"
    />
    <path
      d="M4745 2189 c-55 -32 -99 -64 -97 -70 2 -7 16 -30 31 -53 45 -66 100
      -181 131 -275 110 -338 65 -728 -117 -1019 -30 -47 -52 -86 -51 -88 3 -2 173
      -101 200 -115 13 -7 21 -2 37 25 21 33 21 41 21 812 0 759 -1 780 -20 812 -11
      17 -23 32 -27 31 -5 0 -53 -27 -108 -60z"
    />
    <path
      d="M960 2159 c-270 -173 -552 -410 -762 -643 l-98 -109 43 -50 c23 -28
      92 -102 152 -164 l111 -113 136 0 c119 0 443 -32 456 -45 5 -4 -27 -9 -158
      -24 -97 -11 -183 -30 -241 -54 l-33 -13 69 -58 c113 -93 411 -296 435 -296 4
      0 28 31 53 69 265 398 298 921 85 1346 -54 107 -125 215 -140 215 -7 -1 -56
      -28 -108 -61z m-124 -318 c113 -52 127 -218 24 -288 -126 -86 -299 31 -260
      177 29 107 134 157 236 111z"
    />
    <path
      d="M720 1740 c-57 -57 15 -150 79 -103 38 29 40 74 5 102 -33 26 -58 27
      -84 1z m24 -21 c-3 -5 -10 -7 -15 -3 -5 3 -7 10 -3 15 3 5 10 7 15 3 5 -3 7
      -10 3 -15z"
    />
    <path
      d="M4365 1970 c-55 -33 -100 -63 -100 -67 1 -4 15 -52 33 -105 44 -134
      62 -249 62 -393 0 -169 -30 -322 -95 -486 -5 -13 18 -30 102 -77 l108 -61 13
      24 c22 43 80 227 99 315 26 122 26 459 -1 579 -28 132 -98 332 -115 331 -3 -1
      -51 -27 -106 -60z"
    />
    <path
      d="M3945 1727 c-96 -55 -110 -66 -108 -88 1 -13 6 -70 11 -127 9 -94 3
      -261 -13 -334 -6 -24 0 -30 62 -66 135 -78 152 -87 158 -81 11 12 35 147 45
      258 12 131 0 311 -28 428 l-17 73 -110 -63z"
    />
  </g>
</svg>
