<svg viewBox="-50 -30 100 60" xmlns="http://www.w3.org/2000/svg">
  <mask id="logo-mask">
    <rect x="-50" y="-50" width="100" height="100" fill="white" />
    <rect x="-10" y="7.5" width="20" height="5" fill="black" />
    <rect x="7.5" y="-10" width="5" height="20" fill="black" />
  </mask>

  <g transform="scale(0.8) rotate(-45)">
    <path
      fill="none"
      stroke="black"
      stroke-width="5"
      stroke-linecap="round"
      mask="url(#logo-mask)"
      d="M 5 10 L 5 -20 A 25 25 0 1 0 -20 5 L -15 5"
    />
    <path
      fill="none"
      stroke="black"
      stroke-width="5"
      stroke-linecap="round"
      mask="url(#logo-mask)"
      d="M -5 10 L -5 -20 A 15 15 0 1 0 -20 -5 L -15 -5"
    />
    <path
      fill="none"
      stroke="black"
      stroke-width="5"
      stroke-linecap="round"
      mask="url(#logo-mask)"
      d="M -5 15 L -5 20 A 25 25 0 1 0 20 -5 L 10 -5"
    />
    <path
      fill="none"
      stroke="black"
      stroke-width="5"
      stroke-linecap="round"
      mask="url(#logo-mask)"
      d="M 5 15 L 5 20 A 15 15 0 1 0 20 5 L 10 5"
    />
  </g>
</svg>
